<svg xmlns="http://www.w3.org/2000/svg" xmlns:xlink="http://www.w3.org/1999/xlink" width="64" height="32" viewBox="0 0 64 32" focusable="false">
    <defs>
        <path id="2m4xfti3ca" d="M1.537 1.715C-.063 3.255 0 5.307 0 7.503c0 2.197-.064 4.25 1.537 5.788 1.11 1.068 2.39 1.642 4.246 1.642v-3.202c-.683 0-1.216-.308-1.494-.656-.341-.431-.554-.903-.554-3.572 0-2.668.213-3.16.554-3.592.278-.349.811-.636 1.494-.636V.073c-1.856 0-3.137.575-4.246 1.642"/>
    </defs>
    <g fill="none" fill-rule="evenodd">
        <g>
            <path fill="#ED1844" d="M1.65 1.715C.05 3.255.115 5.307.115 7.503c0 2.197-.064 4.25 1.537 5.788 1.11 1.068 2.454 1.642 4.225 1.642 1.664 0 3.115-.349 4.417-1.642.988-.968 1.41-2.12 1.51-3.918H8.117v.224c0 .554-.15 1.15-.576 1.56-.341.349-.874.574-1.664.574-.683 0-1.195-.266-1.473-.615-.34-.431-.554-.944-.554-3.613 0-2.668.213-3.16.554-3.592.278-.349.79-.636 1.473-.636 1.28 0 1.878.534 2.176 1.642h3.756C11.445 2.516 9.78.073 5.876.073 4.04.073 2.76.648 1.65 1.715" transform="translate(27.564 16.943)"/>
            <path fill="#253186" d="M5.876 6.395v2.978H11.804c.016-.298.025-.61.025-.946V6.395H5.876z" transform="translate(27.564 16.943)"/>
        </g>
        <g>
            <path fill="#ED1844" d="M.158.044L.158 14.658 3.892 14.658 3.892 9.221 3.892 9.219 3.892 6.222 3.892 3.266 3.892 3.042 3.892.046 3.892.044zM8.759 8.667c-.144.07-.291.135-.446.193-.104.038-.21.074-.319.107-.199.06-.407.108-.622.147-.138.026-.28.048-.425.064-.247.028-.504.043-.772.043H5.152l2.688 5.437h4.331L8.904 8.597c-.047.024-.097.046-.145.07" transform="translate(14.099 17.095)"/>
            <path fill="#253186" d="M5.151.046H3.892v3.22h2.113c.973 0 1.56.65 1.616 1.366.003.037.005.075.005.112 0 .76-.597 1.478-1.621 1.478H3.892v2.997l2.283.002c.268 0 .525-.015.772-.043.146-.016.287-.038.425-.064.215-.04.423-.088.622-.147.109-.033.215-.069.319-.107.155-.058.302-.124.446-.193.048-.024.098-.046.145-.07.358-.188.678-.412.96-.666.956-.863 1.465-2.063 1.494-3.299l.002-.112c0-1.442-.672-2.496-1.496-3.187-.282-.253-.602-.477-.96-.665C8.156.276 7.244.044 6.175.044L5.151.046z" transform="translate(14.099 17.095)"/>
        </g>
        <g transform="translate(0 16.943)">
            <path fill="#253186" d="M5.783 3.275c.683 0 1.216.287 1.494.636.341.431.554.924.554 3.592 0 2.669-.213 3.14-.554 3.572-.278.348-.811.656-1.494.656v3.202c1.856 0 3.137-.574 4.246-1.642 1.6-1.539 1.537-3.591 1.537-5.788 0-2.196.064-4.249-1.537-5.788C8.92.648 7.64.073 5.783.073v3.202z"/>
            <use fill="#ED1844" xlink:href="#2m4xfti3ca"/>
        </g>
        <path fill="#253186" d="M59.186 12.883c0 1.24 1.048 2.267 2.357 2.267 1.31 0 2.357-1.027 2.357-2.267 0-1.26-1.048-2.267-2.357-2.267-1.31 0-2.357 1.008-2.357 2.267"/>
        <g>
            <path fill="#ED1844" d="M3.696 5.782L3.696 5.81 3.696 8.918 10.092 8.918 10.092 5.782z" transform="translate(45.94 .029)"/>
            <path fill="#253186" d="M0.045 5.782L0.045 5.81 0.023 14.734 0.023 14.738 3.696 14.738 3.696 14.734 3.696 5.81 3.696 5.782z" transform="translate(45.94 .029)"/>
            <path fill="#ED1844" d="M3.696 14.734L10.213 14.734 10.312 11.518 3.696 11.518zM.083.124L.062 3.34 10.312 3.34 10.312.124z" transform="translate(45.94 .029)"/>
        </g>
        <g>
            <path fill="#ED1844" d="M0.039 14.738L3.712 14.738 3.712 0.124 0.039 0.124z" transform="translate(31.525 .029)"/>
            <path fill="#253186" d="M8.62 0.124L4.244 7.431 8.62 14.738 12.864 14.738 8.241 7.431 12.864 0.124z" transform="translate(31.525 .029)"/>
        </g>
        <g>
            <path fill="#ED1844" d="M10.073 14.738L13.978 14.738 13.149 12.545 9.363 12.545zM4.702 12.545L.874 12.545.044 14.738 3.949 14.738z" transform="translate(16.158 .029)"/>
            <path fill="#253186" d="M2 9.565L0.874 12.545 13.149 12.545 12.022 9.565z" transform="translate(16.158 .029)"/>
            <path fill="#ED1844" d="M4.916 0.124L8.387 9.565 12.022 9.565 8.451 0.124z" transform="translate(16.158 .029)"/>
        </g>
        <g>
            <path fill="#253186" d="M15.041 0.124L11.306 6.632 11.306 14.738 15.041 14.738z" transform="translate(0 .029)"/>
            <path fill="#ED1844" d="M11.371.124L11.306.237 7.551 6.884 5.759 10.054 7.551 13.177 11.306 6.632 15.041.124zM.061.124L.061 14.738 3.795 14.738 3.795 6.632z" transform="translate(0 .029)"/>
            <path fill="#253186" d="M0.061 0.124L3.795 6.632 5.759 10.054 7.551 6.884 3.795 0.237 3.731 0.124z" transform="translate(0 .029)"/>
        </g>
    </g>
</svg>
