<svg width="20" height="20" viewBox="0 0 20 20" fill="none" xmlns="http://www.w3.org/2000/svg">
<path d="M11.7311 11.8757H7.76993C4.03182 11.8757 1 14.9072 1 18.6457C1 19.3934 1.60629 20 2.35399 20H17.1478C17.8955 20.0012 18.501 19.3957 18.501 18.6457C18.501 14.9072 15.4696 11.8757 11.7311 11.8757Z" fill="#121212"/>
<line x1="8" y1="4.75" x2="12" y2="4.75" stroke="#FFF8F9" stroke-width="0.5"/>
<path d="M6.78098 6.1875C5.45615 6.1875 4.37476 7.2689 4.37476 8.59372C4.37476 9.91855 5.45615 10.9999 6.78098 10.9999C7.98898 10.9999 8.99375 10.1005 9.16166 8.9375H10.5876C10.7556 10.1005 11.7603 10.9999 12.9683 10.9999C14.2931 10.9999 15.3745 9.91855 15.3745 8.59372C15.3745 7.2689 14.2931 6.1875 12.9683 6.1875C11.7603 6.1875 10.7555 7.08693 10.5876 8.24994H9.16166C8.99374 7.08693 7.98898 6.1875 6.78098 6.1875Z" fill="#121212"/>
<path d="M6.9489 0.000104657C6.26055 -0.00795184 5.61556 0.449777 5.429 1.15092L4.45544 4.81264H3.34366C3.15388 4.81264 3 4.96652 3 5.1563C3 5.34621 3.15388 5.50008 3.34366 5.50008H16.4057C16.5956 5.50008 16.7495 5.34621 16.7495 5.1563C16.7495 4.96652 16.5956 4.81264 16.4058 4.81264H15.2941L14.3205 1.15092C14.0909 0.287963 13.1676 -0.205197 12.3225 0.083457L9.98615 0.881034C9.91399 0.905663 9.83538 0.905663 9.76322 0.881034L7.42697 0.083457C7.26849 0.02925 7.10782 0.00197265 6.94886 0.000131182L6.9489 0.000104657Z" fill="#121212"/>
</svg>
