<svg width="248" height="237" viewBox="0 0 248 237" fill="none" xmlns="http://www.w3.org/2000/svg">
<path d="M229.648 123.81V234.358C229.648 237.116 225.405 237.116 225.405 234.358V123.81C225.405 121.052 229.648 121.052 229.648 123.81Z" fill="#030047"/>
<path d="M64.9486 135.302H233.089C236.415 135.302 239.168 132.544 239.168 129.211V93.2428C239.168 89.9103 236.415 87.1523 233.089 87.1523H64.9486C61.6225 87.1523 58.8698 89.9103 58.8698 93.2428V129.211C58.8698 132.544 61.6225 135.302 64.9486 135.302Z" fill="white"/>
<path d="M64.9451 136.107H233.086C236.985 136.107 240.082 133.004 240.082 129.097V93.2432C240.082 89.3361 236.985 86.2334 233.086 86.2334H64.9451C61.0455 86.2334 57.9488 89.3361 57.9488 93.2432V129.212C58.0634 133.004 61.1602 136.107 64.9451 136.107ZM233.086 87.9571C235.953 87.9571 238.362 90.3703 238.362 93.2432V129.212C238.362 132.085 235.953 134.498 233.086 134.498H64.9451C62.0778 134.498 59.6692 132.085 59.6692 129.212V93.2432C59.6692 90.3703 62.0778 87.9571 64.9451 87.9571H233.086Z" fill="#030047"/>
<path d="M64.9486 169.315H233.089C236.415 169.315 239.168 166.557 239.168 163.225V153.457C239.168 150.124 236.415 147.366 233.089 147.366H64.9486C61.6225 147.366 58.8698 150.124 58.8698 153.457V163.225C58.8698 166.557 61.6225 169.315 64.9486 169.315Z" fill="white"/>
<path d="M64.9451 170.121H233.086C236.985 170.121 240.082 167.018 240.082 163.111V153.343C240.082 149.436 236.985 146.333 233.086 146.333H64.9451C61.0455 146.333 57.9488 149.436 57.9488 153.343V163.111C58.0634 167.018 61.1602 170.121 64.9451 170.121ZM233.086 148.172C235.953 148.172 238.362 150.585 238.362 153.458V163.226C238.362 166.098 235.953 168.512 233.086 168.512H64.9451C62.0778 168.512 59.6692 166.098 59.6692 163.226V153.458C59.6692 150.585 62.0778 148.172 64.9451 148.172H233.086Z" fill="#030047"/>
<path d="M58.8649 103.355H239.278C239.737 103.355 240.195 103.01 240.195 102.435C240.195 101.861 239.851 101.516 239.278 101.516H58.8649C58.4062 101.516 57.9473 101.861 57.9473 102.435C57.9473 103.01 58.4062 103.355 58.8649 103.355Z" fill="#030047"/>
<path d="M58.8649 119.559H239.278C239.737 119.559 240.195 119.214 240.195 118.64C240.195 118.065 239.851 117.72 239.278 117.72H58.8649C58.4062 117.72 57.9473 118.065 57.9473 118.64C57.9473 119.214 58.4062 119.559 58.8649 119.559Z" fill="#030047"/>
<path d="M58.8649 155.642H239.278C239.737 155.642 240.195 155.297 240.195 154.723C240.195 154.148 239.851 153.803 239.278 153.803H58.8649C58.4062 153.803 57.9473 154.148 57.9473 154.723C57.9473 155.297 58.4062 155.642 58.8649 155.642Z" fill="#030047"/>
<path d="M58.8649 162.651H239.278C239.737 162.651 240.195 162.306 240.195 161.731C240.195 161.157 239.851 160.812 239.278 160.812H58.8649C58.4062 160.812 57.9473 161.157 57.9473 161.731C57.9473 162.306 58.4062 162.651 58.8649 162.651Z" fill="#030047"/>
<path d="M51.4118 235.509H102.68V216.548L72.0566 204.597C72.0566 204.597 70.9096 211.951 68.157 218.042C68.0423 218.386 67.8129 218.731 67.6982 218.961C67.2394 219.995 66.666 221.03 66.0925 221.949C65.8631 222.294 65.6337 222.523 65.519 222.868C64.3721 224.362 62.9958 225.511 61.5048 226.086C57.4905 227.465 55.0819 229.303 53.5909 230.912C53.2468 231.257 53.0174 231.602 52.788 231.947C51.4117 233.9 51.4118 235.509 51.4118 235.509Z" fill="#030047"/>
<path d="M52.9049 231.832H102.797V230.796H53.8225C53.3637 231.141 53.1343 231.486 52.9049 231.832Z" fill="white"/>
<path d="M67.818 218.959C69.9972 219.993 72.291 221.143 74.4702 222.177C75.0437 222.406 75.6172 221.602 75.0437 221.257C72.7498 220.223 70.5706 219.074 68.2767 218.04C68.2767 218.04 68.2768 218.04 68.1621 218.04C68.1621 218.385 68.0474 218.615 67.818 218.959Z" fill="white"/>
<path d="M65.6379 222.751C67.5877 224.13 69.4228 225.509 71.3726 226.888C71.9461 227.232 72.5195 226.313 71.9461 225.968C70.1109 224.59 68.1612 223.326 66.3261 221.947C65.982 222.177 65.7526 222.521 65.6379 222.751Z" fill="white"/>
<path d="M6.79955 180.464L53.2504 202.298L54.8562 198.965L55.3149 198.046L63.6875 180.119L38.6843 161.273C38.6843 161.273 34.5554 167.363 29.5088 171.845C29.2795 172.075 28.9354 172.305 28.706 172.535C27.7884 173.224 26.8709 173.914 25.9534 174.488C25.6093 174.718 25.3799 174.833 25.0358 174.948C23.3154 175.867 21.7097 176.327 20.104 176.212C15.8603 175.752 12.993 176.327 10.9285 177.246C10.4697 177.476 10.1257 177.591 9.66689 177.821C7.48771 179.085 6.79955 180.464 6.79955 180.464Z" fill="#030047"/>
<path d="M71.3721 201.838C72.4043 195.403 73.8953 186.324 75.3863 176.671C72.1749 182.072 69.8811 185.635 69.8811 185.635L32.7204 167.248C32.7204 167.248 43.3869 146.334 58.8705 118.754C74.3541 91.1743 108.074 101.861 140.532 113.008L140.303 114.157C152.46 114.272 164.618 114.732 176.661 115.881C184.575 116.686 192.259 118.179 199.943 119.903C200.632 143.92 199.141 161.043 182.166 161.847C160.604 162.882 117.135 161.847 117.135 161.847C117.135 161.847 118.052 191.495 112.776 209.422C112.662 209.767 112.547 210.112 112.432 210.456C111.285 214.019 109.909 217.007 108.189 219.19L69.6517 211.031C69.6517 211.031 70.1105 207.928 70.9133 202.757C71.1427 202.527 71.2574 202.183 71.3721 201.838Z" fill="white"/>
<path d="M108.762 220.225L109.106 219.765C110.826 217.582 112.202 214.594 113.464 210.687C113.579 210.342 113.693 209.997 113.808 209.652C118.51 193.564 118.281 167.823 118.166 162.652C124.475 162.767 162.782 163.571 182.395 162.652C200.631 161.733 201.549 142.657 200.975 119.789V119.099L200.287 118.984C193.291 117.49 185.033 115.767 176.889 114.962C166.567 113.928 155.671 113.468 141.449 113.238L141.564 112.319L140.876 112.089C109.794 101.402 74.4682 89.4509 58.1817 118.295C42.8128 145.53 32.1463 166.559 32.0316 166.789L31.6875 167.593L70.3393 186.784L70.798 186.095C70.798 186.095 72.0596 184.026 74.0094 180.924C72.7478 188.853 71.6009 196.322 70.6833 201.723C70.6833 201.953 70.5686 202.068 70.5686 202.298L69.0776 211.836L108.762 220.225ZM116.331 160.928V161.848C116.331 162.192 117.249 191.611 112.088 209.193C111.973 209.538 111.858 209.882 111.744 210.227C110.711 213.674 109.45 216.317 107.959 218.271L70.6833 210.457L71.9449 202.528C71.9449 202.298 72.0597 202.183 72.0597 201.953C73.0919 195.518 74.5829 186.44 76.0739 176.787L76.7621 172.42L74.4682 176.212C72.0596 180.234 70.2245 183.222 69.4217 184.486L33.752 166.789C35.8165 162.767 45.7948 143.461 59.5581 119.099C75.0417 91.7492 109.22 103.126 139.499 113.468L139.27 114.847H140.302C154.868 115.077 166.108 115.537 176.545 116.571C184.459 117.375 192.258 118.984 199.14 120.363C199.828 145.989 197.19 160.009 182.165 160.813C160.832 161.848 117.593 160.813 117.134 160.813L116.331 160.928Z" fill="#030047"/>
<path d="M93.9659 126.912H94.0805L123.098 121.052C123.557 120.937 123.901 120.477 123.786 120.017C123.672 119.558 123.213 119.213 122.754 119.328L93.7365 125.188C93.2777 125.303 92.9336 125.763 93.0483 126.222C93.2777 126.567 93.6218 126.912 93.9659 126.912Z" fill="#030047"/>
<path d="M9.66589 177.819L54.7404 198.964L55.1992 198.044L10.8128 177.245C10.4687 177.36 10.01 177.589 9.66589 177.819Z" fill="white"/>
<path d="M28.5974 172.534C30.2031 174.487 31.6941 176.326 33.2998 178.279C33.7586 178.854 34.5615 178.164 34.2174 177.705C32.6117 175.751 31.1206 173.913 29.5149 171.959C29.1708 172.074 28.9414 172.304 28.5974 172.534Z" fill="white"/>
<path d="M25.6139 174.603C26.6462 176.327 27.5637 178.165 28.596 179.889C28.9401 180.463 28.0225 181.153 27.6784 180.578C26.6462 178.74 25.6139 176.901 24.5817 175.178L25.6139 174.603Z" fill="white"/>
<path d="M78.4863 171.384C78.7157 171.384 79.0597 171.269 79.1744 171.039C89.2675 155.526 94.4287 143.345 98.0989 126.337C98.2136 125.878 97.8695 125.418 97.4107 125.303C96.952 125.188 96.4932 125.533 96.3785 125.992C92.7083 142.77 87.6618 154.721 77.6834 170.12C77.454 170.465 77.5688 171.039 77.9128 171.269C78.1422 171.269 78.3716 171.384 78.4863 171.384Z" fill="#030047"/>
<path d="M71.4877 177.82C71.8318 177.82 72.0611 177.591 72.2905 177.361C72.5199 176.901 72.2905 176.441 71.9464 176.212C60.9358 170.696 49.9253 164.835 39.2588 158.63C38.8 158.4 38.3412 158.515 38.1118 158.974C37.8824 159.434 37.9971 159.894 38.4559 160.123C49.1224 166.329 60.2477 172.19 71.2583 177.705C71.2583 177.705 71.373 177.82 71.4877 177.82Z" fill="#030047"/>
<path d="M110.249 209.882C110.708 209.882 111.052 209.537 111.052 209.192C111.167 208.733 110.823 208.273 110.364 208.158L102.794 206.779C92.7009 204.941 84.2135 203.332 72.9735 201.264C72.5147 201.149 72.0559 201.494 71.9412 201.953C71.8265 202.413 72.1706 202.873 72.6294 202.988C83.8695 205.056 92.2421 206.55 102.45 208.503L110.02 209.882C110.134 209.882 110.249 209.882 110.249 209.882Z" fill="#030047"/>
<path d="M6.33774 146.906C9.31979 146.906 12.5313 145.527 15.3986 144.263C17.119 143.573 18.7247 142.769 20.1011 142.424C24.6888 141.16 29.6207 142.309 33.4056 145.527C33.7497 145.871 34.3232 145.756 34.6672 145.412C35.0113 145.067 34.8967 144.492 34.5526 144.148C30.3089 140.586 24.8036 139.322 19.6423 140.701C18.0366 141.16 16.4309 141.85 14.7105 142.654C10.008 144.722 5.07616 146.906 1.52064 143.114C1.17656 142.769 0.603043 142.769 0.258961 143.114C-0.0851212 143.458 -0.0851212 144.033 0.258961 144.378C2.20876 146.216 4.27325 146.906 6.33774 146.906Z" fill="#030047"/>
<path d="M6.33774 155.756C9.31979 155.756 12.5313 154.377 15.3986 153.113C17.119 152.423 18.7247 151.619 20.1011 151.274C24.6888 150.01 29.6207 151.159 33.4056 154.377C33.7497 154.721 34.3232 154.607 34.6672 154.262C35.0113 153.917 34.8967 153.343 34.5526 152.998C30.3089 149.436 24.8036 148.172 19.6423 149.551C18.0366 150.01 16.4309 150.7 14.7105 151.504C10.008 153.572 5.07616 155.756 1.52064 151.964C1.17656 151.619 0.603043 151.619 0.258961 151.964C-0.0851212 152.308 -0.0851212 152.883 0.258961 153.228C2.20876 155.066 4.27325 155.756 6.33774 155.756Z" fill="#030047"/>
<path d="M39.0508 126.034L46.3516 131.213L41.1828 138.528L33.882 133.349L39.0508 126.034Z" fill="#030047"/>
<path d="M203.61 237C203.954 237 204.183 236.885 204.298 236.541L211.065 225.164C211.294 224.704 211.18 224.245 210.721 224.015C210.262 223.785 209.803 223.9 209.574 224.36L202.807 235.736C202.578 236.196 202.692 236.656 203.151 236.885C203.266 237 203.381 237 203.61 237Z" fill="#030047"/>
<path d="M198.104 236.885C198.448 236.885 198.792 236.655 198.907 236.195L200.283 230.91C200.398 230.45 200.169 229.99 199.71 229.875C199.251 229.761 198.792 229.99 198.678 230.45L197.301 235.736C197.187 236.195 197.416 236.655 197.875 236.77C197.989 236.885 197.989 236.885 198.104 236.885Z" fill="#030047"/>
<path d="M243.637 236.999C243.981 236.999 244.21 236.884 244.325 236.54L247.881 230.909C248.11 230.45 247.995 229.99 247.651 229.76C247.192 229.53 246.734 229.645 246.504 229.99L242.949 235.62C242.719 236.08 242.834 236.54 243.178 236.769C243.408 236.999 243.522 236.999 243.637 236.999Z" fill="#030047"/>
<path d="M42.5854 236.539C42.7001 236.539 42.8148 236.539 42.9295 236.424C43.3883 236.194 43.503 235.735 43.3883 235.275L40.6356 229.185C40.4062 228.725 39.9475 228.611 39.4887 228.726C39.0299 228.955 38.9152 229.415 39.0299 229.875L41.7826 235.965C42.012 236.309 42.2414 236.539 42.5854 236.539Z" fill="#030047"/>
<path d="M72.5198 87.15H142.368C150.626 71.0618 150.167 59.5703 150.167 59.5703C138.927 64.1669 113.695 78.8761 108.534 83.013C108.534 83.013 83.0716 73.1303 73.5521 85.4263C73.208 86.0008 72.7492 86.5754 72.5198 87.15Z" fill="#030047"/>
<path d="M72.5196 87.1511C72.8637 86.5765 73.2078 86.002 73.6665 85.4274C78.1396 79.5667 85.48 78.3026 93.5085 79.4518C100.275 80.6009 102.913 85.6572 98.555 93.7013C94.5408 100.941 90.9853 96.3443 93.3938 91.5179L91.9028 89.1047C91.6734 89.3345 91.4441 89.5643 91.3294 89.909C89.4943 93.1267 89.3795 95.9996 87.7738 97.7233C85.7093 99.7918 82.842 97.7233 82.7273 96.5742C82.7273 96.5742 79.7453 100.481 76.9927 96.5742C76.9927 96.5742 74.5841 98.9874 72.2902 95.8847C69.9963 92.7819 72.5196 87.1511 72.5196 87.1511Z" fill="white"/>
<path d="M85.7055 99.5615C86.7377 99.5615 87.6553 99.2168 88.3434 98.4124C89.3757 97.3781 89.8345 95.8842 90.408 94.3903C90.752 93.2412 91.2108 91.9771 91.899 90.713L92.4724 91.6323C91.3255 94.3903 91.6695 97.2632 93.5046 98.1825C94.1928 98.5273 96.6014 99.3317 99.354 94.2754C101.763 89.9086 102.221 86.1164 100.845 83.3585C99.6981 80.9452 97.1748 79.3364 93.734 78.7619L93.39 78.6469C84.0998 77.3828 77.2182 79.5662 73.0892 84.9672C72.7451 85.4269 72.4011 85.8866 72.1717 86.3462L72.057 86.691V86.8059L71.3688 88.07H71.5982C70.91 90.0235 69.9925 93.9306 71.8276 96.4588C72.7451 97.6079 73.7774 98.2974 74.9243 98.4124C75.8419 98.5273 76.6447 98.1825 77.1035 97.8378C78.021 98.7571 78.9386 99.2168 79.9708 99.2168C81.1177 99.2168 82.15 98.6422 82.7235 98.0676C83.1823 98.6422 83.8704 99.1018 84.5585 99.3317C84.7879 99.4466 85.2467 99.5615 85.7055 99.5615ZM92.1284 87.7252L91.3255 88.5297C90.9814 88.8744 90.752 89.1042 90.6373 89.449C89.7197 90.9429 89.261 92.4368 88.8022 93.8157C88.3434 95.1947 87.8846 96.3439 87.1965 97.1483C86.623 97.7229 85.9349 97.9527 85.132 97.7229C84.2145 97.4931 83.641 96.8036 83.641 96.5737L83.2969 94.6202L82.15 96.114C81.8059 96.4588 80.8884 97.493 79.8561 97.493C79.168 97.493 78.4798 97.0334 77.7917 96.114L77.2182 95.3096L76.53 95.9992C76.53 95.9992 75.8419 96.6886 74.9243 96.6886C74.3509 96.6886 73.6627 96.229 73.0892 95.4246C71.2541 92.8964 73.3186 88.0699 73.4333 87.6103C73.6627 87.1506 74.0068 86.5761 74.4655 86.0015C78.2504 81.0602 84.6732 79.1066 93.5046 80.3706H93.734C96.6014 80.8303 98.5512 82.0944 99.354 83.933C100.501 86.2314 99.9275 89.4489 97.863 93.3561C96.372 96.114 94.9957 96.9185 94.3075 96.5737C93.5046 96.229 93.1606 94.1605 94.3075 91.8622L94.5369 91.4025L92.1284 87.7252Z" fill="#030047"/>
<path d="M85.3633 84.966C85.7074 84.2765 86.7397 84.8511 86.3956 85.5406C84.5605 88.7582 83.6429 92.2057 83.5283 95.998C83.5283 96.6874 82.3813 96.6874 82.3813 95.998C82.496 91.9759 83.4135 88.2986 85.3633 84.966Z" fill="#030047"/>
<path d="M78.7127 83.8176C79.0568 83.1281 79.9743 83.7027 79.7449 84.3922C78.2539 87.7247 77.451 91.1722 77.3364 94.7346C77.3364 95.424 76.1894 95.424 76.1894 94.7346C76.3041 90.9423 77.107 87.2651 78.7127 83.8176Z" fill="#030047"/>
<path d="M124.475 79.909C124.704 79.909 124.934 79.7941 125.163 79.5643L130.898 72.2104C131.242 71.8657 131.127 71.2911 130.783 70.9464C130.439 70.6017 129.865 70.7166 129.521 71.0613L123.787 78.4152C123.443 78.7599 123.557 79.3345 123.901 79.6792C124.131 79.7941 124.245 79.909 124.475 79.909Z" fill="white"/>
<path d="M128.717 85.0808C128.832 85.0808 129.061 85.0808 129.176 84.9659L134.452 81.2889C134.796 81.0591 134.911 80.4846 134.681 80.1399C134.452 79.7951 133.879 79.6803 133.535 79.9101L128.259 83.587C127.915 83.8168 127.8 84.3913 128.029 84.7361C128.144 84.9659 128.488 85.0808 128.717 85.0808Z" fill="white"/>
<path d="M136.397 115.075C134.218 102.204 129.401 60.0301 158.877 56.9274C179.866 54.744 198.331 64.3969 199.364 98.7566C199.708 108.295 200.167 117.258 200.281 125.302C178.489 124.153 157.156 120.705 136.397 115.075Z" fill="#030047"/>
<path d="M137.322 85.5407C137.666 85.5407 138.01 85.3109 138.125 84.9661L141.795 74.6238C141.91 74.1641 141.68 73.7044 141.222 73.4746C140.763 73.3597 140.304 73.5895 140.075 74.0492L136.404 84.3916C136.29 84.8512 136.519 85.3109 136.978 85.5407C137.093 85.5407 137.207 85.5407 137.322 85.5407Z" fill="white"/>
<path d="M122.874 103.583H124.709C125.971 103.583 126.774 102.319 126.315 101.17L124.594 96.6885L122.874 103.583Z" fill="#030047"/>
<path d="M121.724 104.387H124.706C125.509 104.387 126.312 103.927 126.885 103.238C127.344 102.548 127.458 101.629 127.229 100.825L124.591 93.8154L121.724 104.387ZM124.935 99.5607L125.623 101.514C125.738 101.744 125.738 102.089 125.509 102.318C125.394 102.548 125.05 102.663 124.821 102.663H124.018L124.935 99.5607Z" fill="white"/>
<path d="M104.052 83.0131L111.278 102.434C111.507 103.123 112.195 103.583 112.883 103.583H122.747L124.582 96.803L123.779 94.6196L121.715 88.9887L119.077 81.864C118.847 81.1745 118.159 80.7148 117.471 80.7148H105.658C104.511 80.5999 103.708 81.864 104.052 83.0131Z" fill="#030047"/>
<path d="M113.001 104.388H123.553L125.617 96.6885L119.883 81.5196C119.538 80.4854 118.506 79.7959 117.474 79.7959H105.661C104.858 79.7959 104.055 80.2556 103.481 80.9451C103.023 81.6345 102.908 82.5539 103.137 83.3583L110.363 102.779C110.936 103.698 111.969 104.388 113.001 104.388ZM122.291 102.664H113.001C112.657 102.664 112.313 102.434 112.198 102.09L104.858 82.6688C104.743 82.439 104.743 82.0942 104.972 81.8644C105.087 81.6345 105.431 81.5196 105.661 81.5196H117.474C117.818 81.5196 118.162 81.7495 118.277 82.0942L123.782 96.8034L122.291 102.664Z" fill="white"/>
<path d="M108.639 97.2632C102.904 92.6666 104.166 86.691 109.442 90.8279C113.112 93.7008 119.076 95.3096 124.811 96.4588L125.155 94.5052C124.467 94.0455 124.122 94.1605 123.893 94.6201L121.829 88.9893C122.058 88.8743 122.402 88.8743 122.631 88.7594C130.66 86.9208 133.527 89.4489 135.018 98.4123C137.197 101.86 153.369 128.06 133.413 120.936C121.829 116.799 119.764 115.765 115.291 113.466C111.277 111.513 109.442 104.158 109.442 104.158C105.657 99.4466 108.639 97.2632 108.639 97.2632Z" fill="white"/>
<path d="M139.148 122.89C140.983 122.89 142.245 122.315 143.162 121.281C147.062 116.454 138.689 102.435 135.936 97.953C135.019 92.7818 133.643 89.909 131.463 88.4151C129.399 87.0361 126.646 86.8063 122.517 87.8405C122.288 87.8405 121.944 87.9554 121.714 88.0703L120.797 88.3002L121.141 89.2195L123.435 95.1951C117.241 93.931 112.883 92.2073 110.245 90.1388C106.804 87.4957 105.199 88.8748 104.854 89.4493C103.593 91.0582 104.396 94.3907 107.722 97.3785C107.378 97.8381 107.034 98.4127 107.034 99.332C106.804 100.941 107.492 102.665 108.983 104.503C109.328 105.767 111.277 112.203 115.177 114.271C119.765 116.569 121.829 117.604 133.413 121.741C135.478 122.43 137.542 122.89 139.148 122.89ZM126.876 88.9896C128.367 88.9896 129.514 89.3344 130.431 89.909C132.266 91.173 133.413 93.7012 134.216 98.4127V98.5276L134.331 98.6426C139.721 107.146 144.194 117.144 141.786 120.132C140.754 121.511 137.886 121.396 133.757 119.902C122.173 115.765 120.109 114.731 115.636 112.432C111.966 110.594 110.245 103.699 110.245 103.699V103.469L110.13 103.354C108.869 101.86 108.295 100.481 108.525 99.332C108.639 98.2978 109.328 97.8381 109.328 97.8381L110.245 97.1487L109.328 96.4591C106.116 93.931 105.543 91.0581 106.116 90.3686C106.46 89.909 107.492 90.1388 109.098 91.4029C112.195 93.8161 117.356 95.7697 124.811 97.1487L125.729 97.2636L126.302 93.931L125.843 93.5863C125.385 93.2415 124.926 93.1266 124.582 93.1266L123.091 89.3344C124.467 89.1046 125.729 88.9896 126.876 88.9896Z" fill="#030047"/>
<path d="M190.309 68.1891C201.434 80.485 211.068 111.282 203.957 126.451C199.943 135.07 189.047 136.449 174.137 135.3C162.553 134.38 148.675 130.588 133.535 122.199C133.535 122.199 138.582 104.617 134.682 97.8372L172.99 100.25L173.219 66.8101L190.309 68.1891Z" fill="#030047"/>
<path d="M172.649 101.859C173.108 101.859 173.452 101.514 173.452 101.054C174.14 93.0104 174.255 84.8514 174.025 76.8074C174.025 76.3477 173.681 76.0029 173.108 76.0029C172.649 76.0029 172.305 76.4626 172.305 76.9222C172.534 84.9663 172.42 93.0104 171.732 101.054C171.846 101.399 172.19 101.859 172.649 101.859Z" fill="white"/>
<path d="M175.517 102.664C175.976 102.664 176.32 102.319 176.32 101.86C176.32 101.4 176.091 100.94 175.517 100.94C162.328 99.3317 150.055 98.4124 136.866 97.8379C136.407 97.8379 135.948 98.1826 135.948 98.6422C135.948 99.1019 136.292 99.5615 136.751 99.5615C150.055 100.136 162.328 101.055 175.517 102.664C175.403 102.664 175.517 102.664 175.517 102.664Z" fill="white"/>
<path d="M139.729 122.545C140.073 122.545 140.303 122.315 140.532 122.085C143.973 114.845 144.661 107.031 142.597 99.3319C142.482 98.8722 142.023 98.6424 141.564 98.7573C141.106 98.8722 140.876 99.3319 140.991 99.7916C142.941 107.031 142.367 114.501 139.041 121.396C138.812 121.855 139.041 122.315 139.5 122.545C139.385 122.43 139.615 122.545 139.729 122.545Z" fill="white"/>
<path d="M109.905 97.0338C111.511 98.7573 113.346 100.021 115.525 100.941C116.213 101.285 115.64 102.204 114.952 101.975C112.773 101.055 110.823 99.6766 109.102 97.8381C108.644 97.3785 109.447 96.4592 109.905 97.0338Z" fill="#030047"/>
<path d="M111.628 104.961L114.61 106.799C115.184 107.144 114.61 108.178 114.037 107.833L111.055 105.995C110.481 105.535 111.055 104.501 111.628 104.961Z" fill="#030047"/>
<path d="M125.737 96.4591C126.425 96.574 126.999 96.6889 127.687 96.574C128.375 96.4591 128.375 97.6082 127.687 97.7231C126.884 97.838 126.196 97.723 125.393 97.6081C124.705 97.3783 125.049 96.3442 125.737 96.4591Z" fill="#030047"/>
<path d="M150.622 27.7378C157.733 23.6009 167.253 26.5887 171.955 34.5179C171.955 34.5179 171.955 34.5178 171.955 34.6327C172.758 34.288 173.446 33.9433 174.134 33.7134C178.952 32.4494 182.278 35.7819 181.59 39.689C180.901 43.1365 178.034 46.5839 173.79 47.0436C172.873 50.8358 170.694 54.1684 167.482 56.4667C157.963 63.2467 150.852 57.6158 146.149 49.6866C141.562 41.7575 143.511 31.8748 150.622 27.7378Z" fill="white"/>
<path d="M159.223 60.2595C162.09 60.2595 164.957 59.2253 167.939 57.0419C171.036 54.8585 173.33 51.526 174.362 47.7338C178.835 47.0443 181.703 43.1372 182.391 39.8046C182.85 37.7361 182.161 35.6677 180.67 34.2887C178.95 32.6799 176.541 32.1053 173.903 32.7948C173.33 32.9097 172.756 33.1396 172.183 33.3694C169.774 29.5772 166.334 26.9341 162.319 25.67C158.076 24.2911 153.717 24.7507 150.047 26.9341C142.592 31.3009 140.413 41.7582 145.345 50.0321C148.671 55.7779 152.57 59.1104 156.814 60.0297C157.617 60.2595 158.42 60.2595 159.223 60.2595ZM176.083 34.2887C177.459 34.2887 178.606 34.7483 179.523 35.5527C180.556 36.587 181.014 37.966 180.67 39.5748C180.097 42.5626 177.574 45.8951 173.674 46.2398H173.101L172.986 46.8144C172.068 50.4917 170.004 53.5944 167.022 55.6629C163.581 58.0761 160.37 58.9954 157.273 58.306C153.488 57.5015 150.047 54.3988 146.95 49.1127C142.592 41.6432 144.427 32.3351 151.079 28.3131C154.291 26.3595 158.19 26.0147 161.975 27.2788C165.76 28.5429 169.086 31.186 171.265 34.8633L171.724 35.5527L172.527 35.208C173.215 34.8633 173.903 34.5185 174.592 34.4036C174.936 34.4036 175.509 34.2887 176.083 34.2887Z" fill="#030047"/>
<path d="M155.699 44.6175C155.192 44.2371 155.089 43.5169 155.469 43.009C155.848 42.501 156.567 42.3976 157.074 42.778C157.581 43.1584 157.684 43.8786 157.305 44.3865C156.925 44.8945 156.206 44.9979 155.699 44.6175Z" fill="#030047"/>
<path d="M151.652 52.1011C150.62 49.6881 150.047 47.2751 149.703 44.6323C149.588 43.9429 150.735 43.713 150.85 44.5174C151.079 46.9304 151.767 49.3434 152.685 51.6415C153.029 52.3309 151.996 52.7906 151.652 52.1011Z" fill="#030047"/>
<path d="M171.497 41.5282C171.956 38.8854 174.25 36.8171 176.888 36.7021C177.576 36.7021 177.805 37.8512 177.003 37.8512C174.823 37.9661 172.988 39.4599 172.53 41.643C172.53 42.4474 171.383 42.3325 171.497 41.5282Z" fill="#030047"/>
<path d="M146.95 36.7032C150.62 36.1286 162.893 29.5784 165.301 37.0479C165.875 38.8866 165.645 40.3805 167.71 40.2656C169.774 39.9209 169.315 37.6225 169.315 37.6225C171.15 36.0137 172.871 34.6348 174.477 34.29C173.674 26.2459 168.283 22.3388 164.957 23.3731C164.957 23.3731 153.946 10.9622 149.703 19.5809C149.703 19.5809 136.054 13.4903 133.99 26.5907C131.925 39.691 146.95 36.7032 146.95 36.7032Z" fill="#030047"/>
<path fill-rule="evenodd" clip-rule="evenodd" d="M108.321 9.68785C112.812 10.8915 115.478 15.5083 114.274 19.9999L107.024 47.0611C105.888 51.3004 101.712 53.913 97.4695 53.181L95.9797 58.03L91.1892 51.5344L68.6935 45.5061C64.202 44.3025 61.5364 39.6856 62.7398 35.1941L69.9901 8.13287C71.1935 3.6413 75.8102 0.975876 80.3017 2.17949L108.321 9.68785Z" fill="#253186"/>
<path fill-rule="evenodd" clip-rule="evenodd" d="M88.6623 22.0625C89.8589 21.3742 91.277 21.1696 92.5737 21.5532C95.3144 22.296 96.9401 25.1491 96.1997 27.9123C95.874 29.128 95.1211 30.1849 94.0805 30.8858C93.5865 31.2185 92.6884 32.019 92.2642 32.708C92.1677 32.946 91.9026 33.0552 91.6602 32.9629C91.421 32.8694 91.3038 32.595 91.3944 32.3556L91.4368 32.2664C91.9945 31.3537 93.0099 30.4756 93.5558 30.1077C94.4094 29.5313 95.0258 28.6668 95.293 27.6693C95.9098 25.3672 94.6081 23.0788 92.3301 22.4622L92.3159 22.4584C91.2355 22.1689 90.1048 22.3176 89.1301 22.8782C88.1395 23.4471 87.4301 24.3717 87.1325 25.4825C86.8654 26.4795 86.9665 27.5383 87.4172 28.463C87.7066 29.0551 88.147 30.3233 88.1737 31.3923L88.166 31.4918C88.1293 31.7476 87.8925 31.9527 87.6368 31.9176C87.6139 31.9143 87.5922 31.9104 87.571 31.9047C87.35 31.8455 87.203 31.6505 87.2353 31.4163C87.2134 30.5524 86.8356 29.4103 86.5739 28.8748C86.0249 27.7461 85.9001 26.4552 86.2258 25.2395C86.5879 23.8878 87.4524 22.7585 88.6623 22.0625ZM91.2164 33.7972L87.5952 32.8268C87.3458 32.76 87.0831 32.9356 87.016 33.184L86.845 33.8164C86.8047 33.9674 86.8122 34.2103 86.8621 34.3585L87.1511 35.2159C87.2395 35.4779 87.5298 35.7512 87.7967 35.8227L89.5441 36.2909C89.8116 36.3626 90.1997 36.2715 90.4074 36.0885L91.0881 35.4907C91.2262 35.3691 91.3242 35.2072 91.3721 35.0295L91.5472 34.3727C91.6147 34.122 91.467 33.8644 91.2164 33.7972ZM88.02 34.8773L87.7492 34.0621C87.7549 34.0636 87.7553 34.0394 87.7547 34.0251L87.7942 33.8784L90.5126 34.6069L90.464 34.7873L89.786 35.3795C89.7779 35.3774 89.7564 35.3769 89.7436 35.3766L88.0361 34.9155C88.0533 34.9194 88.0422 34.9057 88.0311 34.8918C88.0269 34.8867 88.0228 34.8816 88.02 34.8773ZM92.0699 23.3632C91.8193 23.296 91.5622 23.4445 91.495 23.6951C91.4278 23.9459 91.5776 24.2032 91.8201 24.2952C93.0703 24.6302 93.8212 25.8945 93.4864 27.1442C93.4193 27.3948 93.5678 27.652 93.8183 27.7191C94.0688 27.7862 94.3263 27.6366 94.3999 27.362C94.8619 25.6373 93.8196 23.8321 92.0699 23.3632Z" fill="white"/>
<rect width="1.37779" height="5.51114" rx="0.688893" transform="matrix(-0.965919 -0.258843 -0.258796 0.965932 91.6914 13.7925)" fill="white"/>
<rect width="1.37779" height="5.51114" rx="0.688893" transform="matrix(-0.965899 0.258837 0.258801 0.965952 83.6758 12.4814)" fill="white"/>
<rect width="1.37779" height="5.51114" rx="0.688893" transform="matrix(-0.707087 -0.707156 -0.707057 0.707126 99.4648 17.4258)" fill="white"/>
<rect width="1.37779" height="2.75557" rx="0.688893" transform="matrix(-0.258801 -0.965952 -0.965899 0.258837 100.219 25.9023)" fill="white"/>
<rect width="1.37779" height="2.75557" rx="0.688893" transform="matrix(0.707057 -0.707126 0.707087 0.707156 76.918 19.6196)" fill="white"/>
</svg>
