<svg width="489px" height="283px" viewBox="0 0 489 283">
    <g stroke="none" stroke-width="1" fill="none" fill-rule="evenodd">
        <g transform="translate(-465.000000, -416.000000)">
            <g transform="translate(419.000000, 152.000000)">
                <g transform="translate(46.000000, 264.000000)">
                    <path d="M187.743824,195.164752 C188.253122,193.58705 189.019894,191.736178 188.062779,190.129646 C186.405793,187.8347 185.143743,183.011622 188.573734,181.938599 C188.968891,186.771426 194.269313,185.858559 196.68879,183.25268 C196.582691,179.580634 199.136868,177.953675 202.595828,179.079738 C204.574454,176.216805 199.786574,171.381373 203.73202,169.381052 C204.902281,167.422245 204.323368,157.274067 199.357977,161.402362 C197.456211,161.640645 196.101524,164.22463 194.461313,164.022262 C193.976773,161.041454 191.998117,158.96135 188.867073,158.290348 C186.122643,155.00798 182.365314,157.115826 179.300492,156.649748 C175.96225,158.924088 174.229013,156.348426 173.655498,153.211893 C171.585882,150.370376 172.57029,146.256101 169.916012,143.784044 C164.748353,143.538056 170.788683,136.610944 166.560985,137.133096 C162.518501,137.755399 165.608979,132.877616 166.035889,131.322537 C167.210142,125.889351 172.75234,128.49016 176.015878,125.35273 C178.574895,123.537653 181.915502,123.162864 184.696266,121.623772 C187.832,125.439878 193.228203,120.20465 195.931189,123.086014 C197.737804,122.690089 201.998803,121.613114 200.91074,125.060888 C197.700342,129.681038 205.047289,128.811061 206.954284,126.554575 C209.464612,125.047556 213.501498,124.343134 213.554936,128.289 C215.92342,127.254166 217.63603,128.261357 218.676721,130.106881 C221.174894,129.23381 223.643739,127.982987 225.961328,129.927854 C226.686766,127.192834 228.741553,125.498715 231.61703,126.953593 C235.429414,127.500204 236.552733,123.846878 236.101493,120.866939 C239.727655,117.85814 245.058434,118.687133 249.112545,120.619275 C250.583808,121.773779 250.767645,129.928951 255.038972,126.654367 C257.98098,124.284855 261.548764,126.560363 264.729365,127.076626 C266.393596,129.710806 269.640069,132.056068 272.866155,130.354055 C276.991467,130.806203 278.039213,136.189343 278.332642,139.801414 C280.422027,140.544516 281.489262,132.790377 285.518564,136.190341 C288.124623,136.326677 290.427303,130.319797 292.814557,134.569699 C294.183374,138.231028 292.065948,141.742798 291.075851,145.18198 C290.546654,149.29388 293.800472,151.504652 297.34716,149.161076 C299.603627,146.62609 302.878511,144.086822 305.226917,142.488364 C304.005852,138.365647 309.166176,136.741572 309.429118,133.123463 C309.846069,130.869092 305.545083,128.427192 309.726199,128.545335 C313.586373,128.744061 316.525617,126.282931 320.200827,125.710943 C323.102599,126.715469 324.241046,130.634521 326.223254,132.279532 C326.173957,134.656717 327.994333,138.374738 329.813172,134.864265 C333.379409,135.114044 333.543267,131.878708 336.734925,133.005858 C338.874855,135.330393 340.995136,137.695404 341.019525,140.85448 C340.369859,142.683088 339.859153,147.713863 342.851277,144.474854 C344.876506,140.626525 354.08156,142.008245 349.297172,146.73148 C345.780981,148.429222 340.878209,146.134904 338.788984,150.769115 C336.692773,152.856354 337.907022,155.590935 336.718948,157.658156 C340.763409,157.989825 346.008556,156.0729 349.040038,159.995445 C351.852157,160.113169 354.936249,159.516942 355.935955,163.044619 C358.513752,165.553899 360.196674,169.20457 361.197848,172.585952 C359.193046,174.737288 355.426137,176.826773 358.282564,180.224362 C358.515109,182.717595 357.787156,186.26551 361.533488,183.939698 C363.024161,183.061239 364.838988,178.44992 364.597093,182.81138 C364.403456,185.797526 368.160935,188.263167 363.539736,190.035163 C361.678436,191.41383 362.056328,197.056599 357.754764,196.285017 C355.585904,197.782995 355.291688,200.412893 358.609912,199.251264 C362.434021,199.721824 365.650258,204.940676 359.784454,203.548937 C356.277703,203.731227 354.785293,206.865225 356.272104,210.071073 C354.419186,213.384058 360.395061,214.982696 357.422816,218.294254 C357.706175,220.081479 359.550202,220.915241 359.098004,222.54216 C362.093461,224.695003 359.935758,227.993458 358.504601,229.978111 C358.940652,232.984266 358.263354,235.696293 358.7356,238.77784 C358.806252,241.770892 353.435956,239.965016 352.021065,242.561494 C353.174989,245.106539 350.98704,249.159612 348.210597,246.803293 C349.086242,243.18721 345.420662,243.384918 343.559421,245.363624 C341.634523,247.699804 339.051517,246.523316 339.047086,243.724739 C337.089855,243.879676 334.200378,242.15099 334.502688,245.59542 C332.777553,247.55778 333.468483,251.435887 331.422178,252.678318 C329.385064,253.812444 327.284912,253.253589 325.646706,252.357436 C323.072951,253.931276 320.277936,253.315739 319.430173,250.224772 C318.142697,250.950768 315.835406,252.368823 315.609626,254.179439 C315.269625,254.09232 314.863861,254.193909 314.505966,254.526356 C313.454298,256.038404 311.480093,254.538231 311.850761,253.001614 C311.910636,251.573311 312.980556,250.225879 311.760848,248.976733 C311.148514,247.708446 311.289041,245.341719 313.222092,245.794276 C314.518201,245.770725 315.821205,247.597937 316.927419,246.098781 C318.577879,245.321711 320.202873,246.117043 321.790164,246.426229 C322.888335,245.722156 323.945163,244.715654 325.401537,245.705461 C327.984364,245.448836 326.512512,245.020698 324.897228,244.611541 C323.584005,242.902563 322.190879,245.556761 320.589636,245.187441 C318.848625,244.821943 316.789657,244.809459 315.629804,243.272522 C314.353394,242.217281 312.602075,242.37632 311.19847,241.825169 C309.692978,239.401121 306.220705,240.201543 304.656116,242.1316 C302.295487,242.600133 299.282995,241.012712 297.439737,243.166583 C296.639286,244.569569 293.613812,243.171572 296.016184,242.878733 C297.760299,242.71685 296.717772,240.338757 298.643678,240.374792 C300.090482,239.856073 301.177467,238.563906 301.470706,237.046309 C300.336849,237.694398 298.96904,238.884588 297.418412,238.731347 C296.875753,237.755251 293.408619,238.655605 294.634135,239.182826 C296.326488,239.092814 296.431519,242.09792 294.603499,241.746652 C292.972179,242.118268 291.673156,241.209971 290.282685,240.573737 C291.221408,242.261948 290.551255,244.108559 289.328883,245.412292 C288.410996,246.528805 286.916111,244.860981 285.812881,244.627558 C284.341248,243.52763 282.582763,244.342871 281.108915,244.852768 C279.265258,244.947571 277.086559,244.753276 275.994515,246.540291 C274.999239,247.943975 273.330258,246.499576 272.016656,246.37742 C270.736983,245.81143 268.824928,245.476758 268.974028,243.626644 C268.902577,241.033868 266.779073,239.023159 264.622358,237.862857 C262.319058,238.058789 263.635914,236.754697 262.293651,236.568096 C260.496018,236.634857 260.357896,234.320231 261.610954,233.579255 C262.833147,233.591131 264.037197,234.167669 265.392523,233.597917 C266.221275,234.442486 268.385095,234.653177 268.088952,236.307379 C268.44535,238.561481 269.068271,235.007688 270.705509,236.178588 C272.447019,237.258766 273.064073,236.852533 272.740278,234.710677 C274.338097,233.416066 273.77055,236.598512 274.805314,236.802647 C275.108312,235.181276 277.268609,234.847103 277.303068,236.774905 C278.565257,236.68619 279.646503,237.770629 280.951853,237.176588 C282.933562,238.369202 282.019557,235.495372 283.685405,235.384752 C283.123746,233.938078 283.639201,232.882847 284.825868,232.0657 C284.945459,229.747632 285.815056,231.422511 286.558307,229.741464 C287.505373,228.797113 288.820851,228.228987 288.358136,226.475811 C289.370216,225.198543 288.491737,223.932831 287.730733,222.85872 C287.899851,221.628524 285.703858,219.769798 285.627537,221.675147 C286.766084,222.332327 287.438393,223.689179 287.0509,225.024855 C286.617284,224.584992 283.675775,225.019866 285.714925,226.168831 C287.40147,227.109849 284.605378,228.728496 284.626633,228.297444 C285.451384,226.89868 282.851823,226.645228 281.946669,226.368056 C280.703939,225.203563 279.295744,224.266246 277.801289,223.466034 C278.003119,221.691203 280.079092,223.756579 281.105772,223.857548 C283.238726,224.854929 281.843205,223.489326 280.903214,222.588962 C280.292686,220.906908 280.254017,219.816611 278.819717,221.216712 C277.805361,221.507416 275.874126,218.902456 276.266069,220.841774 C278.1465,221.774659 276.903021,223.489835 275.189204,223.157148 C273.731172,221.995639 272.286164,224.152803 270.728541,223.273715 C269.005342,222.701767 268.155743,222.591746 267.890855,224.38457 C267.374691,225.192945 268.245466,227.754107 266.125385,226.679586 C263.935599,225.195629 264.654571,227.842153 264.229696,228.888832 C262.856718,230.091704 261.918054,228.249893 260.879519,227.750275 C259.621192,229.930381 260.966937,227.218882 260.379671,226.218677 C258.978491,226.115971 258.390786,226.671892 257.802432,227.501074 C257.678431,225.805768 256.459541,223.846541 257.451464,222.273669 C259.802693,221.060967 256.143949,222.120888 256.107395,220.731224 C255.055119,219.856817 254.855225,218.506561 254.306708,217.342108 C252.659442,216.166788 253.269331,219.274331 254.083583,219.823975 C254.284565,221.088599 255.803289,221.669339 255.538072,223.171777 C254.994196,224.642163 254.15223,225.862539 254.987689,227.454521 C254.298506,229.138132 256.760125,229.601067 256.992281,231.112357 C257.363387,232.062257 259.283296,233.773181 257.785488,234.375626 C256.366415,234.436598 256.108862,231.420934 255.076883,233.510259 C253.05868,234.144956 254.810149,231.561671 253.78307,230.74626 C252.791946,230.473988 251.51341,227.761801 251.056094,229.069705 C251.454264,230.090816 252.642796,232.346854 250.480394,231.9168 C248.588257,230.466882 249.736035,227.430062 248.471521,225.634804 C246.635697,226.061275 247.960007,228.542663 247.82396,229.861005 C248.867725,231.890266 246.962117,231.371188 245.893424,230.478977 C244.333436,229.555352 243.872456,232.149795 242.170863,231.425245 C240.71349,231.652721 238.833,232.65102 237.7439,231.071143 C238.512708,230.318582 240.289145,229.322647 237.733522,228.853525 C236.845772,228.537773 235.494508,225.882897 235.013491,227.801408 C234.268334,229.445362 235.842074,230.341274 235.708852,231.508072 C234.729034,234.23911 234.665356,237.271719 234.800555,240.155519 C235.355568,241.551828 236.077972,243.016256 235.60386,244.605414 C236.287236,245.66735 237.075782,246.94362 238.397478,247.371429 C238.484496,248.683304 240.563922,249.844305 238.343889,249.561724 C236.778223,250.436939 236.137309,247.691222 234.732606,248.751572 C233.384147,249.484544 233.835766,246.687444 233.493429,245.85926 C233.164106,243.867781 232.422192,241.877041 232.162962,239.941924 C233.012192,238.979659 234.107968,237.900259 234.070177,236.38851 C234.723655,233.096252 234.631058,229.548756 232.877164,226.588596 C232.539068,225.212255 231.663064,224.306702 230.418338,223.677144 C228.845317,222.541451 226.701366,221.544729 226.048776,219.664079 C226.536519,218.325938 226.938711,216.933969 226.326627,215.52297 C226.17654,213.953241 228.078435,213.300452 228.875414,212.242747 C230.162811,211.599946 231.88089,212.57682 232.740279,211.069073 C233.863717,210.315593 234.918239,208.710868 236.459697,209.560597 C237.715719,209.327892 235.473642,207.205915 236.649212,206.01852 C237.013881,204.429282 236.307254,203.031356 235.102485,204.738418 C233.252781,205.389261 234.084298,202.731411 234.042455,201.710169 C235.244829,199.756142 232.86944,199.58444 232.978432,201.681529 C232.03443,203.04855 230.717166,201.063218 229.614264,200.825024 C228.30654,199.271432 227.143255,202.230455 229.165071,202.164722 C231.459538,202.23787 230.511394,204.825267 230.88313,206.246235 C231.915628,208.234002 230.183987,208.342955 228.702255,207.879291 C227.202621,208.23496 228.979877,211.260155 226.750024,210.185724 C224.65547,209.095237 227.432811,211.333272 227.007797,212.356989 C226.245546,213.236565 224.355206,213.531061 225.150189,215.188786 C225.639569,216.455336 224.637877,218.710247 223.241168,217.180136 C222.172166,215.018282 220.451163,213.273388 218.170347,212.428869 C216.337158,211.480356 214.409865,210.550144 212.618538,209.519133 C211.28843,209.83754 209.608492,209.131481 208.460874,209.992128 C206.837338,209.312384 210.088182,208.669644 211.093986,209.112481 C212.494187,208.27313 213.566672,209.397597 214.740216,209.982987 C216.024759,211.589498 217.345995,210.172941 215.766816,208.889166 C214.436878,208.021605 213.061445,207.086025 211.406015,207.062584 C210.15162,205.867415 208.514981,208.418507 207.895063,206.871163 C208.523164,206.091787 210.636399,205.449376 209.548776,203.770665 C209.348264,202.051428 211.856856,203.132525 212.457663,201.780643 C213.875428,200.537534 214.96851,198.962756 214.977312,197.002521 C215.140113,195.787644 217.712491,194.977053 216.934023,194.258411 C215.08842,194.429714 214.864697,197.329211 212.788913,196.980158 C211.935941,197.332983 212.405871,199.882489 210.533035,199.430142 C209.284527,199.865973 208.303632,200.863045 207.885822,202.12275 C206.490351,203.046085 204.408939,200.556274 203.397857,202.303513 C204.401804,202.31908 206.192452,202.627837 206.389072,204.213871 C207.381065,206.31093 204.516705,208.178089 202.633959,207.69284 C200.947364,207.549818 199.172214,207.048892 197.661283,208.121956 C196.019725,208.852842 195.443266,207.144812 194.430557,206.382461 C193.254548,205.743643 193.160315,204.248459 192.065107,203.465311 C191.249188,201.227136 190.961807,198.437371 188.768608,197.074591 C188.44617,196.315952 188.123692,195.457192 187.744073,195.164792 L187.743824,195.164752 Z M265.093685,272.293065 C266.808032,272.115815 268.014398,273.025379 265.751943,273.502824 C264.311136,274.367372 262.579765,272.130993 265.093685,272.293065 Z M252.352631,262.717144 C253.511556,263.652005 254.90103,263.921893 256.346577,263.558211 C255.195725,264.557528 255.047025,265.254865 253.108875,264.346727 C251.729271,264.528359 250.368237,261.863823 252.167527,262.464171 L252.330008,262.686238 L252.352661,262.717174 L252.352631,262.717144 Z M221.333105,264.614859 C222.627856,265.30499 223.886552,265.457931 224.767596,266.450602 C226.33458,266.309107 227.00146,268.239793 228.664783,267.952592 C230.040566,268.035918 231.642746,268.704345 231.342542,270.375222 C232.36555,271.249091 231.884044,273.560623 233.398776,273.699244 C235.554383,273.450403 235.525524,276.6759 237.69096,276.554583 C239.086991,276.822724 241.027446,276.036074 242.084765,277.021101 C242.096009,278.291573 241.374014,279.633845 240.301409,280.442 C240.247023,281.898066 239.040557,283.270505 237.718203,281.956873 C236.556425,281.089042 234.844453,279.922793 233.643137,281.43059 C232.419517,281.020714 231.228051,280.367176 230.003234,279.797154 C228.817505,279.534352 227.578857,280.215532 226.208982,279.758136 C224.735403,280.463446 223.022853,279.782984 222.330077,278.365109 C220.950672,277.782643 220.35153,276.56089 221.129569,275.249004 C221.088155,273.382983 219.121384,272.147708 219.458701,270.220265 C218.353804,269.316419 218.003415,267.756221 218.533809,266.443787 C220.343717,267.2915 218.481618,263.412644 220.018894,263.576273 C220.687181,263.660298 220.591331,264.493721 221.333105,264.614869 L221.333105,264.614859 Z M270.490866,227.616344 C272.495378,228.72174 271.605563,229.045375 269.696482,228.964224 C268.070501,229.803585 269.894868,231.503811 268.602841,232.45923 C267.954573,234.454691 268.012552,230.956552 268.338073,230.19941 C268.311129,228.670626 269.030919,227.181191 270.191021,226.20296 C270.99266,226.368325 269.377157,227.337764 270.490866,227.616344 L270.490866,227.616344 Z M276.007917,227.007004 C276.849503,227.746313 277.999037,230.167975 276.330704,228.450555 C275.162529,227.783366 274.108346,231.054647 273.981591,229.488252 C273.354488,227.259887 275.020844,228.019633 275.287249,226.351909 C275.463941,225.756151 275.696835,227.027162 276.007917,227.007004 Z M234.378684,207.242369 C236.213739,208.14384 233.879504,209.460176 232.734451,209.498985 C232.294149,209.281369 234.220114,207.50578 233.888376,206.521332 C234.221861,206.393488 234.185906,207.096363 234.378684,207.242369 L234.378684,207.242369 Z M191.493339,216.617019 C193.868938,215.918336 195.297779,218.880412 197.728603,218.379077 C199.334236,218.194362 200.807615,220.400174 199.680834,221.799597 C198.351804,221.412993 196.915597,220.78624 195.331689,221.369783 C193.016824,221.462789 191.254617,219.441572 189.700815,217.936559 C188.809313,216.369296 190.340811,216.246073 191.493339,216.617019 Z" id="path_dep_56" fill-opacity="0.05" fill="#253186" fill-rule="nonzero"></path>
                    <path d="M336.734925,133.005858 C338.874855,135.330393 340.995136,137.695404 341.019525,140.85448 C340.369859,142.683088 339.859153,147.713863 342.851277,144.474854 C344.876506,140.626525 354.08156,142.008245 349.297172,146.73148 C345.780981,148.429222 340.878209,146.134904 338.788984,150.769115 C336.692773,152.856354 337.907022,155.590935 336.718948,157.658156 C340.763409,157.989825 346.008556,156.0729 349.040038,159.995445 C351.852157,160.113169 354.936249,159.516942 355.935955,163.044619 C358.513752,165.553899 360.196674,169.20457 361.197848,172.585952 C359.193046,174.737288 355.426137,176.826773 358.282564,180.224362 C358.515109,182.717595 357.787156,186.26551 361.533488,183.939698 C363.024161,183.061239 364.838988,178.44992 364.597093,182.81138 C364.403456,185.797526 368.160935,188.263167 363.539736,190.035163 C361.678436,191.41383 362.056328,197.056599 357.754764,196.285017 C355.585904,197.782995 355.291688,200.412893 358.609912,199.251264 C362.434021,199.721824 365.650258,204.940676 359.784454,203.548937 C356.277703,203.731227 354.785293,206.865225 356.272104,210.071073 C354.419186,213.384058 360.395061,214.982696 357.422816,218.294254 C357.706175,220.081479 359.550202,220.915241 359.098004,222.54216 C359.615576,219.923238 362.198282,218.907984 364.272779,218.762747 C365.054809,216.62148 366.89183,215.262064 369.10337,216.141391 C371.134916,215.891162 372.983154,210.286534 374.377807,212.517384 C373.74312,215.172071 376.148985,216.473678 377.507753,213.883098 C379.142716,211.713639 382.076361,211.865952 384.496028,211.307945 C386.639121,210.805323 387.499428,208.026594 390.121822,209.22832 C392.731034,208.289586 395.527715,211.205888 398.563577,210.434346 C400.902093,207.423142 404.642527,212.614462 406.638317,208.82525 C408.698004,207.104436 411.758465,209.802692 413.242193,206.712174 C414.99487,205.221421 414.27506,201.480358 415.902338,199.52197 C419.23133,198.829703 420.036701,195.83265 423.566594,195.673571 C426.421493,195.79892 428.265231,194.295943 430.220415,192.486374 C433.79271,194.073347 435.852836,189.546372 433.08258,187.229222 C435.566173,185.150624 439.857519,187.727713 443.091319,187.559693 C446.256632,188.778373 446.358639,193.775478 450.69552,193.458428 C454.23623,194.456877 457.762979,195.504753 461.312241,196.472836 C462.177458,194.615048 461.969152,192.523088 462.183875,190.543404 C463.348906,188.679748 465.368617,187.899325 464.773288,185.247123 C463.365183,182.264589 466.363034,182.122975 467.787715,180.338883 C467.192825,178.550171 466.360529,176.518147 468.692449,175.420295 C469.362492,173.40774 471.088046,170.995368 470.677562,168.7059 C471.265895,165.747506 471.336149,162.145393 474.977709,161.236318 C475.61526,158.784369 477.520858,158.012767 480.10612,159.040894 C482.935283,160.491131 488.926985,158.406137 488.134417,154.582956 C487.126727,152.103633 486.121312,149.548619 486.626879,146.786665 C489.184119,143.772957 484.165629,143.013729 484.402405,140.003324 C483.593451,136.783844 483.087586,133.476048 482.869969,130.223378 C480.864579,127.534362 480.472267,124.322237 480.767272,121.063889 C479.61651,118.684348 480.515866,115.64654 478.701996,113.182895 C477.272695,110.581327 478.630146,107.907889 479.288983,105.385637 C480.101889,102.238546 484.780647,100.778629 483.822983,97.1973731 C482.904108,94.3136237 481.928761,91.0375818 483.11921,88.2267803 C482.786154,85.4667929 480.028961,83.8008752 480.138163,80.9751448 C478.652659,78.1461512 482.572479,76.7626348 481.768974,74.0100919 C480.339004,71.5864035 479.955134,68.6831547 481.15187,66.0136986 C480.018003,65.7931882 478.858001,65.6538686 477.770019,65.2469168 C475.854182,63.4878531 473.881264,63.7477714 471.446928,64.1346351 C470.006899,61.5355622 465.871499,63.5028419 465.139824,60.4513221 C462.607811,62.3358343 459.846766,58.6160174 457.931428,61.0344966 C457.401133,63.9090852 456.579985,66.6339159 453.472242,67.713855 C451.517137,66.829578 451.017568,69.8000667 449.442541,69.7188161 C448.107055,71.6180775 447.804855,74.1251022 445.328087,75.0470506 C442.973135,74.9802897 439.569809,75.2181639 437.987157,73.3960816 C438.175166,68.7401659 432.481353,71.6644109 431.203886,68.5420787 C430.941103,65.5424109 428.650049,63.5604319 427.710447,60.8344336 C425.056598,58.9113219 428.455205,56.4896493 426.97489,54.1540773 C424.495677,53.712338 425.792644,51.2542813 425.340397,49.5396351 C422.626503,48.371909 421.521726,45.6268005 420.950736,42.8322651 C420.784882,42.8460364 420.625973,42.8653961 420.468781,42.8934376 C419.840041,43.0056537 419.238724,43.2575786 418.681665,43.7299142 C417.054517,46.2328174 414.05914,47.3662051 411.198941,47.5618673 C408.226746,47.6083704 405.286664,48.1642518 402.327801,48.1044364 C400.498943,47.9926095 399.096257,47.4933801 398.647782,49.2355788 C396.621405,47.6626772 394.083535,48.4768003 391.766953,48.0942577 C388.868245,47.5802191 388.378805,44.3803784 387.129419,42.2542199 C385.672805,40.7030031 387.732203,38.9428916 387.568055,37.1659752 C388.786595,36.4360765 390.999642,35.5089988 390.010135,33.6735943 C388.88029,32.9588241 389.861674,29.9441775 388.473019,31.0181989 C387.118292,32.3057952 385.114249,32.2782626 383.682523,33.4044952 C382.347905,32.7590305 380.857511,33.1822285 379.591021,32.4050084 C378.309422,33.3399398 376.82316,33.0194677 378.456366,34.2865168 C377.742544,35.7052199 375.880485,33.6255445 374.647465,34.332022 C372.595043,34.2257435 372.11679,35.2252403 372.934066,36.9675289 C372.408372,39.5543672 369.462841,39.292493 367.609284,40.3238034 C368.066132,41.8884124 368.355918,42.6436283 368.483782,43.8945311 C369.513186,44.8777717 368.727414,46.6535006 370.284479,47.2836472 C370.105302,48.88957 370.644368,49.8262776 371.668434,51.010679 C372.516476,51.0244503 374.427693,50.4571328 375.190154,51.8887988 C375.138362,53.0030164 377.987184,54.780362 375.73882,54.7296177 C374.84183,54.2245005 372.772044,51.9594116 373.28237,54.4112114 C374.085317,55.5205193 373.745255,57.2963978 374.574856,58.1750864 C376.456365,57.5142837 376.519932,59.5697695 375.377014,60.5629894 C375.485638,61.2821305 375.969479,61.1501056 376.72727,61.1603044 C378.527188,59.9367646 379.880318,58.8053528 380.341796,61.0674978 C382.274348,64.5780309 379.974083,67.5475516 381.287515,71.2202068 C378.335079,72.034749 380.875544,75.9343113 378.570368,77.0461239 C374.417873,79.1139839 380.273678,84.4851789 378.47826,88.0897959 C375.424376,90.6218484 380.884625,94.107613 378.013639,95.7764647 C372.986038,94.6607601 377.23592,99.4184737 375.891382,101.823351 C376.411458,105.438167 373.604,103.721834 371.752549,104.276708 C370.679874,107.332329 367.829396,107.741097 366.002294,105.1299 C362.256012,102.177114 361.722494,108.135675 358.292683,108.618389 C359.93497,113.924629 354.50857,109.528971 352.105598,110.804911 C346.788491,111.904889 350.29595,117.718921 347.473433,119.826518 C345.366834,118.032168 343.601992,119.564943 344.621867,122.106645 C345.864237,125.668322 341.687832,127.678971 341.807423,130.540227 C341.836063,130.902522 336.014916,129.225957 336.734935,133.005908 L336.734925,133.005858 Z M370.837885,56.2729909 C369.568281,56.0641462 368.503341,56.7695559 367.700474,58.6647658 C365.549478,61.9725914 364.795369,58.1207696 365.173681,56.2336729 C362.070219,55.6419462 358.846618,55.2080306 357.088533,52.0134989 C356.271965,51.0501468 355.914789,49.7275335 356.24517,48.5092727 C355.453301,47.0402944 353.728246,45.8855313 353.715094,44.0479912 C355.041948,43.7075608 356.256347,43.0470674 357.642229,42.8704954 C358.661265,41.3127322 359.356206,42.7290902 360.830483,42.8941461 C362.332403,42.7954518 364.107822,41.7399518 365.528741,42.5755402 C364.98231,44.5804215 365.981657,45.077685 367.690286,45.2239901 C368.615088,46.5267647 366.933972,48.368047 368.482165,49.4871345 C368.82509,50.7500423 368.670203,52.9034939 370.541393,53.0166381 C372.122947,53.7605775 369.261571,55.2376089 370.837885,56.272931 L370.837885,56.2729909 Z" id="path_dep_35" fill-opacity="0.05" fill="#253186" fill-rule="nonzero"></path>
                    <path d="M178.319537,33.192028 C177.542037,34.2179497 176.393132,35.1498574 175.771248,36.2809299 C174.723452,39.1296125 174.952974,43.4425531 177.076737,45.8646548 C176.009512,51.5818685 184.935797,48.1785819 183.376147,53.6600869 C180.526257,55.99995 185.072761,54.9604366 186.281751,56.9886493 C190.110501,58.5094495 187.209308,60.7167888 185.190825,62.570585 C181.136595,65.2505292 179.663027,70.9839592 184.897516,73.4454487 C188.317638,74.2898687 186.633598,76.2954186 184.306568,76.9354047 C180.677113,78.3437094 181.871633,82.6765086 180.40993,85.4479322 C183.490309,86.7312275 188.506225,87.1415024 185.950053,91.6603638 C187.003816,93.671532 185.138524,98.3390436 188.070942,98.5061353 C192.939185,96.8368446 186.28261,101.363649 186.966614,102.704335 C190.639648,102.926332 190.462627,106.929499 189.379165,109.156577 C185.113696,110.938962 184.983677,116.282554 189.007261,118.29035 C192.6971,122.77617 184.795729,118.573479 184.696266,121.623772 C181.915502,123.162864 178.574895,123.537653 176.015878,125.35273 C172.75234,128.49016 167.210142,125.889351 166.035889,131.322537 C165.608979,132.877616 162.518501,137.755399 166.560985,137.133096 C170.788683,136.610944 164.748353,143.538056 169.916012,143.784044 C172.57029,146.256101 171.585882,150.370376 173.655498,153.211893 C174.229013,156.348426 175.96225,158.924088 179.300492,156.649748 C182.365314,157.115826 186.122643,155.00798 188.867073,158.290348 C191.998117,158.96135 193.976773,161.041454 194.461313,164.022262 C196.101524,164.22463 197.456211,161.640645 199.357977,161.402362 C204.323368,157.274067 204.902281,167.422245 203.73202,169.381052 C199.786574,171.381373 204.574454,176.216805 202.595828,179.079738 C199.136868,177.953675 196.582681,179.580634 196.68879,183.25268 C194.269313,185.858559 188.968891,186.771426 188.573734,181.938599 C185.143743,183.011622 186.405793,187.8347 188.062779,190.129646 C189.019894,191.736178 188.199804,193.388584 187.743824,195.164752 C187.417534,195.070748 186.927495,195.14629 186.163328,195.859185 C184.370186,196.300385 183.080793,194.501464 181.218055,194.693225 C178.790076,194.374878 175.93818,194.808255 173.884301,193.298422 C173.435497,191.684027 171.415167,192.406441 170.206966,192.429812 C168.592251,192.981443 167.6189,190.992199 166.387407,190.2577 C164.56251,189.869549 166.378425,186.768083 164.41385,188.128897 C162.859829,187.928305 161.956791,188.967359 160.927547,189.873041 C158.569402,191.433349 155.199635,191.053231 152.962308,189.391675 C151.364329,188.483697 150.458796,190.314361 149.256891,190.618088 C149.173864,189.251577 149.476124,187.680102 147.907863,186.951411 C146.650105,185.503748 145.066256,184.252676 144.141803,182.588993 C143.904048,181.3238 145.326014,179.8128 143.079207,180.029548 C140.555278,179.316694 143.505868,178.635803 142.533674,177.750917 C142.208772,176.038905 139.9643,176.634843 139.522171,174.998235 C139.341707,173.535264 137.546828,173.346767 137.485796,171.842242 C136.352009,172.183561 135.086257,170.660605 134.04347,171.240457 C131.800665,172.012677 133.730573,172.080835 133.483667,173.836646 C132.775872,175.291843 134.236907,177.000222 133.349357,178.281402 C131.583548,178.958969 129.815922,179.564308 127.987832,180.015278 C128.876829,179.264562 131.374673,179.613006 130.85797,177.902651 C129.741936,177.919416 128.433164,178.196728 127.414976,177.800803 C127.108615,179.442921 125.542808,180.145636 125.611525,177.942338 C125.181581,176.629624 123.758198,175.109293 122.314746,176.144416 C120.879628,177.143084 119.905867,175.655475 118.894695,174.88516 C118.502752,173.463334 118.897688,173.083136 116.995483,172.439378 C116.693373,170.920823 115.122018,169.862429 115.386686,168.10123 C115.947887,165.664369 114.202754,167.157307 114.302297,168.761174 C113.836308,170.663869 115.632963,171.631402 116.526012,172.936731 C116.132402,174.455536 118.185074,175.332847 117.688279,176.614845 C116.420851,176.830855 115.064807,176.970254 114.359507,178.380605 C112.680836,179.598207 113.025458,177.174389 111.663656,176.702143 C111.017074,175.729939 111.388041,173.25404 109.554842,173.894246 C109.040005,175.203277 107.917215,176.710007 108.629031,178.168716 C108.460293,179.851868 111.570989,179.181186 109.672586,180.416891 C108.848324,182.594312 112.859633,180.486446 112.554539,182.583864 C111.95436,184.546982 110.380131,186.001082 109.143629,187.603951 C107.601463,187.553755 106.313208,188.072853 104.950359,188.516529 C103.360233,188.404313 101.833615,188.459547 100.325787,189.018083 C98.8243469,189.378672 97.6777866,187.776182 96.2901488,188.421347 C95.0589749,187.794464 93.8314235,186.769809 92.3911055,187.503819 C91.0109921,187.259788 89.7538922,186.692091 88.312247,187.222166 C86.1200162,187.500506 87.3599518,185.231416 86.6881421,184.165917 C85.7728498,182.306552 88.158228,181.744683 89.456033,181.403434 C90.8645872,179.066316 89.7252519,176.121084 89.0169282,173.713203 C88.3621929,171.662118 87.9332968,169.572813 86.5640008,167.833288 C85.4308227,165.625989 84.8158844,163.136218 83.0712207,161.298359 C81.6008255,157.937664 78.510267,155.653105 75.7734513,153.340266 C74.2720507,152.003642 73.0711137,149.946549 70.7902078,150.020844 C68.6018589,150.305721 70.089628,147.311541 68.6731004,147.588384 C66.6761726,148.123479 66.1096035,151.207042 63.7263109,150.484129 C62.0635466,150.419164 61.9737138,148.747269 61.0667342,147.866145 C59.7826027,147.050086 57.5067791,147.879917 57.0464187,145.987501 C56.0359657,145.244549 54.4914439,146.938938 53.2044913,146.003767 C51.7397902,145.187997 49.2812504,146.105675 48.5927684,144.161297 C47.6605075,144.172474 44.2138064,143.644035 46.3593465,142.891953 C48.2641274,142.699724 47.700073,140.866894 47.4998045,139.572891 C47.4602469,137.57718 49.7967889,138.896131 50.9282307,138.9258 C52.5945845,139.814268 52.9524466,136.985035 54.6082405,137.794667 C56.259393,138.150645 58.0745508,138.083974 59.7651092,137.822908 C61.3125319,137.096921 63.0321078,136.10459 64.7206584,137.113647 C66.1413573,137.641726 67.4906749,137.119634 68.5016578,136.101317 C70.7863059,134.33864 73.8690207,136.827233 76.0159758,134.829388 C77.587201,133.024859 80.3886021,134.586224 82.2255534,133.168619 C84.449997,132.658442 86.8324812,132.935734 89.0004426,132.066905 C91.2631465,131.041054 92.2347414,134.191098 94.3903286,133.861784 C95.4315684,134.286409 97.3130269,135.836279 97.9502188,133.831547 C98.4163672,132.502048 99.3421277,131.218354 98.8893514,129.774972 C99.851506,128.172612 100.422546,125.675158 99.4690431,123.928269 C97.9485323,123.609114 97.1003003,122.511871 97.4383756,120.865652 C97.5889418,118.437104 96.1980009,115.549622 93.8147183,114.744899 C92.1433519,114.503193 89.5115274,116.241051 88.8516527,113.798721 C88.7250067,112.136476 87.3586945,111.471183 85.9474359,112.289218 C84.7362005,112.085802 84.040271,110.775542 82.7516468,110.610077 C82.1755975,108.790839 81.2949929,109.229285 79.7908879,109.197761 C78.0953518,108.124338 75.2805986,108.351086 74.2572515,110.161083 C74.7843828,111.911435 73.0019778,113.161749 72.6987199,114.817917 C71.8788687,116.905107 69.4904568,117.828702 68.8964948,120.080638 C67.6581758,121.521685 65.6720255,119.838513 67.2684681,118.493077 C68.4350865,116.461641 67.9207286,114.11591 66.8820036,112.174337 C66.4814484,110.979058 65.2537174,108.880871 67.2525812,108.527448 C69.1900829,108.050133 69.0466219,104.995939 66.9694713,104.920546 C65.4436216,104.706113 64.0017568,106.355934 62.4872135,105.194685 C61.7332849,104.3236 60.5324478,102.777123 59.5353061,104.437942 C59.6074158,103.289126 59.8014634,101.743897 59.4275527,100.632843 C60.2978667,99.3678093 61.8821147,99.6535737 62.7479401,100.77344 C64.8799065,102.018954 66.2040566,98.747113 65.1512709,97.1584443 C64.6446369,95.6234736 64.1029858,93.5100386 65.9024053,92.5822324 C67.0915967,91.5144479 68.7298022,90.3706819 70.3365034,90.4989146 C71.3710472,91.6143697 69.0699433,92.7332476 69.1452064,94.0085395 C69.961066,95.6248507 66.9980816,96.6436672 68.5465642,98.013053 C69.1183524,99.0251735 70.9178318,100.918218 71.5778661,99.0461298 C71.8546193,97.0980901 73.7682308,98.8482323 73.634719,99.9825979 C74.4008422,100.825461 76.3042849,99.5890283 77.5160493,99.5889983 C79.2850522,98.4652904 81.6064238,98.6359847 83.6232901,98.8093034 C84.0943982,100.198258 84.5582713,101.966463 86.3774896,101.952622 C88.4070993,102.027067 90.3701677,101.369028 92.1220563,100.351549 C94.2438339,100.225611 95.9749358,98.5999099 98.1696115,99.1068532 C99.1941461,99.3831673 101.914117,99.0337057 101.702737,100.171724 C100.196018,99.7411412 98.1930527,101.434731 100.716773,101.419274 C102.532548,102.656096 104.066241,100.55734 105.552943,99.7800302 C107.186268,100.01059 108.915394,100.703066 110.451283,99.6679238 C112.5973,98.9972816 109.175273,99.0471876 108.415386,99.073842 C107.222553,99.1982328 105.130204,98.6797035 105.374574,97.8851297 C106.557868,95.9146666 104.955997,96.9290723 104.030396,97.8735538 C102.828431,97.8715579 102.253529,96.2976684 100.927992,96.1886955 C101.102259,93.3224096 99.5928651,96.2063587 98.3724487,95.7826318 C97.781231,94.2700245 94.6907524,96.1176735 95.2071361,94.6015236 C95.9277043,93.3973634 97.85368,93.2563373 97.2279941,91.8847361 C98.2069836,91.6850823 100.855054,91.4305827 99.8878602,89.9099322 C99.9082178,88.6305488 103.406127,88.6205297 100.661657,88.76909 C99.0236814,87.9300588 98.1647217,89.2627012 97.4148447,90.3423808 C95.8123946,91.3122194 94.5286702,89.9932984 95.9990057,88.6481122 C94.9281476,88.5584989 94.2446722,91.0281315 92.5908592,90.1375378 C90.8216567,89.1999819 90.4279174,91.648249 89.7454598,92.6548111 C88.700368,93.7793772 86.9363847,93.2748188 85.6068258,93.4390765 C83.9370661,92.6857666 88.305052,90.9740543 85.4367304,91.1687285 C83.7314946,91.7216361 82.0795976,92.4718624 80.3921846,92.9769397 C78.8880197,92.0865156 82.163363,91.3507292 81.4544905,89.9126166 C81.1215744,87.942443 82.5686782,86.3198549 84.3234907,85.7379977 C85.5163245,84.7469932 86.1121027,83.0455894 87.8968827,82.8637584 C90.9898262,81.4075036 94.5408648,80.755782 97.29233,78.6336451 C98.1169014,78.4545384 100.463939,76.3981744 98.8494346,76.5075964 C95.7587664,77.887171 92.7532108,79.6183527 89.3574685,80.1812295 C87.5461138,81.2339553 85.4208036,81.1038266 83.4287156,81.3249257 C81.418725,82.2267161 79.1763288,82.443185 77.2184795,83.4856322 C74.1119444,84.291303 71.8779905,87.1044196 68.5377126,87.1408936 C65.5775823,87.8580888 62.978749,90.3797829 59.7648906,89.8020071 C58.9434936,88.7113903 57.9839875,88.1305509 56.5945245,88.0275955 C55.1579528,87.1806707 53.3747824,86.17825 51.8080359,87.4142938 C50.8851674,88.4147486 52.1350284,90.4871291 50.2394163,90.8845109 C48.3465805,91.4425079 46.3604322,90.3236898 44.4441134,91.1452375 C42.2068694,91.3166302 42.1927548,88.6660947 41.4244272,87.2370632 C41.6542921,86.0814418 39.7152456,84.0434895 41.9264529,84.2069987 C43.7173182,84.006277 44.4556373,81.4120741 42.672448,80.5683925 C41.0591256,79.7801754 43.098986,77.6538373 41.3754952,77.2421953 C40.8453951,76.1170204 39.8118293,74.5710127 41.1140082,73.4777514 C42.1265997,72.0422135 41.5126793,69.2018336 43.2303442,67.7245327 C44.1163266,66.008699 45.1110233,68.5706691 46.0585075,66.4580325 C45.965192,65.1619439 43.4972339,66.0234782 43.5443717,64.1748313 C42.9740833,62.3360139 41.4258952,59.7142184 43.6260415,58.358584 C44.7352545,57.5234746 44.306127,55.2801203 46.1144739,55.113308 C46.5813867,53.4094294 47.7417103,51.9203131 49.1060745,50.8999398 C50.0412224,50.6513081 52.0166441,53.1931102 51.6641857,50.8371707 C50.748631,48.960582 53.7039573,48.2899298 54.7083329,49.526223 C55.7689812,48.5110689 56.5787794,47.8557747 58.0573696,48.6027977 C59.3591722,48.5948144 60.7364526,46.931102 61.8294345,48.4658132 C62.9644289,49.2121177 64.7221653,49.7407559 64.5118536,51.4573281 C66.9896293,51.9645908 65.6195748,50.5382238 65.4915517,49.0854018 C64.9913442,47.4838499 62.1854425,49.1359964 63.1990998,46.8511187 C63.4074256,45.5522659 63.1642724,43.2072934 64.9335447,43.027089 C65.5450102,44.1302098 65.8570299,44.893479 67.6522382,45.0790821 C69.1366044,45.7555222 70.8478876,45.2068957 72.3193606,44.7623922 C71.5072433,44.2096742 68.5908718,44.0942448 69.9818027,42.8120572 C71.5510919,41.3547646 67.2757928,42.0628588 68.5164569,40.3084854 C69.7524108,39.6725708 71.2847969,40.3489011 71.176323,38.3337014 C72.3437697,38.4712946 73.8018307,38.634684 74.9242014,38.8230614 C75.5392794,41.0482435 78.2556976,39.8820043 79.8853709,39.7381042 C80.97492,39.5518624 82.1141356,36.9984344 83.0108067,38.7346257 C84.207722,38.457683 85.492085,37.8431837 86.874344,38.560808 C88.4203417,37.4431276 85.1532013,37.2469066 84.7743809,36.4084841 C84.8494245,34.9632264 87.2681432,35.6972066 88.3241622,35.1915804 C90.3538517,34.7149039 91.9532681,33.3707356 93.5415776,32.1230661 C94.8044953,31.5720445 96.6854948,31.5619356 97.2735591,32.8633531 C98.588728,32.7199819 99.7836973,33.65647 100.297816,34.8029205 C100.262889,36.135493 99.7235726,37.4349247 98.4281127,37.9478755 C98.0400416,39.6635097 100.73723,40.0847317 100.769572,38.4295416 C102.209172,37.7500379 103.441114,36.6581337 105.173783,36.879183 C106.660424,36.3127835 108.156636,36.5214187 109.452714,37.3673056 C110.286357,37.890096 113.617364,37.2639011 111.825399,36.3161465 C110.076125,37.0262465 108.879689,35.0271531 110.361959,33.8436998 C112.523544,32.908499 113.672639,30.1958429 116.295951,30.2314587 C118.689732,30.0223745 121.00339,28.988669 123.424673,29.2955494 C124.243446,30.9857166 125.967862,28.7179732 126.652246,30.4728556 C127.691639,31.9908217 127.726706,32.6442198 128.204111,30.8153417 C130.230617,30.6223939 128.350446,27.6262088 129.716858,26.942384 C131.055847,26.6222812 132.291732,26.3182848 133.697951,26.1365137 C134.6435,25.0565646 136.031686,25.9304831 136.522972,24.3078252 C136.606798,23.0891453 139.36424,22.6074293 139.587395,23.8392119 C139.031823,25.3122118 138.219087,27.2348445 138.88452,28.6936639 C140.642466,29.1230888 138.862267,30.9508593 139.782539,32.1379949 C141.298419,32.7162697 141.660255,34.1921236 141.122037,35.649037 C140.601023,37.990816 140.771747,37.2953157 141.981505,35.9089053 C143.6488,35.8163981 144.029357,33.7374612 144.983199,32.8821739 C145.820753,33.0432581 148.967874,33.4502399 147.078113,34.4411845 C145.418432,35.9403099 147.523444,38.2512033 149.155722,38.7818972 C150.700014,39.2117712 152.187753,40.0762195 152.281537,41.8712581 C153.801779,42.2811438 152.830194,39.3629561 153.128522,38.3514544 C153.08641,37.240939 152.430866,36.6248331 152.413462,34.8334568 C152.11226,33.9096723 151.14789,31.1144782 152.758533,32.8127785 C152.810425,34.1807772 154.353628,36.0584237 154.370074,33.6202655 C154.66016,32.1650486 152.526826,30.720689 154.114966,29.449269 C155.703106,29.0173792 154.20408,26.4416477 156.010086,26.2090325 C157.327799,28.0215747 157.674277,26.4383446 157.830771,24.8166946 C158.73333,25.1472556 159.656196,26.3442308 160.613621,26.8960107 C161.80383,28.5793921 163.412627,26.1165254 164.951669,26.8181729 C166.734204,27.1528953 169.049817,27.2550025 169.696759,29.3086022 C171.46186,29.4293505 172.878458,31.0022821 174.629927,30.7877492 C175.496042,30.442878 177.576955,28.9407988 177.844277,30.2162304 C176.956039,31.2151085 176.519399,33.0977945 178.319537,33.1919981 L178.319537,33.192028 Z M20.5143716,77.7674505 C21.1743929,80.2103388 17.8804724,78.1829445 20.3027217,77.7594671 L20.5143716,77.7674505 Z M10.2104778,64.1253045 C8.88428592,65.8396014 13.1935253,66.1527288 11.0920064,66.5138062 C9.35384024,66.050921 10.0307613,69.2099267 8.14943356,68.2532108 C6.29032346,67.5239807 5.74259208,70.3347423 3.86204367,70.1606252 C1.92637614,69.7420177 5.69547728,69.0964732 5.11963949,67.8842199 C4.48490545,66.3697265 2.34637674,67.5925378 1.12538363,67.7230358 C-1.07586536,68.5143266 0.415645918,66.0539547 1.67903965,65.8468863 C3.09478485,65.5279011 3.41748126,63.7804732 5.04649494,64.3833567 C6.39205642,64.2931447 7.39536724,63.704761 8.37490661,63.108414 C9.19659798,63.1318651 9.55693094,64.0110826 10.2104778,64.1253045 L10.2104778,64.1253045 Z M134.459922,19.1397669 C135.138338,19.4153425 137.512061,20.958067 136.655716,21.4717663 C135.409403,20.9831447 134.099015,20.3121433 132.651831,20.7624847 C130.872559,19.3216378 133.73642,19.6152658 134.459922,19.1397669 Z" id="path_dep_29" fill-opacity="0.05" fill="#253186" fill-rule="nonzero"></path>
                    <path d="M356.24517,48.5092727 C355.907614,49.7359659 356.272314,51.0501468 357.088533,52.0134989 C358.846618,55.2080306 362.070219,55.6419462 365.173681,56.2336729 C364.795369,58.1207696 365.549478,61.9725914 367.700474,58.6647658 C368.503341,56.7695559 369.633735,56.0540373 370.837885,56.2729909 C371.528456,57.4739777 372.322381,58.6587284 372.899618,59.9022066 C374.556524,60.6070176 374.574597,62.4045011 373.503489,63.6457141 C372.239923,65.075494 374.545058,66.7637952 374.908591,64.653284 C375.117156,62.8208933 377.480939,64.2837143 377.813656,62.6010016 C378.325299,61.521272 377.3893,61.2696764 376.72727,61.1603144 C378.527188,59.9367746 379.880318,58.8053627 380.341796,61.0675078 C382.274348,64.5780409 379.974083,67.5475616 381.287515,71.2202167 C378.335079,72.034759 380.875544,75.9343212 378.570368,77.0461339 C374.417873,79.1139939 380.273678,84.4851889 378.47826,88.0898058 C375.424376,90.6218583 380.884625,94.107623 378.013639,95.7764747 C372.986038,94.6607701 377.23592,99.4184837 375.891382,101.823361 C376.411458,105.438177 373.604,103.721844 371.752549,104.276718 C370.679874,107.332339 367.829396,107.741107 366.002294,105.12991 C362.256012,102.177124 361.722494,108.135685 358.292683,108.618399 C359.93497,113.924639 354.50857,109.528981 352.105598,110.804921 C346.788491,111.904899 350.29595,117.718931 347.473433,119.826528 C345.366824,118.032178 343.601992,119.564953 344.621867,122.106655 C345.864237,125.668332 341.687832,127.678981 341.807423,130.540237 C341.836063,130.902532 336.014916,129.225967 336.734935,133.005918 C333.543277,131.878767 333.379419,135.114104 329.813182,134.864325 C327.994343,138.374798 326.173967,134.656777 326.223264,132.279592 C324.241056,130.634581 323.102609,126.715529 320.200837,125.711003 C316.525627,126.282991 313.586393,128.744121 309.726209,128.545395 C305.545093,128.427251 309.846089,130.869152 309.429128,133.123523 C309.166186,136.741632 304.005862,138.365707 305.226927,142.488424 C302.878521,144.086882 299.603647,146.62615 297.34717,149.161136 C293.800482,151.504712 290.546664,149.293939 291.075861,145.18204 C292.065958,141.742858 294.183384,138.231087 292.814567,134.569759 C290.427313,130.319857 288.124633,136.326737 285.518574,136.190401 C281.489272,132.790437 280.422037,140.544576 278.332652,139.801474 C278.039223,136.189403 276.991477,130.806263 272.866165,130.354115 C269.640079,132.056128 266.393606,129.710866 264.729375,127.076686 C261.548774,126.560392 257.98099,124.284915 255.038982,126.654426 C250.767655,129.929011 250.583818,121.773839 249.112555,120.619335 C245.058444,118.687192 239.727665,117.8582 236.101503,120.866999 C236.552743,123.846938 235.429424,127.500263 231.61704,126.953653 C228.741563,125.498775 226.686776,127.192894 225.961338,129.927914 C223.643749,127.983047 221.174904,129.23387 218.676731,130.10694 C217.63604,128.261317 215.92343,127.254226 213.554946,128.289059 C213.501558,124.343194 209.464622,125.047615 206.954294,126.554634 C205.047299,128.811121 197.700352,129.681098 200.91075,125.060948 C201.998813,121.613174 197.737814,122.690149 195.931199,123.086074 C193.228213,120.204709 187.83201,125.439938 184.696276,121.623832 C184.795769,118.573539 192.69712,122.77623 189.007271,118.290409 C184.983687,116.282614 185.113706,110.939022 189.379175,109.156637 C190.462647,106.929559 190.639668,102.926392 186.966624,102.704395 C186.28262,101.363709 192.939195,96.8369044 188.070952,98.5061952 C185.138534,98.3391034 187.003826,93.6715918 185.950063,91.6604237 C188.506235,87.1415622 183.490319,86.7312874 180.40994,85.4479921 C181.871643,82.6765685 180.677123,78.3437693 184.306578,76.9354646 C186.633608,76.2954785 188.317648,74.2899286 184.897526,73.4455086 C179.663037,70.984019 181.136605,65.2505891 185.190835,62.5706448 C187.209318,60.7168487 190.110511,58.5095094 186.281761,56.9887092 C185.072771,54.9604965 180.526267,56 183.376157,53.6601468 C184.935807,48.1786418 176.009522,51.5819284 177.076747,45.8647146 C174.952984,43.442613 174.723462,39.1296723 175.771258,36.2809898 C176.393152,35.1499173 177.365735,34.2030308 178.319547,33.1920879 C179.345079,32.8729431 180.659719,30.7698465 181.364001,32.594234 C181.830958,34.7365987 185.245621,35.1060188 185.814475,32.8219294 C186.696357,31.3295599 184.374337,30.5559623 184.831364,29.007889 C184.771489,27.5581805 184.64142,26.0429487 184.938341,24.6272893 C186.30633,23.970139 187.695225,23.9881914 189.179881,23.9929415 C191.754525,23.1829198 189.582901,23.419816 188.970368,22.0999171 C189.239397,20.546405 187.59203,19.5773149 186.965776,18.442081 C185.146837,18.8077189 184.847082,17.531 185.090075,15.8698922 C185.201872,14.5549229 185.779528,12.0828155 187.601351,12.9981277 C188.996583,13.1489234 191.029366,11.5104086 190.3032,10.1771973 C189.128867,9.55476466 190.435454,6.93611266 191.588441,7.6928554 C192.680475,8.02022307 193.194094,4.40794207 194.101523,6.3831452 C195.087228,7.316899 196.001483,5.82317234 197.129691,6.85404372 C196.777745,4.85539945 198.520792,5.08354393 199.036038,6.86202708 C199.872025,8.2386578 201.479934,9.79694988 203.145922,8.6727131 C205.269825,8.95727999 201.863465,10.3954325 202.669315,11.6074962 C203.7418,12.7717396 205.691935,11.7743085 207.036592,11.4966273 C208.952759,11.2967239 208.004106,8.56465832 209.900443,8.25963408 C211.302272,7.68772609 213.016868,8.19267364 214.228413,6.99513963 C215.429609,5.86719059 217.144784,5.42036191 218.707527,6.15880279 C220.239474,7.62783093 220.725551,5.21462073 221.844389,5.34208506 C222.885808,7.15926754 223.872322,4.70861538 224.497878,3.77383373 C225.391007,2.36643713 226.350886,-0.174327207 228.466407,0.719210412 C229.592819,2.15903941 227.163413,4.50349292 229.131211,5.45877185 C229.823109,6.99644691 228.900881,8.85571168 228.465179,10.4047032 C228.095001,11.6704051 226.607292,12.7614211 227.193829,14.1379221 C227.245322,12.7905803 228.047121,11.5620509 229.450386,11.1880205 C231.594377,10.0101755 231.061957,7.28003583 232.16385,5.49199261 C233.884484,6.06131598 234.417044,4.43643269 235.385895,3.51405518 C236.56381,3.03543276 237.692168,3.9310261 238.536747,2.4152953 C239.215922,1.16600916 241.033144,1.62367526 241.852177,0.431639789 C243.369095,-0.775703772 244.176632,0.820110109 243.692382,1.91249328 C243.697371,3.27071237 244.677628,4.65451814 243.724116,6.00343662 C242.06664,7.39636337 244.684574,7.57503098 244.348364,9.05833935 C243.917103,10.5555787 242.53672,11.8174087 242.842573,13.5557455 C243.00727,16.2448107 239.080444,16.5043099 239.347138,19.237104 C238.522737,20.7691907 239.051455,22.2862088 239.991855,20.0724928 C240.518756,18.7743186 242.353632,18.5185117 242.200142,16.8443312 C243.81293,15.5188039 243.246202,13.2093774 244.24975,11.5325923 C244.805092,10.3877485 245.411948,8.16495142 247.087525,8.89080853 C248.191125,10.5690307 249.756752,8.35868762 251.160666,9.07909609 C253.498892,9.13098793 251.624359,11.0228747 252.279144,12.0412821 C253.350012,12.9392305 250.375971,13.2153051 250.081705,14.4252033 C248.743953,14.6301362 247.355646,16.3845894 249.620416,16.0780583 C250.328131,16.1471144 250.67402,16.166474 250.875011,16.1574927 C250.569578,16.2417172 250.058892,16.53302 250.297495,17.4425443 C251.927218,19.2434108 254.761351,18.5505849 256.694212,19.863199 C258.084485,21.0981251 259.403176,17.6683537 259.541408,18.90798 C259.14229,20.37128 262.223627,20.3165042 261.126774,21.8416055 C259.900939,22.9318331 261.880203,24.2987541 260.24105,25.2388147 C259.134127,26.8058885 261.968419,26.6325997 261.945218,28.0714408 C262.399072,29.4344499 263.948622,29.7836121 264.802991,30.8647687 C267.008834,30.5992222 265.970169,33.2157087 266.737719,34.4019063 C267.686771,36.3738363 270.906769,35.0347573 271.663183,37.287472 C272.035267,39.0571236 274.701171,39.2340548 274.346171,41.309968 C273.865572,43.3583087 274.754609,45.2941938 275.268189,47.1897928 C274.9799,48.3505435 273.419742,50.105336 275.652937,50.4155594 C276.991796,50.7542236 277.764915,52.0819662 279.22605,52.1341075 C280.547685,52.8416328 280.319391,54.7445466 281.824623,55.2869561 C283.233936,55.9851908 284.774785,56.468713 286.241976,57.0163515 C285.748675,58.0907223 286.503781,59.4988972 285.583639,60.5558542 C283.329667,61.9075469 286.801201,60.9495936 286.690122,62.3002883 C286.372884,64.0403117 288.628123,63.775763 288.964103,65.2543014 C289.745903,67.410118 290.557212,66.9570923 290.690065,64.8675375 C290.907013,63.4426972 289.807475,60.8758273 291.989387,60.5702343 C293.265867,61.1829073 294.207035,62.740421 295.918897,61.9857839 C296.931936,60.6964811 297.856868,59.1761399 299.481542,58.4248558 C300.945051,57.2180112 301.314401,55.2316015 302.9032,54.0914578 C303.943691,52.79019 304.993453,51.4455227 306.00722,50.1836628 C307.217418,49.5327295 308.738488,50.7075708 309.904447,49.5391361 C311.714924,48.2493744 313.516309,46.8909657 315.317565,45.5838401 C316.118775,44.8353401 317.617252,42.8724813 315.556587,42.851046 C313.619664,42.5666587 313.826543,40.8972382 315.755542,40.9955334 C317.785421,40.596535 320.024784,39.9343452 322.035533,40.4864544 C322.614436,41.0958243 322.389405,44.4724166 323.659089,42.5116933 C324.324532,41.2675265 326.048369,41.1892197 326.749677,39.9169415 C327.843537,39.1473255 329.159774,39.0899152 330.173731,38.1765888 C331.293876,37.573416 333.320801,37.3134978 332.951152,35.5697422 C332.64978,33.974088 334.900249,32.5422424 334.65999,34.9028422 C334.322773,36.6384647 336.0418,37.1410073 337.417433,37.0774398 C338.129788,38.1181806 335.929624,39.1806062 335.971417,40.5089076 C335.930003,42.9601885 333.061671,43.4174654 332.34262,45.5423266 C333.232186,46.4784455 334.025213,48.4121152 335.05313,46.4388181 C335.965868,44.5622593 338.092096,44.1667936 339.516547,42.79155 C340.217756,42.2774914 342.057062,40.2973985 342.332618,41.838217 C341.119946,43.2033916 343.553673,44.1835886 342.625228,45.6007648 C341.752966,47.3813436 343.982699,47.5947288 344.827428,48.4029443 C344.945951,49.732533 345.204183,50.9513726 346.104686,51.9177983 C345.838431,53.7526939 346.552163,54.8368143 347.597445,52.8262748 C348.650719,51.5206661 347.947455,49.6037115 348.179611,48.0416972 C350.664023,49.0020855 347.583214,52.9876086 350.337164,53.6897451 C351.525448,53.6794665 353.43865,51.2923819 351.396915,51.0942149 C350.733518,49.3658074 352.476336,48.0415874 353.353717,46.8191853 C354.675382,45.8377309 354.942406,48.8010745 356.2454,48.5089334 L356.24517,48.5092727 Z M185.879979,10.0201048 C187.99519,9.57918377 187.179191,12.0594143 185.467758,11.5274331 C184.210349,11.4820277 185.694136,10.284813 185.879979,10.0201048 Z M255.341392,1.9993223 C255.021199,3.06762566 254.346945,4.15749407 254.037559,5.44305461 C254.081667,7.67886456 251.493642,5.48327079 252.56909,4.32336835 C252.963738,2.97175548 251.665234,2.52342992 253.828844,2.11629849 C254.33485,1.58428735 254.743408,1.53940091 255.341392,1.9993223 Z"  id="path_dep_22" fill-opacity="0.05" fill="#253186" fill-rule="nonzero"></path>
                    <g id="path_departments-boundaries" transform="translate(163.976502, 32.939877)" stroke="#000000" stroke-dasharray="1.428839964351653,1.428839964351653" stroke-linecap="round" stroke-linejoin="bevel" stroke-width="0.629999996">
                        <path d="M184.696765,121.623772 C187.832499,125.439878 193.228702,120.20465 195.931688,123.086014 C197.738303,122.690089 201.999302,121.613114 200.911239,125.060888 C197.700841,129.681038 205.047788,128.811061 206.954783,126.554575 C209.465111,125.047556 213.501997,124.343134 213.555435,128.289 C215.923919,127.254166 217.636529,128.261357 218.67722,130.106881 C221.175393,129.23381 223.644238,127.982987 225.961827,129.927854 C226.687265,127.192834 228.742052,125.498715 231.617529,126.953593 C235.429913,127.500204 236.553232,123.846878 236.101992,120.866939 C239.728154,117.85814 245.058933,118.687133 249.113043,120.619275 C250.584307,121.773779 250.768144,129.928951 255.039471,126.654367 C257.981479,124.284855 261.549263,126.560363 264.729864,127.076626 C266.394095,129.710806 269.640568,132.056068 272.866654,130.354055 C276.991966,130.806203 278.039712,136.189343 278.333141,139.801414 C280.422526,140.544516 281.489761,132.790377 285.519063,136.190341 C288.125121,136.326677 290.427802,130.319797 292.815056,134.569699 C294.183873,138.231028 292.066447,141.742798 291.07635,145.18198 C290.547153,149.29388 293.800971,151.504652 297.347659,149.161076 C299.604126,146.62609 302.87901,144.086822 305.227416,142.488364 C304.006351,138.365647 309.166675,136.741572 309.429617,133.123463 C309.846568,130.869092 305.545582,128.427192 309.726698,128.545335 C313.586872,128.744061 316.526116,126.282931 320.201326,125.710943 C323.103098,126.715469 324.241545,130.634521 326.223753,132.279532 C326.174456,134.656717 327.994832,138.374738 329.813671,134.864265 C333.379908,135.114044 333.543766,131.878708 336.735424,133.005858"></path>
                        <path d="M336.735235,133.005838 C338.875164,135.330373 340.995445,137.695384 341.019834,140.85447 C340.370168,142.683068 339.859463,147.713853 342.851586,144.474844 C344.876815,140.626505 354.081869,142.008235 349.297481,146.73147 C345.78129,148.429202 340.878519,146.134884 338.789293,150.769095 C336.693082,152.856334 337.907332,155.590925 336.719258,157.658146 C340.763718,157.989805 346.008856,156.07288 349.040347,159.995425 C351.852466,160.113149 354.936558,159.516922 355.936264,163.044599 C358.514061,165.553889 360.196984,169.20455 361.198157,172.585932 C359.193356,174.737278 355.426447,176.826753 358.282873,180.224342 C358.515419,182.717575 357.787466,186.26549 361.533797,183.939678 C363.02447,183.061219 364.839298,178.44991 364.597392,182.81136 C364.403766,185.797516 368.161244,188.263147 363.540046,190.035143 C361.678745,191.41381 362.056638,197.056579 357.755073,196.285007 C355.586214,197.782975 355.291997,200.412873 358.610221,199.251245 C362.43433,199.721804 365.650567,204.940656 359.784763,203.548917 C356.278012,203.731207 354.785603,206.865205 356.272414,210.071053 C354.419496,213.384038 360.39537,214.982676 357.423125,218.294234 C357.706485,220.081459 359.550511,220.915231 359.098314,222.54214"></path>
                        <path d="M184.696266,121.623772 C181.915502,123.162864 178.574895,123.537653 176.015878,125.35273 C172.75234,128.49016 167.210142,125.889351 166.035889,131.322537 C165.608979,132.877616 162.518501,137.755399 166.560985,137.133096 C170.788683,136.610944 164.748353,143.538056 169.916012,143.784044 C172.57029,146.256101 171.585882,150.370376 173.655498,153.211893 C174.229013,156.348426 175.96225,158.924088 179.300492,156.649748 C182.365314,157.115826 186.122643,155.00798 188.867073,158.290348 C191.998117,158.96135 193.976773,161.041454 194.461313,164.022262 C196.101524,164.22463 197.456211,161.640645 199.357977,161.402362 C204.323368,157.274067 204.902281,167.422245 203.73202,169.381052 C199.786574,171.381373 204.574454,176.216805 202.595828,179.079738 C199.136868,177.953675 196.582681,179.580634 196.68879,183.25268 C194.269313,185.858559 188.968891,186.771426 188.573734,181.938599 C185.143743,183.011622 186.405793,187.8347 188.062779,190.129646 C189.019894,191.736178 188.199804,193.388584 187.690525,194.966276"></path>
                        <path d="M184.696266,121.623772 C184.795759,118.573479 192.6971,122.77617 189.007261,118.29035 C184.983677,116.282554 185.113696,110.938962 189.379165,109.156577 C190.462627,106.929499 190.639648,102.926332 186.966614,102.704335 C186.28261,101.363649 192.939185,96.8368446 188.070942,98.5061353 C185.138524,98.3390436 187.003816,93.671532 185.950053,91.6603638 C188.506225,87.1415024 183.490309,86.7312275 180.40993,85.4479322 C181.871633,82.6765086 180.677113,78.3437094 184.306568,76.9354047 C186.633598,76.2954186 188.317638,74.2898687 184.897516,73.4454487 C179.663027,70.9839592 181.136595,65.2505292 185.190825,62.570585 C187.209308,60.7167888 190.110501,58.5094495 186.281751,56.9886493 C185.072761,54.9604366 180.526257,55.99995 183.376147,53.6600869 C184.935797,48.1785819 176.009512,51.5818685 177.076737,45.8646548 C174.952974,43.4425531 174.723452,39.1296125 175.771248,36.2809299 C176.393132,35.1498574 177.184253,34.125702 177.961753,33.0997803"></path>
                        <path d="M336.734925,133.005858 C336.014906,129.225907 341.836043,130.902472 341.807413,130.540177 C341.687832,127.678921 345.864227,125.668272 344.621857,122.106595 C343.601982,119.564893 345.366814,118.032118 347.473423,119.826468 C350.29594,117.718871 346.788481,111.904839 352.105588,110.804861 C354.50856,109.528921 359.93496,113.924579 358.292673,108.618339 C361.722484,108.135625 362.256002,102.177064 366.002284,105.12985 C367.829386,107.741047 370.679864,107.332279 371.752539,104.276658 C373.60399,103.721784 376.411448,105.438117 375.891372,101.823301 C377.23591,99.4184238 372.986028,94.6607102 378.013629,95.7764148 C380.884615,94.1075632 375.424366,90.6217985 378.47825,88.089746 C380.273678,84.485129 374.417873,79.113934 378.570358,77.046074 C380.875534,75.9342614 378.335069,72.0346991 381.287505,71.2201569 C379.974073,67.5475017 382.274338,64.577981 380.341786,61.0674479 C379.41882,56.5432875 375.16309,65.328856 373.945518,59.4681313 C373.218094,55.7417681 369.306198,54.8743461 367.700464,58.6647658 C365.549468,61.9725914 364.795359,58.1207696 365.173671,56.2336729 C362.070209,55.6419462 358.846608,55.2080306 357.088523,52.0134989 C356.271955,51.0501468 355.914779,49.7275335 356.252335,48.5008203"></path>
                    </g>
                </g>
            </g>
        </g>
    </g>
</svg>