<svg width="16" height="10" viewBox="0 0 16 10" fill="none" xmlns="http://www.w3.org/2000/svg">
<path d="M11.2 2.70001C11.475 2.70001 11.7 2.90251 11.7 3.20001V3.30001H13.2C13.475 3.30001 13.7 3.50251 13.7 3.80001C13.7 4.07501 13.475 4.30001 13.2 4.30001H13.15L13.11 4.41251C12.8875 5.00251 12.5475 5.57751 12.1175 6.04751C12.14 6.06001 12.1625 6.05251 12.185 6.08751L12.6575 6.37001C12.895 6.51251 12.97 6.82001 12.8275 7.05751C12.6875 7.29501 12.38 7.37001 12.1425 7.22751L11.67 6.94501C11.56 6.87751 11.4275 6.80751 11.3425 6.73251C11.08 6.92001 10.795 7.08251 10.495 7.21751L10.4025 7.25751C10.15 7.37001 9.855 7.25501 9.7425 7.00251C9.63 6.75001 9.745 6.45501 9.9975 6.34251L10.0875 6.30251C10.2475 6.23001 10.4025 6.12751 10.55 6.05751L10.2475 5.75251C10.05 5.55751 10.05 5.24251 10.2475 5.04751C10.4425 4.85001 10.7575 4.85001 10.9525 5.04751L11.3175 5.41001L11.3325 5.40251C11.6425 5.09751 11.895 4.71751 12.0775 4.27751H9.4C9.1025 4.27751 8.9 4.07501 8.9 3.77751C8.9 3.50251 9.1025 3.27751 9.4 3.27751H10.7V3.17751C10.7 2.90251 10.9025 2.67751 11.2 2.67751V2.70001ZM4 4.43001L4.475 5.50001H3.5025L4 4.43001ZM0 1.80001C0 0.916262 0.71625 0.200012 1.6 0.200012H14.4C15.2825 0.200012 16 0.916262 16 1.80001V8.20001C16 9.08251 15.2825 9.80001 14.4 9.80001H1.6C0.71625 9.80001 0 9.08251 0 8.20001V1.80001ZM8 8.20001H14.4V1.80001H8V8.20001ZM4.4575 2.99751C4.3775 2.81751 4.1975 2.70001 4 2.70001C3.8025 2.70001 3.6225 2.81751 3.5425 2.99751L1.943 6.59751C1.831 6.82751 1.9445 7.14501 2.197 7.25751C2.44925 7.37001 2.745 7.25501 2.8575 7.00251L3.08 6.47751H4.92L5.1425 7.00251C5.255 7.25501 5.55 7.37001 5.8025 7.25751C6.055 7.14501 6.17 6.82751 6.0575 6.59751L4.4575 2.99751Z" fill="#121212"/>
</svg>
