<svg width="16" height="14" viewBox="0 0 16 14" fill="none" xmlns="http://www.w3.org/2000/svg">
<path d="M8 0.599976C4.465 0.599976 1.6 3.46498 1.6 6.99998H14.4C14.4 3.46498 11.535 0.599976 8 0.599976ZM6.01 6.19998C5.5675 6.19998 5.21 5.84248 5.21 5.39998C5.21 5.17998 5.3 4.97998 5.4425 4.83498L4.675 4.57998C4.465 4.50998 4.3525 4.28248 4.4225 4.07498C4.4925 3.86748 4.72 3.75248 4.9275 3.82248L7.3275 4.62248C7.5375 4.69248 7.65 4.91998 7.58 5.12748C7.51 5.33498 7.2825 5.44998 7.075 5.37998L6.8025 5.28998C6.8075 5.32748 6.81 5.36248 6.81 5.39998C6.81 5.84248 6.4525 6.19998 6.01 6.19998ZM10.81 5.39998C10.81 5.84248 10.4525 6.19998 10.01 6.19998C9.5675 6.19998 9.21 5.84248 9.21 5.39998C9.21 5.35998 9.2125 5.31998 9.2175 5.28248L8.925 5.37998C8.715 5.44998 8.49 5.33748 8.42 5.12748C8.35 4.91748 8.4625 4.69248 8.6725 4.62248L11.0725 3.82248C11.2825 3.75248 11.5075 3.86498 11.5775 4.07498C11.6475 4.28498 11.535 4.50998 11.325 4.57998L10.57 4.83248C10.7175 4.97748 10.8075 5.17998 10.8075 5.40248L10.81 5.39998ZM1.2 7.79998C0.5375 7.79998 0 8.33748 0 8.99998V12.2C0 12.8625 0.5375 13.4 1.2 13.4H14.8C15.4625 13.4 16 12.8625 16 12.2V8.99998C16 8.33748 15.4625 7.79998 14.8 7.79998H1.2ZM10 10.2H9.6V11H10C10.22 11 10.4 11.18 10.4 11.4C10.4 11.62 10.22 11.8 10 11.8H9.6V12.2C9.6 12.42 9.42 12.6 9.2 12.6C8.98 12.6 8.8 12.42 8.8 12.2V11.8H8V12.2C8 12.42 7.82 12.6 7.6 12.6C7.38 12.6 7.2 12.42 7.2 12.2V11.8H6.8C6.58 11.8 6.4 11.62 6.4 11.4C6.4 11.18 6.58 11 6.8 11H7.2V10.2H6.8C6.58 10.2 6.4 10.02 6.4 9.79998C6.4 9.57998 6.58 9.39997 6.8 9.39997H7.2V8.99998C7.2 8.77997 7.38 8.59998 7.6 8.59998C7.82 8.59998 8 8.77997 8 8.99998V9.39997H8.8V8.99998C8.8 8.77997 8.98 8.59998 9.2 8.59998C9.42 8.59998 9.6 8.77997 9.6 8.99998V9.39997H10C10.22 9.39997 10.4 9.57998 10.4 9.79998C10.4 10.02 10.22 10.2 10 10.2ZM8 10.2V11H8.8V10.2H8ZM14.26 8.89748C14.4275 9.04247 14.4475 9.29247 14.3025 9.46247L11.9025 12.2625C11.7575 12.43 11.5075 12.45 11.3375 12.305C11.1675 12.16 11.15 11.91 11.295 11.74L13.695 8.93997C13.84 8.77248 14.09 8.75247 14.26 8.89748ZM12.4 9.39997C12.4 9.73248 12.1325 9.99998 11.8 9.99998C11.4675 9.99998 11.2 9.73248 11.2 9.39997C11.2 9.06748 11.4675 8.79998 11.8 8.79998C12.1325 8.79998 12.4 9.06748 12.4 9.39997ZM13.8 12.4C13.4675 12.4 13.2 12.1325 13.2 11.8C13.2 11.4675 13.4675 11.2 13.8 11.2C14.1325 11.2 14.4 11.4675 14.4 11.8C14.4 12.1325 14.1325 12.4 13.8 12.4ZM5.2 8.59998C5.42 8.59998 5.6 8.77997 5.6 8.99998V10.6C5.6 10.82 5.42 11 5.2 11C4.98 11 4.8 10.82 4.8 10.6V8.99998C4.8 8.77997 4.98 8.59998 5.2 8.59998ZM5.8 12C5.8 12.3325 5.5325 12.6 5.2 12.6C4.8675 12.6 4.6 12.3325 4.6 12C4.6 11.6675 4.8675 11.4 5.2 11.4C5.5325 11.4 5.8 11.6675 5.8 12ZM3.2 8.99998V9.04497C3.315 9.06497 3.4175 9.08747 3.5025 9.10997C3.715 9.16747 3.8425 9.38498 3.785 9.59997C3.7275 9.81497 3.51 9.93997 3.295 9.88247C3.0975 9.82998 2.8325 9.78498 2.625 9.80997C2.5225 9.82247 2.4675 9.84498 2.44 9.86497C2.425 9.87498 2.41 9.88748 2.4025 9.93748C2.3975 9.96247 2.4 9.97748 2.4 9.98247C2.4025 9.98497 2.4125 9.99748 2.4375 10.015C2.53 10.0775 2.6775 10.125 2.9175 10.1975L2.935 10.2025C3.135 10.2625 3.4125 10.3475 3.625 10.5C3.7425 10.585 3.8575 10.705 3.9275 10.8675C4 11.0325 4.0125 11.2125 3.9825 11.395C3.9325 11.6825 3.785 11.9075 3.5575 12.0425C3.435 12.1175 3.305 12.1575 3.175 12.1775V12.1975C3.175 12.4175 2.995 12.5975 2.775 12.5975C2.555 12.5975 2.375 12.4175 2.375 12.1975V12.1225C2.1725 12.075 1.9925 12.0175 1.87 11.975C1.66 11.905 1.5475 11.6775 1.6175 11.47C1.6875 11.2625 1.915 11.1475 2.1225 11.2175C2.36 11.2975 2.67 11.39 2.9225 11.395C3.0475 11.3975 3.1125 11.375 3.1425 11.3575C3.155 11.35 3.1775 11.335 3.1925 11.2575C3.1975 11.2275 3.1975 11.21 3.1975 11.2C3.1975 11.19 3.195 11.185 3.195 11.185C3.195 11.1825 3.1875 11.17 3.155 11.145C3.0675 11.0825 2.9225 11.03 2.6875 10.96L2.65 10.95C2.4575 10.8925 2.1925 10.8125 1.99 10.675C1.8725 10.595 1.755 10.4825 1.68 10.3225C1.6025 10.16 1.5875 9.97997 1.6175 9.79998C1.6625 9.54498 1.7925 9.34748 1.98 9.21247C2.1125 9.11748 2.26 9.06497 2.4025 9.03747V8.99998C2.4025 8.77997 2.5825 8.59998 2.8025 8.59998C3.0225 8.59998 3.2025 8.77997 3.2025 8.99998H3.2ZM2.4025 9.98497C2.4025 9.98497 2.4025 9.98497 2.4025 9.98247V9.98497Z" fill="black"/>
</svg>
