<svg width="4" height="15" viewBox="0 0 4 15" fill="none" xmlns="http://www.w3.org/2000/svg">
<path fill-rule="evenodd" clip-rule="evenodd" d="M3.75 1.875C3.75 0.838184 2.91152 0 1.875 0C0.838477 0 0 0.838184 0 1.875C0 2.91182 0.838477 3.75 1.875 3.75C2.91152 3.75 3.75 2.91182 3.75 1.875ZM3.75 7.5C3.75 6.46318 2.91152 5.625 1.875 5.625C0.838477 5.625 0 6.46289 0 7.5C0 8.53711 0.838477 9.375 1.875 9.375C2.91152 9.375 3.75 8.53711 3.75 7.5ZM1.875 11.25C2.91152 11.25 3.75 12.0882 3.75 13.125C3.75 14.1621 2.91152 15 1.875 15C0.838477 15 0 14.1618 0 13.125C0 12.0882 0.838477 11.25 1.875 11.25Z" fill="black"/>
</svg>
