<svg width="16" height="16" viewBox="0 0 16 16" fill="none" xmlns="http://www.w3.org/2000/svg">
<path d="M0 2C0 0.896875 0.896875 0 2 0H14C15.1031 0 16 0.896875 16 2V11C16 12.1031 15.1031 13 14 13H9.66562L5.8 15.9C5.65 16.0125 5.44688 16.0312 5.275 15.9469C5.10313 15.8625 5 15.6906 5 15.5V13H2C0.896875 13 0 12.1031 0 11V2ZM5.30625 3.66563L5.29375 3.70312C5.15625 4.09375 5.35938 4.52188 5.75 4.65938C6.14062 4.79688 6.56875 4.59375 6.70625 4.20312L6.71875 4.16563C6.75313 4.06563 6.85 4 6.95312 4H8.775C9.0375 4 9.24687 4.2125 9.24687 4.47188C9.24687 4.64062 9.15625 4.79688 9.00937 4.88125L7.625 5.675C7.39062 5.80938 7.24687 6.05625 7.24687 6.325V6.75C7.24687 7.16563 7.58125 7.5 7.99687 7.5C8.40625 7.5 8.74062 7.17188 8.74687 6.7625L9.75625 6.18437C10.3688 5.83125 10.7469 5.17813 10.7469 4.47188C10.7469 3.38125 9.8625 2.5 8.775 2.5H6.95625C6.21563 2.5 5.55625 2.96563 5.30625 3.66563ZM9 9.5C9 8.94687 8.55313 8.5 8 8.5C7.44688 8.5 7 8.94687 7 9.5C7 10.0531 7.44688 10.5 8 10.5C8.55313 10.5 9 10.0531 9 9.5Z" fill="#253186"/>
</svg>
