<svg xmlns="http://www.w3.org/2000/svg" xmlns:xlink="http://www.w3.org/1999/xlink" width="20" height="20"><defs><path id="a" d="M12.384 12.395c.982-.982 1.473-2.161 1.473-3.538 0-1.376-.49-2.554-1.467-3.532-.979-.979-2.156-1.468-3.533-1.468-1.376 0-2.554.49-3.532 1.468-.979.978-1.468 2.156-1.468 3.532 0 1.377.49 2.554 1.468 3.533.978.978 2.156 1.467 3.532 1.467 1.377 0 2.552-.487 3.527-1.462zm7.187 5.748c0 .387-.14.722-.424 1.004a1.373 1.373 0 0 1-1.004.424c-.402 0-.737-.14-1.005-.424L13.31 15.33a7.643 7.643 0 0 1-4.453 1.384 7.72 7.72 0 0 1-3.052-.62 7.856 7.856 0 0 1-2.511-1.673 7.856 7.856 0 0 1-1.675-2.511A7.72 7.72 0 0 1 1 8.857a7.72 7.72 0 0 1 .62-3.052 7.856 7.856 0 0 1 1.674-2.511 7.856 7.856 0 0 1 2.51-1.675A7.72 7.72 0 0 1 8.858 1a7.72 7.72 0 0 1 3.053.62 7.856 7.856 0 0 1 2.51 1.674 7.856 7.856 0 0 1 1.675 2.51 7.72 7.72 0 0 1 .62 3.053 7.643 7.643 0 0 1-1.385 4.453l3.828 3.828c.276.276.413.61.413 1.005z"/></defs><g fill="none" fill-rule="evenodd"><mask id="b" fill="#fff"><use xlink:href="#a"/></mask><use fill="#E3E3E3" fill-rule="nonzero" xlink:href="#a"/><g fill="#DE1A42" mask="url(#b)"><path d="M0 0h20v20H0z"/></g></g></svg>