<svg xmlns="http://www.w3.org/2000/svg" width="9" height="7" viewBox="0 0 9 7">
    <g fill="none" fill-rule="evenodd">
        <g fill="#FFF" fill-rule="nonzero">
            <g>
                <g>
                    <g>
                        <g>
                            <g>
                                <g>
                                    <path d="M30.635 11.274l5.672-5.672c.089-.089.089-.233 0-.321l-.214-.215c-.089-.088-.232-.088-.321 0l-5.298 5.298-1.872-1.873c-.09-.088-.233-.088-.321 0l-.215.214c-.088.089-.088.233 0 .321l2.248 2.248c.089.088.232.088.321 0z" transform="translate(-1028 -613) translate(370 67) translate(30 85) translate(0 173.5) translate(0 81.5) translate(0 57) translate(600 144)"/>
                                </g>
                            </g>
                        </g>
                    </g>
                </g>
            </g>
        </g>
    </g>
</svg>
