<svg width="20" height="19" viewBox="0 0 20 19" fill="none" xmlns="http://www.w3.org/2000/svg">
<path d="M3.75 6.98758H1.25C0.559766 6.98758 0 7.54734 0 8.20242V16.9173C0 17.6075 0.559766 18.1321 1.25 18.1321H3.75C4.44023 18.1321 5 17.5723 5 16.9173V8.23758C5 7.58133 4.44141 6.98758 3.75 6.98758ZM20 8.38992C20 6.9489 18.8262 5.77586 17.384 5.77586H13.4832C13.8555 4.80008 14.0625 3.95633 14.0625 3.46023C14.0625 2.13992 13.0391 0.773514 11.3258 0.773514C9.50508 0.773514 9.00703 2.0407 8.60664 3.05867C7.36992 6.2032 6.25 5.65203 6.25 6.70984C6.25 7.2114 6.65469 7.64695 7.18828 7.64695C7.39359 7.64695 7.60039 7.57972 7.77305 7.44148C10.7715 5.04422 10.0375 2.64851 11.3258 2.64851C11.9539 2.64851 12.1875 3.14656 12.1875 3.46062C12.1875 3.74984 11.8909 5.00554 11.1895 6.25711C11.1095 6.39953 11.0697 6.55734 11.0697 6.71492C11.0697 7.25867 11.5162 7.61726 12.0072 7.61726H17.3822C17.793 7.65164 18.125 7.98367 18.125 8.38992C18.125 8.77308 17.8216 9.09422 17.4348 9.12078C16.9402 9.15435 16.5613 9.56609 16.5613 10.0559C16.5613 10.6602 17.0062 10.679 17.0062 11.1852C17.0062 12.1762 15.6379 11.6673 15.6379 12.8317C15.6379 13.27 15.8876 13.3407 15.8876 13.7009C15.8876 14.586 14.7247 14.2384 14.7247 15.2884C14.7247 15.4647 14.768 15.5212 14.768 15.6577C14.768 16.0659 14.4354 16.398 14.027 16.398H11.9751C10.9743 16.398 9.98211 16.0673 9.18211 15.4679L7.75008 14.3933C7.58152 14.2665 7.38406 14.2054 7.18836 14.2054C6.64734 14.2054 6.24969 14.6499 6.24969 15.1444C6.24969 15.4291 6.37906 15.7077 6.62453 15.8917L8.05695 16.9667C9.17969 17.8079 10.5703 18.2727 11.9766 18.2727H14.0285C15.4086 18.2727 16.5426 17.1989 16.6379 15.843C17.332 15.3653 17.7641 14.5731 17.7641 13.7012C17.7641 13.5823 17.7555 13.4627 17.739 13.3449C18.4359 12.8703 18.8828 12.0723 18.8828 11.1855C18.8828 10.9781 18.8578 10.7738 18.8095 10.5746C19.5273 10.0735 20 9.29617 20 8.38992Z" fill="#507A1F"/>
</svg>
