<svg width="15" height="10" viewBox="0 0 15 10" fill="none" xmlns="http://www.w3.org/2000/svg">
<path d="M10.5 2.84375C10.7578 2.84375 10.9688 3.03359 10.9688 3.3125V3.40625H12.375C12.6328 3.40625 12.8438 3.59609 12.8438 3.875C12.8438 4.13281 12.6328 4.34375 12.375 4.34375H12.3281L12.2906 4.44922C12.082 5.00234 11.7633 5.54141 11.3602 5.98203C11.3813 5.99375 11.4023 5.98672 11.4234 6.01953L11.8664 6.28437C12.0891 6.41797 12.1594 6.70625 12.0258 6.92891C11.8945 7.15156 11.6063 7.22188 11.3836 7.08828L10.9406 6.82344C10.8375 6.76016 10.7133 6.69453 10.6336 6.62422C10.3875 6.8 10.1203 6.95234 9.83906 7.07891L9.75234 7.11641C9.51562 7.22187 9.23906 7.11406 9.13359 6.87734C9.02813 6.64062 9.13594 6.36406 9.37266 6.25859L9.45703 6.22109C9.60703 6.15313 9.75234 6.05703 9.89062 5.99141L9.60703 5.70547C9.42188 5.52266 9.42188 5.22734 9.60703 5.04453C9.78984 4.85937 10.0852 4.85937 10.268 5.04453L10.6102 5.38437L10.6242 5.37734C10.9148 5.09141 11.1516 4.73516 11.3227 4.32266L8.8125 4.32266C8.53359 4.32266 8.34375 4.13281 8.34375 3.85391C8.34375 3.59609 8.53359 3.38516 8.8125 3.38516L10.0312 3.38516V3.29141C10.0312 3.03359 10.2211 2.82266 10.5 2.82266V2.84375ZM3.75 4.46562L4.19531 5.46875L3.28359 5.46875L3.75 4.46562ZM0 2C0 1.17148 0.671484 0.5 1.5 0.5L13.5 0.5C14.3273 0.5 15 1.17148 15 2L15 8C15 8.82734 14.3273 9.5 13.5 9.5L1.5 9.5C0.671484 9.5 0 8.82734 0 8L0 2ZM7.5 8L13.5 8L13.5 2L7.5 2L7.5 8ZM4.17891 3.12266C4.10391 2.95391 3.93516 2.84375 3.75 2.84375C3.56484 2.84375 3.39609 2.95391 3.32109 3.12266L1.82156 6.49766C1.71656 6.71328 1.82297 7.01094 2.05969 7.11641C2.29617 7.22187 2.57344 7.11406 2.67891 6.87734L2.8875 6.38516L4.6125 6.38516L4.82109 6.87734C4.92656 7.11406 5.20313 7.22187 5.43984 7.11641C5.67656 7.01094 5.78438 6.71328 5.67891 6.49766L4.17891 3.12266Z" fill="#121212"/>
</svg>
