<svg width="15" height="14" viewBox="0 0 15 14" fill="none" xmlns="http://www.w3.org/2000/svg">
<path fill-rule="evenodd" clip-rule="evenodd" d="M14.8325 11.5297L8.58328 0.865257C8.10484 0.0449145 6.89747 0.0449145 6.41582 0.865257L0.169499 11.5297C-0.31128 12.3471 0.28754 13.3755 1.25118 13.3755L13.7497 13.3755C14.7095 13.3755 15.3101 12.35 14.8325 11.5297ZM6.7961 4.23452C6.7961 3.84632 7.11106 3.53137 7.49925 3.53137C7.88745 3.53137 8.2024 3.84779 8.2024 4.23452L8.2024 7.98465C8.2024 8.37285 7.88745 8.6878 7.52562 8.6878C7.16379 8.6878 6.7961 8.37432 6.7961 7.98465V4.23452ZM6.57813 10.5793C6.57813 11.0879 6.99064 11.5004 7.49925 11.5004C8.00904 11.5004 8.41921 11.0873 8.42038 10.5793C8.42038 10.0707 8.00816 9.65815 7.49925 9.65815C6.99035 9.65815 6.57813 10.0707 6.57813 10.5793Z" fill="#121212"/>
</svg>
