<?xml version="1.0" standalone="no"?>
<!DOCTYPE svg PUBLIC "-//W3C//DTD SVG 20010904//EN"
 "http://www.w3.org/TR/2001/REC-SVG-20010904/DTD/svg10.dtd">
<svg version="1.0" xmlns="http://www.w3.org/2000/svg"
 width="1250.000000pt" height="1250.000000pt" viewBox="0 0 1250.000000 1250.000000"
 preserveAspectRatio="xMidYMid meet">
<metadata>
Created by potrace 1.11, written by Peter Selinger 2001-2013
</metadata>
<g transform="translate(0.000000,1250.000000) scale(0.100000,-0.100000)"
fill="#000000" stroke="none">
<path d="M1253 6250 l0 -5000 1246 2 1246 3 0 2767 0 2767 26 -42 c14 -23 41
-69 59 -102 48 -88 74 -135 100 -180 12 -22 35 -63 51 -91 65 -120 134 -241
151 -266 11 -16 16 -28 12 -28 -4 0 -1 -8 7 -17 8 -10 20 -28 27 -41 7 -12 67
-120 133 -240 67 -119 125 -221 129 -227 4 -5 25 -44 47 -85 54 -101 92 -168
120 -212 12 -21 23 -39 23 -42 0 -2 34 -63 75 -136 41 -73 75 -134 75 -136 0
-3 10 -21 23 -42 13 -20 40 -66 59 -102 20 -36 66 -119 103 -185 37 -66 80
-142 95 -170 45 -83 99 -179 110 -195 6 -8 13 -22 17 -30 4 -8 42 -76 85 -152
43 -76 78 -140 78 -143 0 -3 11 -22 23 -43 13 -20 39 -64 57 -97 83 -151 274
-492 285 -510 7 -11 12 -22 11 -25 0 -3 9 -19 22 -37 12 -17 22 -36 22 -41 0
-6 3 -12 8 -14 4 -1 16 -21 28 -43 11 -22 76 -139 144 -260 68 -121 132 -235
142 -253 10 -18 36 -66 58 -105 22 -40 45 -79 50 -87 6 -8 15 -27 21 -42 6
-16 15 -28 20 -28 5 0 9 -7 9 -16 0 -36 23 -1 98 151 44 88 102 200 131 249
28 49 51 90 51 91 0 1 25 47 56 101 31 55 77 137 102 184 25 47 51 92 59 101
7 8 13 19 13 23 0 4 23 45 50 92 28 47 50 87 50 89 0 2 20 39 45 81 25 41 45
78 45 80 0 4 103 188 120 214 6 8 13 22 17 30 3 8 15 27 25 42 11 16 16 28 12
28 -4 0 0 8 8 18 9 9 30 44 47 77 18 33 36 67 41 75 18 29 101 177 170 302 35
64 170 304 198 353 12 22 25 48 29 57 3 10 9 18 14 18 5 0 9 5 9 10 0 6 52
104 116 218 64 114 129 230 144 257 15 28 54 97 87 155 33 58 62 112 66 120 4
8 13 24 20 35 7 11 41 72 76 135 36 63 73 131 84 150 11 19 31 55 45 80 14 25
44 79 67 120 23 41 59 107 80 145 21 39 49 87 62 107 13 21 23 42 23 46 0 5 8
20 18 33 10 13 38 60 62 104 40 75 160 288 164 292 1 1 2 -1243 2 -2765 l0
-2767 1247 -3 1247 -2 0 5000 0 5000 -1225 0 -1224 0 -43 -77 c-24 -43 -51
-91 -60 -108 -10 -16 -28 -50 -40 -75 -13 -25 -25 -47 -28 -50 -3 -3 -14 -23
-25 -45 -11 -22 -37 -68 -57 -103 -21 -34 -38 -64 -38 -66 0 -2 -26 -52 -59
-110 -32 -57 -61 -111 -65 -118 -3 -7 -19 -35 -34 -63 -15 -27 -44 -79 -64
-115 -19 -36 -45 -82 -56 -102 -12 -21 -38 -68 -59 -105 -20 -37 -103 -189
-185 -338 -81 -148 -152 -277 -157 -285 -6 -8 -27 -46 -47 -85 -20 -38 -40
-74 -44 -80 -4 -5 -24 -41 -45 -80 -49 -91 -93 -171 -118 -215 -11 -19 -31
-55 -44 -80 -13 -25 -34 -63 -47 -85 -22 -39 -121 -220 -176 -320 -15 -27
-112 -203 -215 -390 -103 -187 -201 -365 -218 -395 -17 -30 -38 -68 -47 -85
-9 -16 -36 -66 -60 -110 -24 -44 -72 -131 -107 -194 -34 -62 -63 -117 -63
-121 0 -5 -3 -10 -8 -12 -4 -2 -15 -19 -24 -38 -10 -19 -34 -64 -54 -100 -72
-130 -192 -346 -224 -407 -19 -34 -37 -60 -42 -57 -6 4 -148 255 -157 279 -2
5 -10 18 -19 28 -8 9 -12 17 -7 17 4 0 3 6 -3 13 -10 12 -165 291 -252 452
-23 44 -46 85 -50 90 -4 6 -24 42 -45 80 -37 67 -58 106 -109 198 -13 23 -38
69 -56 102 -18 33 -44 80 -58 105 -13 25 -58 106 -99 180 -41 74 -78 142 -83
150 -5 8 -33 58 -61 110 -64 118 -105 193 -134 245 -12 22 -38 69 -58 105 -57
106 -89 164 -97 175 -4 6 -24 42 -44 80 -21 39 -47 88 -60 110 -12 22 -39 72
-60 110 -34 61 -129 234 -216 390 -15 28 -44 82 -65 120 -20 39 -40 75 -44 80
-5 6 -26 44 -48 85 -43 79 -69 127 -138 250 -23 41 -61 111 -85 155 -24 44
-52 96 -63 115 -57 100 -285 515 -314 570 -22 42 -36 66 -100 178 l-24 42
-1223 0 -1223 0 0 -5000z"/>
</g>
</svg>
