<svg xmlns="http://www.w3.org/2000/svg" xmlns:xlink="http://www.w3.org/1999/xlink" width="21" height="21" viewBox="0 0 21 21">
    <defs>
        <path id="a" d="M7.945 6.648l-5.797 5.797a.48.48 0 0 1-.351.149.48.48 0 0 1-.352-.149L.148 11.148A.48.48 0 0 1 0 10.797a.48.48 0 0 1 .148-.352l4.149-4.148L.148 2.148A.48.48 0 0 1 0 1.797a.48.48 0 0 1 .148-.352L1.445.148A.48.48 0 0 1 1.797 0a.48.48 0 0 1 .351.148l5.797 5.797a.48.48 0 0 1 .149.352.48.48 0 0 1-.149.351z"/>
    </defs>
    <g fill="none" fill-rule="evenodd" transform="rotate(-90 9 5)">
        <mask id="b" fill="#fff">
            <use xlink:href="#a"/>
        </mask>
        <use fill="#000" fill-opacity=".4" fill-rule="nonzero" xlink:href="#a"/>
        <g fill="#DE1A42" mask="url(#b)">
            <path d="M-6-4h20v20H-6z"/>
        </g>
    </g>
</svg>
