<?xml version="1.0" encoding="UTF-8"?>
<svg width="26px" height="29px" viewBox="0 0 26 29" version="1.1" xmlns="http://www.w3.org/2000/svg" xmlns:xlink="http://www.w3.org/1999/xlink">
    <title>001-up-arrow</title>
    <g id="1.1.0" stroke="none" stroke-width="1" fill="none" fill-rule="evenodd">
        <g id="1.1.0---page-consultation---desktop" transform="translate(-570.000000, -1766.000000)" fill="#253186" fill-rule="nonzero">
            <g id="001-up-arrow" transform="translate(570.000000, 1766.000000)">
                <path d="M25.7530071,12.2358374 L13.3858636,0.175935347 C13.2696199,0.0626363722 13.1126388,0 12.9482404,0 C12.7838419,0 12.6268029,0.0638789333 12.5106172,0.177121428 L0.180502424,12.2358374 C0.00370311572,12.408158 -0.0482182807,12.6671755 0.0469902621,12.8925309 C0.143415713,13.1178298 0.368427747,13.2636613 0.618125623,13.2636613 L8.24523116,13.2636613 L8.24523116,28.325026 C8.24523116,28.6575805 8.52216459,28.9274987 8.86336234,28.9274987 L17.2017464,28.9274987 C17.5429441,28.9274987 17.8198776,28.6575805 17.8198776,28.325026 L17.8198776,13.2636048 L25.3166587,13.2636048 C25.5663566,13.2636048 25.7913686,13.1165873 25.8877941,12.8912884 C25.9842195,12.6659894 25.9298064,12.408158 25.7530071,12.2358374 Z" id="Path"></path>
            </g>
        </g>
    </g>
</svg>