<svg xmlns="http://www.w3.org/2000/svg" viewBox="0 0 16 15"><path fill="#ED1844" d="M11.148 3.538c.604 0 1.094-.489 1.094-1.093S11.148.5 11.148.5s-1.094 1.365-1.094 1.969c0 .604.49 1.069 1.094 1.069zm-3.5 0c.604 0 1.094-.489 1.094-1.093S7.648.5 7.648.5 6.554 1.865 6.554 2.469c0 .604.49 1.069 1.094 1.069zm4.35 3.062.025-1.725a.438.438 0 0 0-.438-.438h-.875a.439.439 0 0 0-.437.438v1.75h-1.75v-1.75a.438.438 0 0 0-.438-.438H7.21a.439.439 0 0 0-.437.438v1.75h-1.75v-1.75a.438.438 0 0 0-.438-.438H3.71a.438.438 0 0 0-.437.438v1.75c-.967 0-1.75.783-1.75 1.725v1.878c.268.167.585.31.875.31.564 0 1.232-.54 1.44-.747a.44.44 0 0 1 .619 0c.186.233.878.747 1.44.747.564 0 1.233-.54 1.442-.747.17-.17.447-.17.618 0 .186.233.878.747 1.44.747.564 0 1.233-.54 1.442-.747.17-.17.447-.17.618 0 .186.233.878.747 1.44.747.291 0 .608-.143.876-.31V8.35c0-.943-.785-1.75-1.775-1.75zm-.85 4.107c-.376.3-1.04.73-1.75.73s-1.374-.43-1.75-.73c-.376.3-1.04.73-1.75.73s-1.374-.43-1.75-.73c-.376.3-1.04.73-1.75.73a2.23 2.23 0 0 1-.875-.202v2.389c0 .485.392.876.875.876h10.5a.875.875 0 0 0 .875-.875v-2.39a2.23 2.23 0 0 1-.875.202c-.711-.024-1.373-.429-1.75-.73zm-7-7.17c.604 0 1.094-.488 1.094-1.092C5.242 1.841 4.148.5 4.148.5S3.054 1.865 3.054 2.469c0 .604.49 1.069 1.094 1.069z"/></svg>