<?xml version="1.0" encoding="utf-8"?>
<!-- Generator: Adobe Illustrator 25.4.1, SVG Export Plug-In . SVG Version: 6.00 Build 0)  -->
<svg version="1.1" id="Calque_1" xmlns="http://www.w3.org/2000/svg" xmlns:xlink="http://www.w3.org/1999/xlink" x="0px" y="0px"
	 viewBox="0 0 20 20" style="enable-background:new 0 0 20 20;" xml:space="preserve">
<style type="text/css">
	.st0{fill:#253186;}
	.st1{fill:#FFFFFF;}
</style>
<g>
	<path class="st0" d="M13.8,16c-1,0-1.7-0.8-1.7-1.8v-1H2.8c-1,0-1.8-0.8-1.8-1.8V5.4C1,4.6,1.6,4,2.4,4c0.4,0,0.7,0.1,1,0.4
		l1.8,1.8c0.2,0.2,0.4,0.6,0.4,1v1.6H12v-1c0-1,0.8-1.8,1.8-1.8c0.4,0,0.9,0.2,1.2,0.5l3.5,3.2C18.8,10,19,10.5,19,11
		s-0.2,1-0.6,1.3l-3.5,3.2C14.6,15.8,14.2,16,13.8,16L13.8,16z"/>
	<path class="st1" d="M2.4,5c0.1,0,0.2,0,0.3,0.1l1.8,1.8c0.1,0.1,0.1,0.2,0.1,0.3v2.6H13v-2C13,7.3,13.4,7,13.8,7
		c0.2,0,0.3,0.1,0.5,0.2l3.5,3.3c0.3,0.3,0.3,0.8,0,1.1l-3.5,3.3c-0.2,0.1-0.3,0.2-0.5,0.2c-0.4,0-0.7-0.3-0.7-0.8v-2H2.8
		c-0.4,0-0.8-0.3-0.8-0.8V5.4C2,5.2,2.2,5,2.4,5 M2.4,3L2.4,3C1.7,3,1.1,3.3,0.7,3.7C0.2,4.2,0,4.8,0,5.4v6.1c0,1.5,1.2,2.8,2.8,2.8
		H11c0,1.5,1.2,2.7,2.7,2.7c0.7,0,1.3-0.2,1.8-0.7l0,0l0,0l3.5-3.3c0.5-0.5,0.9-1.2,0.9-2s-0.3-1.5-0.9-2l-3.5-3.2
		C15.1,5.3,14.5,5,13.8,5c-0.7,0-1.4,0.3-1.9,0.7C11.3,6.3,11,7,11,7.8v0H6.5V7.1c0-0.6-0.3-1.3-0.7-1.7L4,3.7C3.6,3.2,3,3,2.4,3
		L2.4,3z"/>
</g>
</svg>
