<svg width="308px" height="178px" viewBox="0 0 308 178">
    <g stroke="none" stroke-width="1" fill="none" fill-rule="evenodd">
        <g transform="translate(-32.000000, -293.000000)">
            <g transform="translate(20.000000, 52.000000)">
                <g transform="translate(12.000000, 241.000000)">
                    <path d="M118.278608,122.953793 C118.599466,121.959841 119.082533,120.793791 118.47955,119.781677 C117.435649,118.33586 116.640558,115.297321 118.801452,114.621317 C119.0504,117.665998 122.389667,117.090891 123.913937,115.449188 C123.847095,113.135798 125.456226,112.110814 127.635371,112.820234 C128.881905,111.016586 125.865541,107.970264 128.351172,106.710062 C129.088436,105.476014 128.723721,99.0826614 125.595525,101.683488 C124.397412,101.833606 123.54396,103.461516 122.510626,103.334024 C122.205366,101.456116 120.958813,100.14565 118.986255,99.7229189 C117.257264,97.6550267 114.890147,98.9829701 112.959309,98.6893406 C110.856217,100.122175 109.764277,98.4995078 109.402963,96.5234922 C108.099105,94.7333362 108.719282,92.1413432 107.047087,90.5839469 C103.791462,90.4289749 107.59687,86.0648944 104.93342,86.39385 C102.386655,86.7859008 104.333656,83.7128974 104.60261,82.7331977 C105.342389,79.3102907 108.833974,80.9488005 110.890003,78.9722192 C112.502183,77.8287207 114.606765,77.5926038 116.358647,76.6229758 C118.334159,79.0271226 121.733767,75.7289288 123.436649,77.5441884 C124.574816,77.2947558 127.259245,76.6162614 126.573766,78.7883589 C124.551215,81.6990536 129.179791,81.1509682 130.381198,79.7293815 C131.962705,78.7799596 134.505943,78.3361739 134.539609,80.8220693 C136.031754,80.1701244 137.110698,80.8046546 137.766334,81.9673343 C139.340183,81.4173 140.895555,80.6292816 142.355636,81.8545474 C142.812662,80.1314851 144.107178,79.0641902 145.918728,79.9807631 C148.32053,80.3251278 149.028221,78.0235328 148.74394,76.1461713 C151.028422,74.250628 154.386813,74.7728931 156.940902,75.9901431 C157.867798,76.7174804 157.983615,81.8552389 160.674552,79.7922505 C162.528017,78.2994584 164.77572,79.7330279 166.779499,80.0582742 C167.827965,81.7178074 169.873243,83.1953223 171.905677,82.1230544 C174.504623,82.4079074 175.164703,85.7992856 175.349563,88.0748906 C176.665876,88.5430444 177.338234,83.6579373 179.876694,85.7999143 C181.518511,85.8858059 182.9692,82.1014715 184.47317,84.7789098 C185.335525,87.0855469 184.001546,89.2979623 183.377785,91.4646468 C183.044391,94.0551436 185.094297,95.44793 187.32871,93.9714776 C188.750284,92.3744362 190.813461,90.7746977 192.292956,89.7676689 C191.523685,87.1703571 194.77469,86.1471899 194.940343,83.8677813 C195.203022,82.4475274 192.493401,80.9091302 195.127504,80.9835608 C197.559414,81.108758 199.411138,79.5582459 201.72652,79.1978936 C203.554636,79.8307452 204.271858,82.2997477 205.520649,83.3361048 C205.489592,84.8337315 206.636429,87.1760845 207.782297,84.9644864 C210.029026,85.1218474 210.132257,83.0835853 212.143002,83.7936903 C213.491157,85.2581473 214.826934,86.748104 214.842299,88.7383216 C214.43301,89.8903451 214.111265,93.059733 215.996303,91.0191573 C217.272197,88.5947101 223.071382,89.4651937 220.057217,92.4408321 C217.842017,93.5104092 214.753271,92.0649888 213.437059,94.9845418 C212.116446,96.2995027 212.881423,98.0222883 212.132936,99.3246378 C214.680946,99.533589 217.985389,98.3259266 219.895223,100.797129 C221.666857,100.871296 223.609835,100.495673 224.23965,102.71811 C225.863662,104.298956 226.923904,106.598879 227.554643,108.729149 C226.291618,110.084491 223.918465,111.400867 225.718014,113.541347 C225.864518,115.112084 225.405907,117.347271 227.766096,115.882009 C228.70522,115.32858 229.848561,112.423449 229.696167,115.171169 C229.574176,117.052441 231.941387,118.605794 229.030033,119.722152 C227.857413,120.590712 228.095486,124.145657 225.3855,123.65956 C224.019119,124.603286 223.833762,126.260122 225.924243,125.528296 C228.333432,125.824748 230.359661,129.112625 226.664204,128.23583 C224.454951,128.350672 223.514733,130.325091 224.451424,132.344775 C223.284086,134.431956 227.048887,135.439098 225.176373,137.525379 C225.354889,138.651331 226.516626,139.176601 226.231741,140.20156 C228.118879,141.557851 226.759526,143.635878 225.857897,144.886209 C226.13261,146.780086 225.705912,148.488664 226.003426,150.430038 C226.047938,152.315661 222.664651,151.177959 221.773269,152.81374 C222.500242,154.417119 221.121834,156.970554 219.372675,155.486074 C219.924331,153.207941 217.615016,153.332497 216.442434,154.579082 C215.229748,156.050876 213.602454,155.309688 213.599663,153.546585 C212.366608,153.644195 210.546237,152.555123 210.736692,154.725114 C209.649857,155.961401 210.085143,158.404608 208.795971,159.187339 C207.512589,159.901839 206.189493,159.54976 205.157424,158.985184 C203.535958,159.976703 201.775099,159.588915 201.241008,157.641605 C200.429898,158.098983 198.976304,158.992357 198.834063,160.133046 C198.619862,160.078161 198.364231,160.142162 198.138758,160.351603 C197.476207,161.304194 196.232458,160.359085 196.465978,159.391016 C196.503699,158.491185 197.177749,157.642303 196.409333,156.855341 C196.023563,156.05632 196.112095,154.565282 197.329917,154.850393 C198.146465,154.835556 198.967358,155.986699 199.664273,155.042231 C200.704063,154.552677 201.727809,155.053736 202.727802,155.248523 C203.41965,154.804958 204.085451,154.170861 205.002967,154.79444 C206.630148,154.632766 205.702881,154.363039 204.685253,154.10527 C203.857922,153.028614 202.980253,154.700759 201.97147,154.468087 C200.874633,154.237823 199.577483,154.229958 198.846775,153.261688 C198.042637,152.596886 196.939306,152.697081 196.055035,152.349855 C195.106575,150.822705 192.919043,151.326971 191.933352,152.542907 C190.446155,152.838083 188.548286,151.838008 187.387033,153.194946 C186.882749,154.078827 184.9767,153.19809 186.490195,153.013601 C187.588987,152.911615 186.932195,151.413416 188.145516,151.436118 C189.057003,151.109325 189.741803,150.29526 189.926543,149.339174 C189.212214,149.74747 188.350494,150.497289 187.373598,150.400748 C187.031723,149.785808 184.847429,150.35303 185.619504,150.68518 C186.685686,150.628472 186.751856,152.521689 185.600203,152.30039 C184.572472,152.534508 183.754087,151.962281 182.87809,151.561453 C183.469486,152.625027 183.047289,153.788392 182.277195,154.609743 C181.698926,155.313146 180.757149,154.262417 180.062114,154.11536 C179.134985,153.422406 178.02714,153.936008 177.098616,154.257243 C175.937111,154.316969 174.564531,154.194563 173.876543,155.320382 C173.24952,156.204704 172.198062,155.294732 171.370492,155.217774 C170.564298,154.8612 169.359704,154.650356 169.453636,153.484785 C169.408622,151.851336 168.070815,150.584589 166.712084,149.853599 C165.261006,149.977036 166.090625,149.155458 165.244999,149.0379 C164.112491,149.079959 164.025474,147.621745 164.8149,147.15493 C165.584882,147.162411 166.343433,147.525631 167.197288,147.166687 C167.719402,147.698765 169.082609,147.831501 168.896039,148.873648 C169.120569,150.293732 169.51301,148.054843 170.54447,148.792509 C171.641621,149.473022 172.030365,149.217095 171.826374,147.867726 C172.833,147.05212 172.475446,149.057062 173.127347,149.185667 C173.318236,148.164203 174.679223,147.953674 174.700932,149.168189 C175.496111,149.112299 176.177296,149.795496 176.999666,149.421249 C178.248143,150.172596 177.67232,148.362083 178.721804,148.292393 C178.367959,147.380988 178.692696,146.716193 179.440296,146.20139 C179.515638,144.741007 180.063484,145.796181 180.531732,144.737122 C181.128384,144.14218 181.957135,143.784261 181.665625,142.67976 C182.303235,141.875081 181.749794,141.077683 181.270361,140.400993 C181.376905,139.625969 179.99343,138.454972 179.945347,139.655342 C180.662632,140.069365 181.086186,140.924182 180.842066,141.765658 C180.568888,141.488544 178.715737,141.762515 180.000402,142.486363 C181.062925,143.079204 179.301387,144.098952 179.314778,143.827389 C179.834371,142.946167 178.196647,142.786493 177.626401,142.611874 C176.843481,141.878244 175.956318,141.287734 175.014811,140.783601 C175.141964,139.665457 176.449827,140.966644 177.096635,141.030255 C178.440396,141.658605 177.561218,140.798274 176.969024,140.231045 C176.584391,139.171351 176.56003,138.484464 175.65642,139.366528 C175.017376,139.549672 173.800698,137.908546 174.047623,139.130317 C175.232294,139.718035 174.448903,140.798595 173.369197,140.589002 C172.450638,139.857252 171.540283,141.216265 170.55898,140.66244 C169.473365,140.302112 168.938117,140.232799 168.771238,141.362278 C168.446054,141.871554 168.994643,143.485086 167.658992,142.808139 C166.279427,141.873246 166.732379,143.540556 166.464708,144.199963 C165.599731,144.957773 165.008373,143.797432 164.354096,143.482672 C163.56135,144.856139 164.409169,143.147895 164.039192,142.517766 C163.156449,142.453061 162.786194,142.803291 162.415531,143.325676 C162.337411,142.257633 161.56951,141.02332 162.194421,140.032411 C163.675696,139.268408 161.370687,139.936159 161.347658,139.060671 C160.684724,138.509794 160.558791,137.659133 160.213225,136.925527 C159.175447,136.185076 159.559677,138.142828 160.072657,138.489104 C160.199275,139.285817 161.156071,139.651683 160.988984,140.598219 C160.646342,141.524562 160.115904,142.293399 160.642243,143.296347 C160.208058,144.357022 161.758878,144.648671 161.905136,145.600784 C162.138933,146.199221 163.348475,147.277103 162.404856,147.656643 C161.510841,147.695056 161.348582,145.795188 160.698435,147.111462 C159.426967,147.511322 160.530393,145.883852 159.883333,145.370143 C159.258925,145.198611 158.453448,143.489934 158.165338,144.313913 C158.416185,144.957213 159.164961,146.378517 157.802647,146.107583 C156.610601,145.194135 157.333701,143.280938 156.537057,142.149926 C155.380488,142.418602 156.214803,143.981877 156.129094,144.812433 C156.786666,146.090867 155.586133,145.763847 154.912856,145.201755 C153.930064,144.619871 153.639647,146.25437 152.567643,145.797904 C151.649498,145.941213 150.464789,146.570142 149.778656,145.574819 C150.263005,145.100706 151.38216,144.473267 149.772118,144.17772 C149.212835,143.978796 148.361539,142.306224 148.058498,143.514886 C147.58905,144.550577 148.580506,145.115002 148.496576,145.850085 C147.87929,147.570639 147.839174,149.481182 147.924349,151.297976 C148.274007,152.177651 148.729122,153.10024 148.430431,154.10141 C148.860958,154.77043 149.357742,155.57448 150.19041,155.843999 C150.245232,156.670481 151.55527,157.401911 150.156649,157.223885 C149.170279,157.775271 148.766504,156.045469 147.881541,156.71349 C147.032012,157.175262 147.316531,155.413089 147.100859,154.891333 C146.893386,153.636701 146.42598,152.382535 146.262665,151.163411 C146.79768,150.557185 147.488019,149.877162 147.464211,148.924761 C147.875902,146.850638 147.817566,144.615716 146.712612,142.750815 C146.499612,141.88372 145.94773,141.313221 145.163552,140.9166 C144.172549,140.201114 142.82186,139.573178 142.410728,138.388369 C142.718006,137.54534 142.971387,136.6684 142.585774,135.77947 C142.491219,134.790541 143.689414,134.379284 144.19151,133.71293 C145.00257,133.307965 146.08496,133.923396 146.626375,132.973515 C147.334141,132.498823 147.99849,131.487846 148.969608,132.023175 C149.760902,131.876571 148.348393,130.539726 149.089002,129.791667 C149.318744,128.790447 148.873569,127.909753 148.114565,128.985202 C146.949251,129.395234 147.473107,127.720788 147.446746,127.077406 C148.204241,125.846369 146.707746,125.738197 146.776412,127.059363 C146.18169,127.920586 145.351814,126.669827 144.656986,126.519765 C143.833119,125.541002 143.10025,127.405186 144.373994,127.363774 C145.819508,127.409857 145.222178,129.039917 145.456371,129.935127 C146.106845,131.18742 145.015911,131.256061 144.08242,130.963953 C143.13765,131.188024 144.257321,133.093897 142.852514,132.417005 C141.532945,131.729999 143.28267,133.139961 143.014911,133.784902 C142.534693,134.339035 141.343779,134.524568 141.844618,135.568935 C142.152927,136.366861 141.521861,137.787455 140.641935,136.823485 C139.968464,135.461517 138.884232,134.362234 137.447318,133.830187 C136.292408,133.232623 135.078214,132.64659 133.949678,131.997053 C133.11171,132.197649 132.053349,131.752833 131.33035,132.29504 C130.307522,131.866801 132.355554,131.461875 132.98921,131.740862 C133.871337,131.212071 134.547003,131.920485 135.286335,132.289281 C136.095597,133.301383 136.927976,132.408952 135.933093,131.600174 C135.095233,131.05361 134.22871,130.464195 133.185789,130.449427 C132.39552,129.69647 131.364437,131.303659 130.973889,130.328832 C131.369593,129.837825 132.700931,129.433106 132.015728,128.375518 C131.889406,127.292399 133.469818,127.97349 133.848327,127.121804 C134.741519,126.338645 135.430161,125.346535 135.435706,124.111588 C135.53827,123.346215 137.158869,122.835543 136.668434,122.382798 C135.505704,122.490719 135.364758,124.317402 134.057014,124.097499 C133.519642,124.319778 133.815698,125.925967 132.635811,125.640989 C131.849251,125.915562 131.231287,126.543718 130.968067,127.337331 C130.08892,127.919033 128.777631,126.350452 128.140649,127.451212 C128.773136,127.46102 129.901244,127.655536 130.025115,128.654738 C130.65007,129.975885 128.845523,131.152195 127.659393,130.846488 C126.596839,130.756385 125.478494,130.440801 124.526608,131.116831 C123.492426,131.57729 123.129257,130.501231 122.49125,130.02095 C121.750365,129.618494 121.690997,128.676528 121.001017,128.183145 C120.486988,126.773095 120.305938,125.015543 118.924222,124.156992 C118.721086,123.679049 118.517925,123.138031 118.278766,122.953818 L118.278608,122.953793 Z M167.009021,171.54463 C168.089059,171.432962 168.84907,172.005988 167.423723,172.306778 C166.516015,172.851443 165.425251,171.442525 167.009021,171.54463 Z M158.982157,165.5118 C159.712279,166.100762 160.587648,166.270792 161.498342,166.041672 C160.773306,166.671242 160.679625,167.110564 159.45859,166.538437 C158.58944,166.652865 157.731989,164.974207 158.865541,165.352427 L158.967904,165.492329 L158.982176,165.511819 L158.982157,165.5118 Z M139.439855,166.70736 C140.255548,167.142143 141.048527,167.238496 141.603585,167.863879 C142.590785,167.774737 143.010919,168.991069 144.058813,168.810132 C144.925556,168.862627 145.934929,169.283736 145.745801,170.336389 C146.390296,170.886926 146.086947,172.343192 147.041228,172.430523 C148.399261,172.273753 148.381079,174.305816 149.745304,174.229386 C150.624803,174.398315 151.84729,173.902725 152.513401,174.523292 C152.520485,175.32369 152.065628,176.169321 151.389887,176.678459 C151.355623,177.59578 150.59555,178.460417 149.762467,177.632829 C149.030547,177.086095 147.952005,176.351358 147.195176,177.301271 C146.424295,177.043049 145.673671,176.63132 144.902036,176.272206 C144.155027,176.106641 143.374679,176.535784 142.511658,176.247625 C141.583303,176.69197 140.504396,176.263279 140.067947,175.370018 C139.198922,175.003064 138.821463,174.23336 139.311628,173.406872 C139.285537,172.231279 138.046471,171.453055 138.258981,170.238766 C137.562896,169.669343 137.34215,168.686418 137.676299,167.859585 C138.816541,168.393644 137.643418,165.949965 138.611902,166.053051 C139.032923,166.105987 138.972538,166.631043 139.439855,166.707366 L139.439855,166.70736 Z M170.409245,143.398296 C171.672087,144.094695 171.111504,144.298586 169.908783,144.247461 C168.884415,144.776258 170.033766,145.8474 169.219789,146.449314 C168.81138,147.706454 168.847907,145.502627 169.052985,145.025627 C169.036011,144.062494 169.489478,143.124149 170.220342,142.507864 C170.725375,142.612044 169.707608,143.222791 170.409245,143.398296 L170.409245,143.398296 Z M173.884987,143.014412 C174.415186,143.480176 175.139392,145.005824 174.088343,143.923849 C173.352392,143.50352 172.688257,145.564427 172.608401,144.577598 C172.213326,143.173728 173.263131,143.652368 173.430966,142.601702 C173.542282,142.226374 173.689005,143.027111 173.884987,143.014412 Z M147.65857,130.562692 C148.814655,131.130618 147.344087,131.95991 146.622703,131.98436 C146.345313,131.847262 147.558671,130.728641 147.349676,130.108438 C147.559771,130.027897 147.53712,130.470708 147.65857,130.562692 L147.65857,130.562692 Z M120.640803,136.468721 C122.13743,136.028551 123.0376,137.894659 124.569019,137.578818 C125.580568,137.462447 126.508797,138.852109 125.798925,139.733746 C124.961636,139.490185 124.056826,139.09533 123.058963,139.462963 C121.600598,139.521557 120.490408,138.24819 119.511513,137.300031 C118.949867,136.312656 119.91471,136.235025 120.640803,136.468721 Z" id="path_dep_56" fill-opacity="0.05" fill="#253186" fill-rule="nonzero"></path>
                    <path d="M212.143002,83.7936903 C213.491157,85.2581473 214.826934,86.748104 214.842299,88.7383216 C214.43301,89.8903451 214.111265,93.059733 215.996303,91.0191573 C217.272197,88.5947101 223.071382,89.4651937 220.057217,92.4408321 C217.842017,93.5104092 214.753271,92.0649888 213.437059,94.9845418 C212.116446,96.2995027 212.881423,98.0222883 212.132936,99.3246378 C214.680946,99.533589 217.985389,98.3259266 219.895223,100.797129 C221.666857,100.871296 223.609835,100.495673 224.23965,102.71811 C225.863662,104.298956 226.923904,106.598879 227.554643,108.729149 C226.291618,110.084491 223.918465,111.400867 225.718014,113.541347 C225.864518,115.112084 225.405907,117.347271 227.766096,115.882009 C228.70522,115.32858 229.848561,112.423449 229.696167,115.171169 C229.574176,117.052441 231.941387,118.605794 229.030033,119.722152 C227.857413,120.590712 228.095486,124.145657 225.3855,123.65956 C224.019119,124.603286 223.833762,126.260122 225.924243,125.528296 C228.333432,125.824748 230.359661,129.112625 226.664204,128.23583 C224.454951,128.350672 223.514733,130.325091 224.451424,132.344775 C223.284086,134.431956 227.048887,135.439098 225.176373,137.525379 C225.354889,138.651331 226.516626,139.176601 226.231741,140.20156 C226.557811,138.551639 228.184917,137.912029 229.491849,137.82053 C229.984528,136.471532 231.141851,135.615099 232.535122,136.169075 C233.814996,136.011431 234.979386,132.480516 235.858017,133.885951 C235.458164,135.558404 236.973859,136.378416 237.829883,134.746351 C238.859909,133.379592 240.708106,133.475549 242.232496,133.124005 C243.582645,132.807352 244.124638,131.056754 245.776746,131.813841 C247.42055,131.222439 249.182459,133.059709 251.095052,132.573637 C252.568317,130.676579 254.92479,133.94711 256.182138,131.559907 C257.479741,130.475794 259.407832,132.175695 260.34258,130.228669 C261.446766,129.289495 260.993286,126.932625 262.018472,125.698841 C264.115736,125.262712 264.62312,123.374569 266.846953,123.274349 C268.645539,123.353319 269.807094,122.406443 271.03886,121.266415 C273.289406,122.266208 274.587285,119.414214 272.842024,117.954409 C274.406688,116.644893 277.110235,118.268458 279.147529,118.162606 C281.141676,118.930374 281.205941,122.07855 283.938176,121.878809 C286.168823,122.507832 288.390675,123.167994 290.62671,123.777886 C291.171797,122.607479 291.040564,121.289545 291.175839,120.042344 C291.909809,118.868241 293.182227,118.376574 292.80717,116.705687 C291.920063,114.826691 293.80871,114.737473 294.706259,113.613496 C294.331478,112.486607 293.807132,111.206432 295.276241,110.514785 C295.698369,109.246875 296.785467,107.727081 296.526862,106.284716 C296.897512,104.420928 296.941772,102.151597 299.235955,101.57888 C299.637612,100.034152 300.838139,99.5480426 302.466854,100.195763 C304.249227,101.109412 308.023999,99.7958658 307.524681,97.3872615 C306.889836,95.8252884 306.256425,94.2156292 306.574932,92.4755986 C308.185993,90.5769622 305.024344,90.0986488 305.173513,88.2020934 C304.663873,86.1738212 304.345177,84.08991 304.208079,82.0407275 C302.944683,80.3466479 302.697526,78.3230091 302.883379,76.2702494 C302.1584,74.771139 302.724994,72.8573198 301.582256,71.3052234 C300.681796,69.6662358 301.53699,67.98197 301.952058,66.3929506 C302.464188,64.4102836 305.411806,63.4905358 304.808477,61.2343447 C304.229586,59.4175826 303.615118,57.3536762 304.3651,55.5828713 C304.155275,53.8440792 302.418243,52.794551 302.487041,51.0143409 C301.551174,49.232075 304.02066,48.3604596 303.514452,46.6263576 C302.613571,45.099434 302.371733,43.2703872 303.125676,41.5886299 C302.41134,41.4497083 301.680539,41.361937 300.99511,41.1055573 C299.788133,39.9973472 298.545195,40.1610957 297.011563,40.4048199 C296.104345,38.767404 293.499043,40.0067902 293.038087,38.0843327 C291.442919,39.2715754 289.703461,36.9280907 288.496798,38.4517326 C288.162712,40.2627234 287.645389,41.9793668 285.687511,42.6597284 C284.455795,42.1026339 284.141066,43.9740418 283.148799,43.9228539 C282.307443,45.1193886 282.117057,46.6988141 280.556693,47.2796416 C279.073074,47.2375822 276.928978,47.387443 275.931908,46.2395312 C276.050353,43.3063042 272.463251,45.1485786 271.658446,43.1815093 C271.492894,41.2917186 270.049529,40.0430718 269.45758,38.3256929 C267.785655,37.1141326 269.926777,35.5884789 268.994179,34.1170685 C267.432275,33.8387728 268.249364,32.290197 267.964448,31.2099699 C266.254696,30.4743025 265.558686,28.7448842 265.198962,26.9843269 C265.094474,26.9930028 264.994361,27.0051994 264.89533,27.0228655 C264.499224,27.0935617 264.120395,27.2522744 263.769448,27.5498458 C262.744344,29.1266748 260.857257,29.8407091 259.055332,29.9639762 C257.182849,29.9932732 255.330597,30.3434784 253.466513,30.3057948 C252.314333,30.2353438 251.43064,29.9208293 251.148101,31.0184145 C249.871484,30.0274865 248.272625,30.540384 246.813179,30.2993822 C244.986993,29.9755378 244.678646,27.9596382 243.891533,26.6201584 C242.973866,25.6428918 244.271286,24.5340216 244.167873,23.4145643 C244.935553,22.9547281 246.329773,22.3706691 245.706384,21.2143643 C244.994581,20.7640591 245.612853,18.8648317 244.738,19.5414652 C243.884523,20.3526509 242.621976,20.3353053 241.719988,21.0448319 C240.879179,20.6381891 239.940231,20.9048038 239.142342,20.4151552 C238.334935,21.0041619 237.39859,20.8022645 238.427509,21.6005055 C237.977801,22.4942884 236.804704,21.1840929 236.027902,21.6291737 C234.734876,21.5622183 234.433576,22.1919012 234.94846,23.289543 C234.617273,24.9192512 232.761589,24.7542704 231.593848,25.403996 C231.881662,26.3896996 232.064227,26.8654857 232.144781,27.6535544 C232.793306,28.272996 232.298269,29.3917052 233.27922,29.7886976 C233.166339,30.8004289 233.505951,31.3905547 234.151112,32.1367276 C234.685379,32.1454035 235.889445,31.7879935 236.369796,32.689943 C236.337167,33.3919002 238.131925,34.5116278 236.715455,34.479659 C236.150351,34.1614351 234.846386,32.7344291 235.167892,34.279063 C235.673748,34.9779269 235.45951,36.0967304 235.982158,36.6503042 C237.167508,36.2339985 237.207556,37.5289546 236.487518,38.1546831 C236.555951,38.607742 236.860771,38.5245663 237.338179,38.5309915 C238.472127,37.7601615 239.324599,37.047372 239.61533,38.4725234 C240.832838,40.6841592 239.383671,42.5549573 240.211133,44.86873 C238.351098,45.3818916 239.951591,47.8386158 238.499331,48.5390578 C235.883259,49.8418096 239.572416,53.2256624 238.441303,55.4965711 C236.517355,57.0917641 239.957312,59.2877959 238.148591,60.3391724 C234.981202,59.6362785 237.658628,62.6336381 236.811569,64.148711 C237.139217,66.4260449 235.370519,65.3447553 234.204104,65.6943256 C233.52832,67.6193669 231.732518,67.8768908 230.581444,66.2318363 C228.221286,64.3715814 227.88517,68.1254747 225.724389,68.4295844 C226.75903,71.7725158 223.340398,69.0032511 221.826526,69.8070937 C218.476748,70.5000794 220.686447,74.1629195 218.908262,75.4907057 C217.581104,74.3602652 216.469254,75.3259136 217.111775,76.9271861 C217.894468,79.1710423 215.263333,80.4377513 215.338675,82.2403428 C215.356718,82.4685885 211.689396,81.4123522 212.143008,83.7937217 L212.143002,83.7936903 Z M233.627866,35.4519841 C232.828016,35.3204119 232.157103,35.76482 231.651298,36.9588022 C230.29617,39.0427323 229.821081,36.6160847 230.059418,35.4272137 C228.104237,35.0544259 226.073368,34.7810591 224.965774,32.7685041 C224.451336,32.1615923 224.226316,31.3283459 224.434456,30.5608416 C223.935578,29.6353853 222.848794,28.9078845 222.840508,27.7502343 C223.676426,27.5357631 224.441497,27.1196523 225.314603,27.008412 C225.956595,26.0270212 226.394409,26.9193266 227.323203,27.0233119 C228.269413,26.9611345 229.387927,26.2961695 230.283105,26.8225902 C229.938854,28.0856654 230.568443,28.3989414 231.644879,28.4911136 C232.227504,29.3118616 231.168401,30.4718694 232.143763,31.1768946 C232.359806,31.9725264 232.262227,33.329201 233.441076,33.4004818 C234.437455,33.8691636 232.634788,34.7996934 233.627866,35.4519463 L233.627866,35.4519841 Z" id="path_dep_35" fill-opacity="0.05" fill="#253186" fill-rule="nonzero"></path>
                    <path d="M112.341308,20.9109775 C111.851483,21.5573082 111.127673,22.14441 110.735886,22.8569857 C110.075774,24.6516557 110.220373,27.3688083 111.558344,28.8947323 C110.885992,32.496577 116.509551,30.3525064 115.526972,33.8058546 C113.731542,35.2799683 116.595839,34.6250749 117.357503,35.9028488 C119.769615,36.860953 117.941863,38.2515767 116.670219,39.4194683 C114.116054,41.1078332 113.187706,44.719894 116.485435,46.2706324 C118.640111,46.802617 117.579166,48.0661135 116.113137,48.4693047 C113.826581,49.3565366 114.579128,52.0862002 113.658255,53.832197 C115.598894,54.640673 118.758921,54.8991462 117.148533,57.7460289 C117.812404,59.0130648 116.63727,61.9535971 118.484693,62.0588649 C121.551686,61.0072117 117.358043,63.8590988 117.788966,64.7037307 C120.102978,64.843589 119.991454,67.3655838 119.308874,68.768643 C116.621628,69.8915456 116.539716,73.2580088 119.074574,74.5229198 C121.399172,77.3489865 116.421308,74.7012916 116.358647,76.6229758 C114.606765,77.5926038 112.502183,77.8287207 110.890003,78.9722192 C108.833974,80.9488005 105.342389,79.3102907 104.60261,82.7331977 C104.333656,83.7128974 102.386655,86.7859008 104.93342,86.39385 C107.59687,86.0648944 103.791462,90.4289749 107.047087,90.5839469 C108.719282,92.1413432 108.099105,94.7333362 109.402963,96.5234922 C109.764277,98.4995078 110.856217,100.122175 112.959309,98.6893406 C114.890147,98.9829701 117.257264,97.6550267 118.986255,99.7229189 C120.958813,100.14565 122.205366,101.456116 122.510626,103.334024 C123.54396,103.461516 124.397412,101.833606 125.595525,101.683488 C128.723721,99.0826614 129.088436,105.476014 128.351172,106.710062 C125.865541,107.970264 128.881905,111.016586 127.635371,112.820234 C125.456226,112.110814 123.847089,113.135798 123.913937,115.449188 C122.389667,117.090891 119.0504,117.665998 118.801452,114.621317 C116.640558,115.297321 117.435649,118.33586 118.47955,119.781677 C119.082533,120.793791 118.565876,121.834807 118.278608,122.953793 C118.073046,122.89457 117.764321,122.942162 117.282896,123.391286 C116.153216,123.669242 115.340899,122.535922 114.167374,122.656731 C112.637747,122.456173 110.841053,122.7292 109.547109,121.778005 C109.264362,120.760936 107.991555,121.216057 107.230388,121.230781 C106.213118,121.578308 105.599906,120.325084 104.824066,119.86235 C103.674381,119.617815 104.818407,117.663892 103.580725,118.521204 C102.601692,118.394831 102.032778,119.049435 101.384354,119.620015 C99.8987224,120.603009 97.7757696,120.363535 96.3662537,119.316754 C95.3595267,118.744728 94.7890411,119.898047 94.0318411,120.089395 C93.9795341,119.228493 94.1699579,118.238464 93.1819533,117.779388 C92.3895654,116.867361 91.3917407,116.079185 90.8093352,115.031065 C90.6595499,114.233994 91.5553886,113.282063 90.1399002,113.418615 C88.5498246,112.969516 90.4086964,112.540555 89.7962144,111.983077 C89.5915256,110.90451 88.1775084,111.279951 87.8989674,110.248887 C87.7852752,109.327216 86.6545014,109.208462 86.6160508,108.260612 C85.9017651,108.475643 85.1043414,107.516181 84.4473859,107.881487 C83.0344185,108.367986 84.2502603,108.410926 84.0947099,109.517086 C83.6487992,110.43386 84.5692511,111.510139 84.0100945,112.317282 C82.8976345,112.74415 81.7840303,113.125513 80.6323337,113.409624 C81.1924019,112.936674 82.7660435,113.156193 82.4405206,112.078669 C81.7374192,112.089231 80.9128928,112.263938 80.2714345,112.014505 C80.0784267,113.049039 79.0919687,113.49175 79.1352603,112.103672 C78.8643956,111.276663 77.9676642,110.318854 77.0582898,110.970981 C76.1541649,111.600142 75.5406959,110.662948 74.9036572,110.17765 C74.6567331,109.2819 74.9055433,109.042375 73.707154,108.636807 C73.5168245,107.680118 72.5268709,107.01333 72.693612,105.903774 C73.0471682,104.368552 71.9477346,105.309103 72.0104464,106.319539 C71.7168735,107.518237 72.8487663,108.127783 73.4113869,108.95014 C73.1634129,109.906987 74.456596,110.459693 74.1436155,111.267352 C73.3451356,111.403438 72.4908281,111.49126 72.0464892,112.37978 C70.9889263,113.14687 71.206038,111.619864 70.348103,111.32235 C69.9407561,110.709861 70.1744652,109.150045 69.0195498,109.553374 C68.6952025,110.378064 67.9878449,111.327304 68.4362893,112.246291 C68.3299841,113.306676 70.2897229,112.884147 69.0937289,113.66264 C68.5744438,115.034416 71.1015687,113.70646 70.9093594,115.027834 C70.5312466,116.264598 69.5394824,117.180681 68.7604856,118.190488 C67.7889213,118.158865 66.9773207,118.485897 66.1187255,118.765412 C65.1169463,118.694716 64.1551769,118.729514 63.2052457,119.081392 C62.2593382,119.308562 61.5370052,118.298994 60.6627934,118.705448 C59.8871539,118.310511 59.1137965,117.664979 58.2063961,118.127406 C57.3369247,117.973666 56.5449518,117.616017 55.6367153,117.949964 C54.2556099,118.125318 55.0367693,116.695791 54.6135292,116.024527 C54.0368951,114.853127 55.5396833,114.49915 56.3573005,114.284163 C57.2446896,112.811778 56.5269084,110.956282 56.0806645,109.439317 C55.6681812,108.147134 55.3979767,106.830871 54.5353202,105.734971 C53.821418,104.344372 53.4340069,102.775817 52.3348688,101.617966 C51.4085197,99.5007274 49.461468,98.0614557 47.7372741,96.6043669 C46.7913917,95.7622937 46.0348014,94.4663255 44.5978307,94.5131314 C43.2191709,94.6926034 44.1564654,92.8062705 43.264053,92.9806816 C42.0059885,93.3177912 41.6490499,95.2604359 40.1475756,94.8050006 C39.1000341,94.7640729 39.0434395,93.7107788 38.4720423,93.155671 C37.6630395,92.6415538 36.2292707,93.164347 35.9392436,91.9721251 C35.3026582,91.5040656 34.3296095,92.5715304 33.5188293,91.9823727 C32.5960676,91.4684378 31.0471876,92.0465745 30.6134439,90.8216168 C30.0261196,90.8286581 27.8546979,90.4957418 29.2063881,90.0219298 C30.4064001,89.9008254 30.0510458,88.7461425 29.9248766,87.9309207 C29.8999554,86.6736232 31.3719768,87.5045622 32.0847851,87.5232532 C33.1345881,88.0829881 33.3600412,86.3005713 34.4031913,86.8106398 C35.4434174,87.0349059 36.5869668,86.9929032 37.6520186,86.8284317 C38.6268949,86.37106 39.7102277,85.745891 40.7740146,86.3815968 C41.6690549,86.7142868 42.519125,86.385369 43.1560441,85.7438289 C44.5953725,84.633343 46.5374828,86.2011566 47.8900645,84.9425137 C48.8799363,83.8056605 50.644819,84.7893209 51.8020983,83.8962295 C53.2034978,83.5748182 54.7044629,83.7495122 56.0702785,83.2021499 C57.495782,82.5558632 58.1078868,84.5403912 59.4659067,84.3329236 C60.1218877,84.6004374 61.3072066,85.5768552 61.7086375,84.3138743 C62.002311,83.47629 62.5855401,82.6675625 62.300291,81.7582321 C62.9064484,80.7487452 63.2662035,79.1753488 62.6654968,78.0748087 C61.707575,77.8737412 61.1731888,77.1824781 61.3861763,76.1453602 C61.481033,74.6153749 60.6047402,72.7962614 59.1032722,72.2892861 C58.0503114,72.1370112 56.3922619,73.2318616 55.9765409,71.693194 C55.8967539,70.6459794 55.0359772,70.2268446 54.1468843,70.7422066 C53.383806,70.6140546 52.9453704,69.7885914 52.1335372,69.6843483 C51.7706261,68.5382283 51.2158452,68.8144493 50.2682591,68.794589 C49.2000714,68.1183327 47.4267768,68.2611836 46.7820682,69.401482 C47.1141609,70.5042036 45.9912458,71.2919014 45.8001933,72.3352873 C45.283687,73.6502168 43.7789876,74.2320817 43.4047915,75.6508015 C42.6246505,76.5586608 41.3733758,75.4982626 42.3791346,74.6506381 C43.1141043,73.3708334 42.7900588,71.893023 42.135662,70.6698319 C41.8833123,69.9168063 41.1098417,68.5949486 42.3691259,68.3722919 C43.589752,68.0715834 43.4993716,66.147441 42.1907667,66.0999435 C41.2294813,65.9648507 40.3211066,67.0042381 39.3669443,66.2726509 C38.8919693,65.7238677 38.1354419,64.7495874 37.5072426,65.7959029 C37.5526718,65.0721492 37.6749217,64.0986547 37.439358,63.3986905 C37.9876558,62.6017195 38.9857321,62.7817511 39.531202,63.4872666 C40.8743409,64.2719404 41.7085554,62.2106809 41.0453004,61.2098195 C40.726121,60.242788 40.3848808,58.911324 41.5185151,58.3268061 C42.2677057,57.6541019 43.2997752,56.9335292 44.3119969,57.0143159 C44.9637595,57.7170526 43.514064,58.4219457 43.5614798,59.2253796 C44.0754713,60.2436556 42.2087912,60.88551 43.1843352,61.7482231 C43.5445618,62.3858589 44.6782338,63.5784769 45.0940554,62.3990614 C45.2684099,61.1717964 46.4739851,62.274386 46.3898727,62.9890364 C46.8725303,63.5200402 48.0716992,62.7410874 48.8351108,62.7410686 C49.9495826,62.0331326 51.4120467,62.14067 52.6826725,62.2498608 C52.9794705,63.1249025 53.2717106,64.2388713 54.4178181,64.2301514 C55.6964722,64.2770517 56.9332053,63.8624874 58.0368951,63.2214755 C59.373615,63.1421349 60.4642092,62.1179429 61.8468549,62.4373172 C62.4923117,62.6113951 64.2058933,62.3912342 64.0727243,63.1081856 C63.1234909,62.8369186 61.8616228,63.9038804 63.4515663,63.894142 C64.5955048,64.6733399 65.5617316,63.3511239 66.4983535,62.8614186 C67.5273486,63.0066711 68.616698,63.4429314 69.584308,62.7907916 C70.9362987,62.3682871 68.7804214,62.3997278 68.3016931,62.4165201 C67.5502078,62.4948863 66.232028,62.1682129 66.3859815,61.6676313 C67.1314565,60.4262396 66.1222776,61.0653152 65.5391491,61.6603385 C64.7819113,61.6590812 64.4197232,60.6675307 63.5846348,60.5988778 C63.6944228,58.7931177 62.7435046,60.6100056 61.9746424,60.3430577 C61.6021752,59.3901151 59.6551737,60.554134 59.9804954,59.5989595 C60.4344533,58.8403386 61.647818,58.7514922 61.2536359,57.8873834 C61.8703993,57.7616015 63.5386838,57.6012668 62.9293516,56.643257 C62.9421768,55.8372454 65.1458597,55.8309334 63.4168438,55.9245264 C62.3849189,55.3959367 61.8437743,56.2355014 61.3713518,56.9156996 C60.3618083,57.5266979 59.5530619,56.6957777 60.4793732,55.8483103 C59.8047327,55.791854 59.3741431,57.3477225 58.332241,56.7866485 C57.2176434,56.1959883 56.9695876,57.7383966 56.5396393,58.3725307 C55.8812315,59.0810073 54.769922,58.7631355 53.9323,58.8666178 C52.8803513,58.3920326 55.6321824,57.3136539 53.8251398,57.4362986 C52.7508413,57.7846304 51.7101462,58.257273 50.647076,58.5754717 C49.6994521,58.0145045 51.7629184,57.550959 51.3163287,56.6449481 C51.1065916,55.4037388 52.018267,54.3815083 53.1237988,54.0149382 C53.8752841,53.3906054 54.2506244,52.318721 55.3750358,52.2041675 C57.3235902,51.286727 59.5607445,50.8761424 61.2941676,49.5391961 C61.8136475,49.4263589 63.2922815,48.1308496 62.2751434,48.1997854 C60.3280225,49.0689174 58.4345225,50.1595619 56.2952048,50.5141743 C55.1540514,51.1773916 53.8151059,51.0954104 52.5600905,51.2347029 C51.2937965,51.8028309 49.8810869,51.9392062 48.6476418,52.595948 C46.6905247,53.1035206 45.2831338,54.8757841 43.1787587,54.8987627 C41.3138766,55.3505956 39.6766117,56.9392629 37.6518809,56.5752642 C37.1344008,55.8881756 36.5299119,55.5222468 35.6545503,55.4573848 C34.74951,54.9238222 33.6261127,54.2922972 32.6390624,55.0710048 C32.0576553,55.7012913 32.8450677,57.006891 31.6508321,57.2572415 C30.4583456,57.6087796 29.2070721,56.9039242 27.9997913,57.4214993 C26.5903276,57.5294767 26.5814354,55.8596393 26.097389,54.9593495 C26.2422039,54.231308 25.0206046,52.9473981 26.4136652,53.0504089 C27.5419103,52.9239542 28.0070514,51.2896064 26.8836421,50.758087 C25.867249,50.2615102 27.152361,48.9219172 26.0665618,48.6625827 C25.7325988,47.9537226 25.0814523,46.9797378 25.901825,46.2909831 C26.5397577,45.3865942 26.1529878,43.5971549 27.2351167,42.6664554 C27.7932856,41.5854801 28.4199445,43.1995213 29.0168596,41.8685602 C28.9580708,41.0520244 27.4032572,41.594791 27.432954,40.4301435 C27.0736723,39.2716885 26.0983138,37.6199574 27.484406,36.7659077 C28.1832102,36.2397888 27.9128598,34.8264756 29.0521184,34.7213838 C29.3462735,33.6479403 30.0772773,32.7097971 30.9368268,32.0669619 C31.52597,31.9103239 32.7704856,33.5116593 32.5484368,32.0274173 C31.9716373,30.8451665 33.8334929,30.4226556 34.4662495,31.2015203 C35.134458,30.5619732 35.6446308,30.1491379 36.5761426,30.6197624 C37.3962783,30.6147329 38.2639649,29.5665941 38.9525435,30.5334622 C39.66759,31.003634 40.7749639,31.336676 40.6424676,32.4181165 C42.2034662,32.737692 41.3403319,31.8390808 41.2596773,30.923803 C40.9445466,29.9148253 39.1768286,30.9556775 39.8154326,29.5162046 C39.9466779,28.6979273 39.7934914,27.2205947 40.9081329,27.1070659 C41.2933562,27.802032 41.4899286,28.2828916 42.6209098,28.3998216 C43.5560605,28.8259788 44.6341689,28.4803441 45.5611969,28.2003069 C45.049563,27.8520946 43.212249,27.7793741 44.0885355,26.9715959 C45.0771876,26.0535016 42.3837492,26.4996009 43.1653676,25.3943456 C43.9440186,24.9937195 44.9094218,25.4198076 44.8410832,24.1502317 C45.5765747,24.2369155 46.4951531,24.3398508 47.2022466,24.4585285 C47.5897458,25.8603933 49.3010892,25.1256626 50.3277834,25.0350055 C51.0141993,24.9176732 51.7319051,23.3090136 52.2968079,24.4028141 C53.0508645,24.2283401 53.8600132,23.8412056 54.7308364,24.2933089 C55.704815,23.5891702 53.6465165,23.465551 53.4078597,22.9373448 C53.4551371,22.0268325 54.9789299,22.48924 55.6442218,22.1706955 C56.9229263,21.8703894 57.9305586,21.0235633 58.9311936,20.2375315 C59.7268317,19.8903879 60.9118614,19.8840193 61.2823419,20.7039123 C62.1108983,20.6135885 62.8637289,21.203576 63.1876236,21.9258398 C63.1656194,22.7653605 62.8258504,23.5840024 62.0097107,23.9071615 C61.7652258,24.988011 63.4644545,25.2533808 63.4848303,24.2106111 C64.391778,23.7825237 65.1679016,23.0946241 66.2594828,23.2338852 C67.1960669,22.8770535 68.1386802,23.0084936 68.9552097,23.5414024 C69.4804044,23.8707603 71.578939,23.4762576 70.450001,22.8791722 C69.3479584,23.3265351 68.5942035,22.0671063 69.5280339,21.3215307 C70.8898323,20.7323543 71.6137621,19.0233809 73.2664488,19.0458189 C74.7745307,18.9140958 76.232135,18.2628614 77.7575435,18.456196 C78.2733708,19.5210014 79.3597528,18.092323 79.7909144,19.1978989 C80.4457324,20.1542176 80.4678245,20.5658584 80.7685896,19.4136652 C82.0452885,19.292108 80.8607807,17.4045114 81.7216203,16.9737018 C82.5651834,16.7720371 83.3437904,16.5805194 84.2297084,16.4660035 C84.8254044,15.7856356 85.699962,16.3362043 86.0094722,15.3139298 C86.0622821,14.5461614 87.799471,14.2426804 87.9400586,15.0187034 C87.5900482,15.9466933 87.0780245,17.1579519 87.4972473,18.0770081 C88.6047533,18.3475459 87.4832275,19.4990412 88.0629988,20.2469367 C89.0180035,20.6112498 89.2459601,21.5410377 88.9068826,22.4588932 C88.5786438,23.934214 88.6862,23.4960487 89.4483479,22.6226102 C90.4987436,22.5643307 90.7384944,21.2546004 91.3394148,20.7157694 C91.8670741,20.8172525 93.84976,21.073651 92.6592104,21.6979461 C91.6136115,22.6423951 92.9397695,24.098258 93.9681045,24.4325951 C94.941008,24.7034157 95.8782837,25.2480181 95.9373679,26.3788925 C96.89512,26.6371204 96.2830215,24.7986622 96.4709682,24.1614161 C96.4444375,23.4617914 96.031445,23.0736447 96.0204807,21.9450777 C95.8307233,21.3630934 95.2231702,19.6021212 96.2378753,20.6720503 C96.2705671,21.5338895 97.2427854,22.7168068 97.2531462,21.1807671 C97.4358999,20.2639805 96.0918998,19.354034 97.0924279,18.5530394 C98.0929561,18.2809488 97.1485699,16.658238 98.2863536,16.5116904 C99.1165131,17.653592 99.3347941,16.656157 99.4333852,15.6345175 C100.001997,15.8427709 100.583403,16.5968653 101.186581,16.9444866 C101.936412,18.0050169 102.949954,16.4534109 103.919551,16.8954488 C105.042548,17.1063239 106.501384,17.1706514 106.908958,18.4644193 C108.020971,18.5404907 108.913428,19.5314376 110.016853,19.3962819 C110.562506,19.1790131 111.873481,18.2327031 112.041894,19.0362251 C111.482304,19.6655182 111.207221,20.8516104 112.341308,20.9109587 L112.341308,20.9109775 Z M12.924054,48.9934935 C13.3398675,50.5325132 11.2646975,49.2552547 12.7907146,48.988464 L12.924054,48.9934935 Z M6.43260096,40.3989416 C5.5971001,41.4789487 8.31192087,41.6762189 6.987964,41.9036977 C5.89291932,41.61208 6.31937961,43.6022536 5.13414311,42.9995226 C3.96290376,42.5401076 3.61783299,44.3108874 2.4330875,44.2011936 C1.21361696,43.9374709 3.58815067,43.5307779 3.22537286,42.7670583 C2.82549042,41.8129275 1.47821734,42.5832986 0.708991681,42.6655123 C-0.677795172,43.1640255 0.261856927,41.6139912 1.05779498,41.4835381 C1.94971444,41.2825775 2.15301318,40.1816979 3.1792918,40.5615145 C4.02699552,40.5046809 4.65908134,40.1339992 5.27619113,39.7583006 C5.79385669,39.7730748 6.02086646,40.3269818 6.43260096,40.3989416 L6.43260096,40.3989416 Z M84.7097506,12.0580531 C85.1371527,12.2316657 86.6325979,13.2035821 86.0931005,13.5272127 C85.3079237,13.2193811 84.4823788,12.7966502 83.570653,13.0803653 C82.449712,12.1726317 84.2539444,12.3576174 84.7097506,12.0580531 Z" id="path_dep_29" fill-opacity="0.05" fill="#253186" fill-rule="nonzero"></path>
                    <path d="M224.434456,30.5608416 C224.221796,31.3336583 224.451556,32.1615923 224.965774,32.7685041 C226.073368,34.7810591 228.104237,35.0544259 230.059418,35.4272137 C229.821081,36.6160847 230.29617,39.0427323 231.651298,36.9588022 C232.157103,35.76482 232.869252,35.3140433 233.627866,35.4519841 C234.062926,36.2086058 234.563099,36.9549987 234.926758,37.73839 C235.970609,38.1824209 235.981995,39.3148355 235.307197,40.0967997 C234.51115,40.997561 235.963385,42.0611907 236.192411,40.7315687 C236.323807,39.5771625 237.81299,40.4987398 238.022602,39.4386308 C238.344937,38.7584012 237.755258,38.5998959 237.338179,38.5309978 C238.472127,37.7601678 239.324599,37.0473783 239.61533,38.4725297 C240.832838,40.6841655 239.383671,42.5549635 240.211133,44.8687363 C238.351098,45.3818979 239.951591,47.8386221 238.499331,48.5390641 C235.883259,49.8418159 239.572416,53.2256687 238.441303,55.4965774 C236.517355,57.0917704 239.957312,59.2878022 238.148591,60.3391787 C234.981202,59.6362848 237.658628,62.6336444 236.811569,64.1487172 C237.139217,66.4260511 235.370519,65.3447616 234.204104,65.6943318 C233.52832,67.6193732 231.732518,67.8768971 230.581444,66.2318426 C228.221286,64.3715877 227.88517,68.1254809 225.724389,68.4295907 C226.75903,71.7725221 223.340398,69.0032574 221.826526,69.8071 C218.476748,70.5000857 220.686447,74.1629258 218.908262,75.490712 C217.581098,74.3602715 216.469254,75.3259199 217.111775,76.9271924 C217.894468,79.1710486 215.263333,80.4377576 215.338675,82.2403491 C215.356718,82.4685948 211.689396,81.4123585 212.143008,83.793728 C210.132264,83.083623 210.029033,85.1218851 207.782303,84.9645241 C206.636435,87.1761222 205.489598,84.8337692 205.520655,83.3361425 C204.271864,82.2997854 203.554642,79.8307829 201.726526,79.1979313 C199.411144,79.5582836 197.559427,81.1087957 195.12751,80.9835985 C192.493408,80.9091679 195.203035,82.4475652 194.94035,83.8678191 C194.774696,86.1472276 191.523692,87.1703948 192.292963,89.7677066 C190.813467,90.7747354 188.750297,92.3744739 187.328716,93.9715153 C185.094303,95.4479677 183.044397,94.0551813 183.377792,91.4646845 C184.001552,89.298 185.335531,87.0855846 184.473176,84.7789475 C182.969206,82.1015092 181.518517,85.8858436 179.876701,85.799952 C177.338241,83.657975 176.665882,88.5430821 175.34957,88.0749283 C175.16471,85.7993233 174.50463,82.4079451 171.905683,82.1230922 C169.873249,83.19536 167.827971,81.7178451 166.779505,80.0583119 C164.775727,79.7330468 162.528023,78.2994961 160.674558,79.7922882 C157.983622,81.8552767 157.867804,76.7175181 156.940908,75.9901808 C154.386819,74.7729308 151.028428,74.2506657 148.743946,76.146209 C149.028227,78.0235705 148.320536,80.3251655 145.918734,79.9808008 C144.107184,79.0642279 142.812668,80.1315229 142.355642,81.8545851 C140.895561,80.6293193 139.340189,81.4173377 137.76634,81.967372 C137.110705,80.8046294 136.03176,80.1701621 134.539615,80.822107 C134.505981,78.3362116 131.962711,78.7799973 130.381204,79.7294192 C129.179797,81.151006 124.551221,81.6990913 126.573772,78.7883966 C127.259251,76.6162991 124.574822,77.2947935 123.436655,77.5442261 C121.733773,75.7289665 118.334166,79.0271604 116.358653,76.6230135 C116.421334,74.7013293 121.399185,77.3490243 119.07458,74.5229575 C116.539722,73.2580465 116.621634,69.8915833 119.30888,68.7686807 C119.991467,67.3656215 120.10299,64.8436268 117.788972,64.7037685 C117.35805,63.8591365 121.551692,61.0072495 118.484699,62.0589026 C116.637276,61.9536348 117.81241,59.0131025 117.148539,57.7460666 C118.758927,54.8991839 115.598901,54.6407107 113.658261,53.8322347 C114.579135,52.0862379 113.826587,49.3565744 116.113144,48.4693424 C117.579172,48.0661512 118.640118,46.8026548 116.485441,46.2706702 C113.187712,44.7199317 114.116061,41.1078709 116.670225,39.419506 C117.94187,38.2516144 119.769621,36.8609907 117.357509,35.9028866 C116.595845,34.6251126 113.731548,35.280006 115.526979,33.8058923 C116.509558,30.3525441 110.885998,32.4966147 111.55835,28.8947701 C110.220379,27.368846 110.07578,24.6516934 110.735892,22.8570234 C111.127685,22.1444477 111.740412,21.5479093 112.341314,20.9110153 C112.987399,20.709954 113.815622,19.3850032 114.25932,20.5343673 C114.553503,21.8840571 116.704741,22.1167917 117.063119,20.6778154 C117.618704,19.7376227 116.155832,19.2502562 116.443759,18.2749699 C116.406038,17.3616536 116.324094,16.4070576 116.511154,15.5151922 C117.372987,15.1011875 118.247991,15.1125605 119.183324,15.1155531 C120.80535,14.6052394 119.437227,14.754484 119.051331,13.9229477 C119.220819,12.9442351 118.182978,12.3337083 117.788438,11.618511 C116.642507,11.8488629 116.453661,11.0445299 116.606747,9.99803202 C116.677179,9.1696014 117.041102,7.61217372 118.18885,8.18882043 C119.067847,8.28382172 120.3485,7.25155735 119.891015,6.41163429 C119.151186,6.0195017 119.974335,4.36975095 120.700717,4.84649887 C121.388698,5.05274051 121.712279,2.77700349 122.283959,4.02138145 C122.904953,4.60964634 123.480933,3.66859855 124.191705,4.31804752 C123.969979,3.05890163 125.068098,3.20263266 125.392703,4.32307703 C125.919375,5.19035438 126.932358,6.17207839 127.98193,5.46380922 C129.319989,5.64308636 127.173982,6.54912242 127.681668,7.31272257 C128.357333,8.0461959 129.585918,7.41781432 130.433053,7.24287515 C131.640237,7.11693604 131.042586,5.39573471 132.237279,5.20356944 C133.12043,4.84326741 134.200626,5.16138436 134.963899,4.40693794 C135.720653,3.69633005 136.801213,3.41482798 137.785741,3.88004574 C138.750868,4.80553346 139.057096,3.28521104 139.761964,3.36551357 C140.418058,4.51033853 141.039562,2.96642768 141.433663,2.37751524 C141.996333,1.49085539 142.601057,-0.10982614 143.933835,0.453102557 C144.643475,1.36019482 143.112949,2.83720052 144.352662,3.43902625 C144.788558,4.40776153 144.207554,5.57909833 143.933062,6.55496295 C143.69985,7.35235516 142.762593,8.03969525 143.132112,8.90689087 C143.164552,8.05806556 143.669685,7.28409204 144.553742,7.04845288 C145.904457,6.3064105 145.569032,4.58642255 146.263225,3.45995532 C147.347224,3.81862905 147.682737,2.79495258 148.293113,2.21385475 C149.035199,1.91232263 149.746065,2.47654643 150.27815,1.52163603 C150.70603,0.734585766 151.85088,1.02291541 152.366871,0.271933066 C153.322529,-0.488693373 153.831277,0.516669366 153.5262,1.20487076 C153.529343,2.06054878 154.146905,2.93234641 153.546192,3.78216505 C152.501982,4.6597089 154.151281,4.77226949 153.939469,5.70675376 C153.667774,6.65001454 152.798133,7.44496743 152.99082,8.54011962 C153.094579,10.2342307 150.620679,10.3977152 150.788696,12.1193754 C150.269323,13.0845901 150.602416,14.0403115 151.194868,12.6456704 C151.526816,11.8278206 152.682787,11.6666623 152.586089,10.6119286 C153.602145,9.77684643 153.245106,8.32190774 153.877342,7.26553312 C154.227207,6.54428151 154.609526,5.14391937 155.66514,5.60120934 C156.360408,6.65848927 157.346753,5.26597317 158.231218,5.7198305 C159.704301,5.75252236 158.523345,6.94441103 158.93586,7.58600766 C159.610507,8.15171517 157.736861,8.32564215 157.551473,9.08787804 C156.708689,9.21698574 155.834056,10.3222913 157.260861,10.1291767 C157.706722,10.172682 157.924632,10.1848786 158.051256,10.1792204 C157.858833,10.2322818 157.537101,10.4158026 157.687421,10.9888029 C158.714146,12.1233488 160.49965,11.6868684 161.717353,12.5138153 C162.593224,13.2918187 163.424,11.1310628 163.511086,11.9120273 C163.259642,12.8339064 165.200884,12.7993976 164.509866,13.7602114 C163.73759,14.4470548 164.984527,15.308215 163.95186,15.9004532 C163.254499,16.8877097 165.040103,16.7785377 165.025486,17.6850076 C165.311414,18.5437033 166.287631,18.7636755 166.825884,19.4448042 C168.215564,19.2775099 167.561205,20.9258964 168.044762,21.6732009 C168.642665,22.9155167 170.671264,22.071897 171.147804,23.4911072 C171.382217,24.6059877 173.061737,24.7174544 172.838087,26.0252797 C172.53531,27.3157343 173.095403,28.5353419 173.418958,29.7295693 C173.237336,30.4608422 172.254436,31.5663615 173.661349,31.7618023 C174.504831,31.9751607 174.991895,32.8116385 175.91241,32.8444875 C176.745041,33.2902285 176.601215,34.4890642 177.549512,34.8307821 C178.437379,35.27067 179.408113,35.575289 180.332444,35.9203013 C180.021664,36.5971548 180.497381,37.484305 179.917691,38.1501879 C178.497689,39.0017543 180.684756,38.3982437 180.614776,39.2491814 C180.414916,40.3453961 181.835717,40.1787305 182.047384,41.1102096 C182.539918,42.4683741 183.051043,42.1829679 183.13474,40.8665484 C183.271417,39.968899 182.578708,38.351771 183.953313,38.1592474 C184.757495,38.5452314 185.350431,39.526465 186.428904,39.0510436 C187.067118,38.2387829 187.649826,37.280968 188.67337,36.807659 C189.595381,36.0473469 189.828072,34.7959087 190.829015,34.0776182 C191.484524,33.2578195 192.145874,32.4106791 192.784548,31.6157074 C193.546972,31.2056194 194.505246,31.9457694 195.239801,31.2096556 C196.380401,30.3971057 197.515274,29.5413082 198.650065,28.7178191 C199.154827,28.2462641 200.098867,27.0096631 198.800648,26.9961588 C197.580387,26.8169948 197.710721,25.7652599 198.92599,25.8271859 C200.204814,25.5758169 201.615613,25.1586373 202.882384,25.5064661 C203.247094,25.8903692 203.105324,28.0176223 203.905225,26.7823666 C204.324454,25.9985415 205.410471,25.9492082 205.852295,25.147673 C206.541427,24.662815 207.370656,24.6266464 208.009449,24.0512508 C208.715141,23.671252 209.992104,23.5075035 209.759224,22.4089375 C209.56936,21.4036753 210.987156,20.5016126 210.835792,21.9887905 C210.623346,23.0822326 211.706333,23.3988344 212.572981,23.3587869 C213.021765,24.0144536 211.635662,24.6837818 211.661991,25.5206117 C211.635901,27.0649186 209.828852,27.353003 209.375849,28.6916656 C209.936276,29.2814205 210.435883,30.4996324 211.083471,29.2564552 C211.658496,28.0742232 212.99802,27.8250798 213.895424,26.9586763 C214.337185,26.6348194 215.495948,25.3873609 215.669548,26.3580766 C214.905564,27.2181365 216.438813,27.8356606 215.853892,28.7284817 C215.304367,29.8502463 216.709099,29.984679 217.241278,30.4938547 C217.315948,31.3314956 217.478634,32.0993646 218.045951,32.7082128 C217.87821,33.864197 218.327862,34.5471928 218.986389,33.2805529 C219.649952,32.4580194 219.206895,31.2503381 219.353154,30.2662691 C220.918333,30.8713137 218.977424,33.3821932 220.712412,33.8245392 C221.461031,33.8180637 222.666348,32.3142004 221.380056,32.1893552 C220.962115,31.1004585 222.06009,30.2661999 222.61284,29.4960865 C223.44549,28.8777703 223.613714,30.7446767 224.434601,30.5606278 L224.434456,30.5608416 Z M117.104386,6.31266597 C118.436969,6.03488574 117.92289,7.59743095 116.844687,7.2622828 C116.052519,7.23367742 116.987305,6.47943218 117.104386,6.31266597 Z M160.865076,1.25957304 C160.663355,1.93260416 160.238574,2.61922125 160.043662,3.42912438 C160.07145,4.83768465 158.440993,3.45446058 159.118526,2.72372204 C159.367154,1.87220594 158.549097,1.58976084 159.912171,1.33326804 C160.230954,0.998101026 160.488346,0.969822566 160.865076,1.25957304 Z" id="path_dep_22" fill-opacity="0.05" fill="#253186" fill-rule="nonzero"></path>
                    <g id="path_departments-boundaries" transform="translate(103.305195, 20.752122)" stroke="#000000" stroke-dasharray="1.428839964351653,1.428839964351653" stroke-linecap="round" stroke-linejoin="bevel" stroke-width="0.629999996">
                        <path d="M13.0537658,55.8708534 C15.0292783,58.2750003 18.4288861,54.9768065 20.1317674,56.7920661 C21.2699345,56.5426335 23.9543638,55.864139 23.2688847,58.0362366 C21.2463335,60.9469312 25.8749101,60.3988459 27.0763171,58.9772592 C28.6578236,58.0278373 31.2010617,57.5840515 31.2347281,60.0699469 C32.7268726,59.4180021 33.8058172,60.0525322 34.4614525,61.215212 C36.0353015,60.6651777 37.5906734,59.8771593 39.0507548,61.1024251 C39.5077807,59.3793628 40.8022967,58.3120678 42.613847,59.2286408 C45.0156488,59.5730055 45.7233396,57.2714105 45.4390587,55.3940489 C47.7235408,53.4985057 51.0819317,54.0207707 53.636021,55.2380207 C54.562917,55.9653581 54.6787342,61.1031166 57.3696705,59.0401282 C59.2231355,57.5473361 61.4708393,58.9809056 63.4746177,59.3061519 C64.5230834,60.9656851 66.5683617,62.4432 68.6007958,61.3709321 C71.1997422,61.6557851 71.8598223,65.0471633 72.0446822,67.3227683 C73.3609948,67.790922 74.0333532,62.905815 76.5718133,65.047792 C78.21363,65.1336836 79.6643188,61.3493492 81.168289,64.0267875 C82.0306437,66.3334246 80.6966649,68.54584 80.0729042,70.7125245 C79.7395101,73.3030213 81.7894155,74.6958077 84.0238287,73.2193552 C85.4454029,71.6223138 87.5085799,70.0225753 88.9880752,69.0155466 C88.2188043,66.4182348 91.4698087,65.3950676 91.6354621,63.115659 C91.8981412,61.6954051 89.1885204,60.1570079 91.822623,60.2314384 C94.2545328,60.3566357 96.1062564,58.8061236 98.4216386,58.4457713 C100.249755,59.0786228 100.966977,61.5476253 102.215768,62.5839825 C102.184711,64.0816092 103.331547,66.4239622 104.477416,64.2123641 C106.724145,64.3697251 106.827376,62.331463 108.838121,63.0415679"></path>
                        <path d="M108.838001,63.0415554 C110.186157,64.5060124 111.521934,65.9959691 111.537299,67.986193 C111.128009,69.1382102 110.806265,72.3076044 112.691303,70.2670287 C113.967197,67.8425752 119.766381,68.7130651 116.752216,71.6887034 C114.537016,72.7582743 111.44827,71.3128539 110.132058,74.2324069 C108.811445,75.5473678 109.576422,77.2701597 108.827936,78.5725091 C111.375946,78.7814541 114.680382,77.5737917 116.590222,80.0449946 C118.361857,80.1191611 120.304835,79.7435379 120.93465,81.9659746 C122.558662,83.5468273 123.618903,85.8467437 124.249642,87.9770145 C122.986617,89.3323625 120.613465,90.6487317 122.413013,92.7892124 C122.559517,94.3599494 122.100907,96.595136 124.461096,95.1298742 C125.40022,94.576445 126.543561,91.6713205 126.39116,94.4190337 C126.269176,96.300312 128.636387,97.8536595 125.725032,98.9700174 C124.552413,99.8385772 124.790485,103.393522 122.080499,102.907431 C120.714118,103.851151 120.528761,105.507987 122.619242,104.776161 C125.028431,105.072613 127.05466,108.36049 123.359204,107.483695 C121.149951,107.598537 120.209733,109.572956 121.146424,111.59264 C119.979085,113.679821 123.743886,114.686963 121.871372,116.773244 C122.049889,117.899196 123.211625,118.424472 122.926741,119.449425"></path>
                        <path d="M13.0534514,55.8708534 C11.30157,56.8404815 9.19698747,57.0765984 7.58480721,58.2200968 C5.52877836,60.1966782 2.03719331,58.5581684 1.29741422,61.9810754 C1.0284608,62.960775 -0.918540701,66.0337785 1.62822442,65.6417277 C4.29167433,65.3127721 0.486266283,69.6768526 3.74189154,69.8318246 C5.41408651,71.3892209 4.79390933,73.9812139 6.09776762,75.7713699 C6.45908184,77.7473854 7.55102143,79.3700522 9.65411399,77.9372183 C11.5849519,78.2308478 13.9520689,76.9029044 15.6810597,78.9707966 C17.6536175,79.3935275 18.9001707,80.7039933 19.2054309,82.5819018 C20.2387641,82.7093938 21.0922165,81.0814837 22.2903292,80.9313652 C25.4185254,78.3305391 25.7832408,84.7238914 25.0459765,85.95794 C22.5603451,87.2181421 25.57671,90.264464 24.3301756,92.0681117 C22.1510305,91.358692 20.5418931,92.3836762 20.6087416,94.6970654 C19.0844711,96.3387689 15.7452049,96.9138753 15.4962564,93.8691943 C13.3353621,94.5451991 14.1304533,97.5837379 15.1743547,99.0295543 C15.7773373,100.041669 15.2606801,101.082685 14.9398347,102.076631"></path>
                        <path d="M13.0534514,55.8708534 C13.1161318,53.9491693 18.0939768,56.5968642 15.769378,53.7707974 C13.2345203,52.5058865 13.3164323,49.1394232 16.0036781,48.0165207 C16.686259,46.6134615 16.7977823,44.0914667 14.4837706,43.9516084 C14.0528479,43.1069765 18.2464906,40.2550894 15.1794974,41.3067426 C13.3320741,41.2014748 14.5072082,38.2609425 13.8433371,36.9939065 C15.4537256,34.1470238 12.2936988,33.8885507 10.3530597,33.0800747 C11.2739328,31.3340778 10.5213851,28.6044143 12.8079418,27.7171824 C14.2739706,27.3139911 15.3349158,26.0504947 13.1802392,25.5185101 C9.88251065,23.9677717 10.8108589,20.3557109 13.3650237,18.667346 C14.6366679,17.4994544 16.4644196,16.1088307 14.0523072,15.1507265 C13.2906434,13.8729526 10.426346,14.527846 12.2217768,13.0537322 C13.2043558,9.6003841 7.58079617,11.7444546 8.2531483,8.14261001 C6.91517731,6.61668597 6.7705787,3.89953339 7.43069024,2.10486339 C7.82247704,1.3922877 8.32088332,0.747069816 8.81070799,0.100739152"></path>
                        <path d="M108.837806,63.0415679 C108.384194,60.6601985 112.05151,61.7164348 112.033473,61.488189 C111.958137,59.6855975 114.589266,58.4188885 113.806573,56.1750323 C113.164052,54.5737598 114.275896,53.6081114 115.60306,54.738552 C117.381246,53.4107658 115.171546,49.7479256 118.521324,49.0549399 C120.035196,48.2510974 123.453828,51.020362 122.419187,47.6774306 C124.579968,47.3733209 124.916085,43.6194277 127.276242,45.4796826 C128.427316,47.124737 130.223118,46.8672132 130.898903,44.9421718 C132.065317,44.5926015 133.834016,45.6738911 133.506368,43.3965572 C134.353426,41.8814843 131.676001,38.8841248 134.843389,39.5870187 C136.652111,38.5356421 133.212154,36.3396104 135.136101,34.7444173 C136.26722,32.4735086 132.578063,29.0896558 135.194129,27.786904 C136.64639,27.0864621 135.045897,24.6297379 136.905931,24.1165762 C136.078469,21.8028035 137.527636,19.9320055 136.310129,17.7203696 C135.72866,14.8701486 133.04755,20.4050567 132.280479,16.7128002 C131.822202,14.3651914 129.357708,13.8187155 128.346096,16.2066799 C126.990968,18.29061 126.51588,15.8639623 126.754216,14.6750914 C124.799035,14.3023036 122.768166,14.0289367 121.660572,12.0163818 C121.146135,11.40947 120.921114,10.5762236 121.133775,9.80339427"></path>
                    </g>
                </g>
            </g>
        </g>
    </g>
</svg>