<svg width="23" height="22" xmlns="http://www.w3.org/2000/svg">
  <g fill="#DE1A42" fill-rule="nonzero">
    <path d="M15.226 4.357l-12.973.026A2.256 2.256 0 000 6.637v8.033a2.256 2.256 0 002.253 2.253H4.56v3.8a.38.38 0 00.661.256l3.688-4.056 6.318-.026a2.256 2.256 0 002.253-2.253V6.61a2.256 2.256 0 00-2.254-2.253zM3.8 8.157h4.94a.38.38 0 110 .76H3.8a.38.38 0 110-.76zm9.88 5.32H3.8a.38.38 0 110-.76h9.88a.38.38 0 110 .76zm0-2.28H3.8a.38.38 0 110-.76h9.88a.38.38 0 110 .76z"/>
    <path d="M20.547.203L7.573.177A2.256 2.256 0 005.32 2.43v1.187l9.904-.02A3.018 3.018 0 0118.24 6.61V15.437l1.239 1.362a.38.38 0 00.661-.255v-3.8h.407A2.256 2.256 0 0022.8 10.49V2.457A2.256 2.256 0 0020.547.203z"/>
  </g>
</svg>
