<svg xmlns="http://www.w3.org/2000/svg" width="1em" height="1em" viewBox="0 0 18 20"><path d="M20.987 14.262a.291.291 0 0 0-.008-.036l-.058-.205c-.238-.89-1.731-1.754-2.619-1.515a.334.334 0 0 0 .173.645c.531-.143 1.66.51 1.803 1.047l.054.19a.085.085 0 0 1 0 .033c-.155.05-.864.276-1.258.382-.405.109-.827.248-1.266.406-.17-1.242-.513-2.531-1.022-4.437l-1.208-4.516c-.27-1.01-1.164-1.416-1.873-1.226a1.433 1.433 0 0 0-.74.491l-.245-.918c-.267-.996-1.184-1.41-1.879-1.224-.29.078-.559.27-.756.535a1.633 1.633 0 0 0-.66-.702 1.662 1.662 0 0 0-1.259-.152 1.668 1.668 0 0 0-1.014.758 1.618 1.618 0 0 0-.171.409 1.653 1.653 0 0 0-.06-.034c-.363-.195-.804-.237-1.244-.12-.43.116-.79.393-1.012.779a1.66 1.66 0 0 0-.167 1.267l.919 3.435a5.64 5.64 0 0 0-.956 1.885.334.334 0 0 0 .642.182c.14-.496.353-.912.54-1.219l1.012 3.781a.334.334 0 0 0 .644-.173L5.142 5.946a.997.997 0 0 1 .1-.76.993.993 0 0 1 .607-.467c.275-.074.544-.052.757.062.225.122.387.345.468.646l1.812 6.775a.333.333 0 1 0 .643-.173L7.632 4.932a1 1 0 0 1 .093-.773c.131-.222.35-.383.614-.454.262-.07.532-.039.758.089.229.13.394.35.466.62l1.898 7.096a.333.333 0 1 0 .644-.173l-1.639-6.13c-.166-.622.218-1.095.548-1.183.323-.087.885.091 1.062.752l1.64 6.129a.334.334 0 0 0 .644-.173l-1.035-3.871c-.097-.364-.013-.632.074-.792a.793.793 0 0 1 .478-.394c.393-.104.895.149 1.057.754l1.208 4.517c.998 3.73 1.348 5.042.97 8.382l-7.247 1.945c-1.614-3.051-5.088-5.835-7.08-6.987a35.236 35.236 0 0 1-1.118-.696.191.191 0 0 1 .01-.031l.103-.173c.126-.219.49-.436.93-.554.438-.118.863-.112 1.08.014l1.563.904a.334.334 0 0 0 .333-.579l-1.562-.904c-.375-.216-.968-.246-1.587-.08-.62.167-1.118.49-1.332.86l-.111.188a.3.3 0 0 0-.017.032c-.146.32-.082.635.173.845.01.008.02.016.03.022.032.02.761.493 1.172.73 1.97 1.14 5.438 3.924 6.931 6.93a.334.334 0 0 0 .39.196l.009-.002 7.722-2.074a.333.333 0 0 0 .244-.282c.184-1.539.226-2.661.135-3.74.48-.178.931-.328 1.363-.444a36.826 36.826 0 0 0 1.356-.415c.3-.137.444-.425.385-.771z" stroke="#000" stroke-width=".5" transform="matrix(.85848 0 0 .89993 -.241 -.022)"/><path d="M12.607 2.998c.346-.36.831-.387 1.112-.231.31.173.572.736.235 1.301v.001a.332.332 0 0 0 .128.463.358.358 0 0 0 .479-.126l.525-.877c.3-.501.916-.661 1.435-.372.527.294.69.878.385 1.387l-.167.28-.537.783a.331.331 0 0 0 .098.469.36.36 0 0 0 .486-.096l.541-.789.004-.01.007-.007v-.001c.388-.646.996-.615 1.435-.37.243.136.417.355.49.617a.978.978 0 0 1-.105.77l-1.975 3.303a.332.332 0 0 0 .128.462.36.36 0 0 0 .479-.124l1.974-3.303a1.63 1.63 0 0 0 .176-1.283 1.687 1.687 0 0 0-.816-1.027c-.456-.254-.935-.313-1.363-.194.003-.58-.311-1.13-.89-1.453a1.773 1.773 0 0 0-2.18.333 1.451 1.451 0 0 0-.622-.723c-.528-.294-1.377-.266-1.975.358a.33.33 0 0 0 .018.478.36.36 0 0 0 .495-.019z" stroke="#000" stroke-width=".5" transform="matrix(.85848 0 0 .89993 -.241 -.022)"/><path d="M3.685 1.468a.403.423 0 0 0 .542.19.407.427 0 0 0 .181-.57L4.003.236a.403.422 0 0 0-.542-.19.406.426 0 0 0-.18.571zM1.333 3.28a.403.422 0 0 0 .573 0 .407.427 0 0 0 0-.602l-.81-.85a.403.423 0 0 0-.571 0 .407.427 0 0 0 0 .6zM.406 5.959h.809a.406.426 0 0 0 0-.851H.406a.406.426 0 0 0 0 .851zm0 2.979a.403.423 0 0 0 .128-.022l1.213-.425a.407.427 0 0 0-.255-.809l-1.214.426a.407.427 0 0 0 .128.83z"/></svg>