<?xml version="1.0" encoding="utf-8"?>
<!-- Generator: Adobe Illustrator 25.4.1, SVG Export Plug-In . SVG Version: 6.00 Build 0)  -->
<svg version="1.1" id="Calque_1" xmlns="http://www.w3.org/2000/svg" xmlns:xlink="http://www.w3.org/1999/xlink" x="0px" y="0px"
	 viewBox="0 0 20 20" style="enable-background:new 0 0 20 20;" xml:space="preserve">
<style type="text/css">
	.st0{fill:#F7B502;}
	.st1{fill:#FFFFFF;}
</style>
<g>
	<path class="st0" d="M7.1,18.5c-0.4,0-0.8-0.1-1.1-0.4c-0.8-0.5-1-1.5-0.7-2.4L7,11.9H5.1c-0.8,0-1.6-0.5-1.8-1.2
		C3,9.9,3.2,9,3.9,8.5L11.6,2c0.4-0.3,0.8-0.5,1.3-0.5c0.4,0,0.8,0.1,1.1,0.4c0.8,0.5,1,1.5,0.7,2.4L13,8.1h1.9
		c0.8,0,1.6,0.5,1.8,1.2c0.3,0.7,0.1,1.6-0.5,2.1L8.4,18C8,18.3,7.6,18.5,7.1,18.5z"/>
	<path class="st1" d="M12.9,2.5c0.2,0,0.4,0.1,0.6,0.2c0.4,0.3,0.5,0.7,0.3,1.1l-2.3,5.3l3.4,0c0.4,0,0.8,0.2,0.9,0.6
		c0.2,0.3,0.1,0.8-0.2,1l-7.8,6.5c-0.2,0.2-0.4,0.3-0.7,0.3c-0.2,0-0.4-0.1-0.6-0.2c-0.4-0.3-0.5-0.7-0.3-1.1l2.3-5.3H5.1
		c-0.4,0-0.8-0.2-0.9-0.6c-0.1-0.4,0-0.8,0.3-1l7.8-6.5C12.4,2.6,12.7,2.5,12.9,2.5 M12.9,0.5c-0.7,0-1.4,0.3-1.9,0.7L3.2,7.8
		c-1,0.8-1.3,2.1-0.8,3.3c0.4,1.1,1.6,1.9,2.8,1.9h0.3l-1.1,2.5c-0.6,1.3-0.1,2.8,1,3.6c0.5,0.4,1.1,0.5,1.7,0.5
		c0.7,0,1.4-0.3,2-0.7l7.7-6.5c1-0.8,1.3-2.2,0.8-3.3c-0.5-1.1-1.6-1.8-2.7-1.8l-0.3,0l1.1-2.5c0.6-1.3,0.1-2.8-1-3.6
		C14.1,0.7,13.5,0.5,12.9,0.5L12.9,0.5z"/>
</g>
</svg>
