<svg xmlns="http://www.w3.org/2000/svg" xmlns:xlink="http://www.w3.org/1999/xlink" width="11" height="11"><defs><path id="a" d="M6.94.088c.128 0 .232.103.232.23L7.17 5.324h5.006c.127 0 .23.104.23.232V6.94a.231.231 0 0 1-.23.23H7.17v5.006a.231.231 0 0 1-.23.23H5.555a.231.231 0 0 1-.231-.23L5.323 7.17H.319a.231.231 0 0 1-.231-.23V5.555a.23.23 0 0 1 .23-.231l5.005-.001V.319c0-.128.104-.231.232-.231H6.94z"/></defs><g fill="none" fill-rule="evenodd" transform="translate(-1 -1)"><mask id="b" fill="#fff"><use xlink:href="#a"/></mask><use fill="#000" fill-opacity=".3" transform="rotate(45 6.248 6.248)" xlink:href="#a"/><g fill="#FFF" mask="url(#b)"><path d="M0 0h11.88v11.88H0z"/></g></g></svg>