<?xml version="1.0" encoding="utf-8"?>
<!-- Generator: Adobe Illustrator 25.4.1, SVG Export Plug-In . SVG Version: 6.00 Build 0)  -->
<svg version="1.1" id="Calque_1" xmlns="http://www.w3.org/2000/svg" xmlns:xlink="http://www.w3.org/1999/xlink" x="0px" y="0px"
	 viewBox="0 0 20 20" style="enable-background:new 0 0 20 20;" xml:space="preserve">
<style type="text/css">
	.st0{fill:#D5153C;}
	.st1{fill:#FFFFFF;}
</style>
<g>
	
		<image style="overflow:visible;opacity:0.32;" width="32" height="30" xlink:href="49735462F77DFB1C.png"  transform="matrix(1 0 0 1 -6 -4)">
	</image>
	<g>
		<path class="st0" d="M10,18c-0.5,0-1.1-0.2-1.4-0.6l-6-6.2c-1-1.1-1.6-2.5-1.5-4c0.1-1.5,0.7-2.9,1.9-3.9C3.8,2.4,4.9,2,6.2,2
			C7.6,2,9,2.6,10,3.6c1-1,2.4-1.6,3.8-1.6c1.2,0,2.4,0.4,3.3,1.2c1.1,1,1.8,2.4,1.9,3.9c0.1,1.5-0.5,3-1.5,4.1l-6,6.2
			C11.1,17.8,10.5,18,10,18z"/>
		<path class="st1" d="M13.8,3c0.9,0,1.9,0.3,2.6,1c1.9,1.7,2,4.7,0.3,6.5l-6,6.2C10.5,16.9,10.3,17,10,17c-0.3,0-0.5-0.1-0.7-0.3
			l-6-6.2C1.5,8.6,1.6,5.6,3.5,4c0.8-0.7,1.7-1,2.6-1c1.2,0,2.4,0.5,3.2,1.4L10,5l0.6-0.6C11.5,3.5,12.7,3,13.8,3 M13.8,1L13.8,1
			c-1.4,0-2.7,0.5-3.8,1.3C8.9,1.5,7.5,1,6.2,1C4.7,1,3.3,1.5,2.2,2.5C0.9,3.6,0.1,5.3,0,7.1c-0.1,1.8,0.6,3.5,1.8,4.8l6,6.2
			C8.4,18.7,9.2,19,10,19c0.8,0,1.6-0.3,2.2-0.9l6-6.2c1.2-1.3,1.9-3,1.8-4.8c-0.1-1.8-0.9-3.4-2.2-4.6C16.7,1.5,15.3,1,13.8,1
			L13.8,1z"/>
	</g>
</g>
</svg>
