<svg xmlns="http://www.w3.org/2000/svg" width="38" height="38" viewBox="0 0 38 38">
    <defs>
        <linearGradient id="a" x1="50%" x2="50%" y1="99.709%" y2=".777%">
            <stop offset="0%" stop-color="#E09B3D"/>
            <stop offset="30%" stop-color="#C74C4D"/>
            <stop offset="60%" stop-color="#C21975"/>
            <stop offset="100%" stop-color="#7024C4"/>
        </linearGradient>
    </defs>
    <g fill="none" fill-rule="evenodd">
        <rect width="38" height="38" fill="url(#a)" rx="19"/>
        <g fill="#FFF" fill-rule="nonzero" transform="translate(10 10)">
            <path d="M12.694 0H5.386A5.392 5.392 0 0 0 0 5.386v7.308a5.392 5.392 0 0 0 5.386 5.386h7.308a5.392 5.392 0 0 0 5.386-5.386V5.386A5.392 5.392 0 0 0 12.694 0zm3.567 12.694a3.567 3.567 0 0 1-3.567 3.567H5.386a3.567 3.567 0 0 1-3.567-3.567V5.386A3.567 3.567 0 0 1 5.386 1.82h7.308a3.567 3.567 0 0 1 3.567 3.567v7.308z"/>
            <path d="M8.96 4.32a4.645 4.645 0 0 0-4.64 4.64 4.645 4.645 0 0 0 4.64 4.64 4.645 4.645 0 0 0 4.64-4.64 4.645 4.645 0 0 0-4.64-4.64zm0 7.475a2.835 2.835 0 1 1 0-5.67 2.835 2.835 0 0 1 0 5.67z"/>
            <circle cx="13.76" cy="4.32" r="1.12"/>
        </g>
    </g>
</svg>
