<svg xmlns="http://www.w3.org/2000/svg" width="9" height="18" viewBox="0 0 9 18">
    <path fill="#000" fill-rule="nonzero" d="M8.89 5.257c.12.134.143.28.07.442L3.536 17.32a.442.442 0 0 1-.422.251.847.847 0 0 1-.14-.02.428.428 0 0 1-.257-.19.381.381 0 0 1-.045-.302L4.65 8.943.573 9.958a.535.535 0 0 1-.121.01.466.466 0 0 1-.311-.11.375.375 0 0 1-.131-.393L2.029 1.18a.456.456 0 0 1 .442-.321h3.295c.127 0 .234.041.321.125.087.083.13.182.13.296a.412.412 0 0 1-.05.18L4.45 6.11l3.977-.984a.55.55 0 0 1 .121-.02c.127 0 .241.05.342.15z"/>
</svg>
