<svg xmlns="http://www.w3.org/2000/svg" width="16" height="15" viewBox="0 0 16 15">
    <g fill="none" fill-rule="evenodd">
        <g fill="#000" fill-rule="nonzero">
            <g>
                <g>
                    <g>
                        <g>
                            <path d="M6.118 17.75c.713 0 1.14-.816.709-1.382-.449-.589-.715-1.323-.715-2.118 0-.304.044-.596.12-.875H7c1.495 0 2.96.514 4.128 1.448l2.325 1.86c.133.106.377.192.547.192.681 0 .875-.623.875-.875v-4.18c.52-.303.875-.861.875-1.507 0-.647-.354-1.204-.875-1.508v-4.18c0-.239-.19-.875-.875-.875-.195 0-.388.065-.546.192l-2.325 1.86C9.96 6.736 8.495 7.25 7 7.25H1.75C.783 7.25 0 8.033 0 9v2.625c0 .967.783 1.75 1.75 1.75l-.013.875c0 1.087.253 2.115.699 3.034.142.292.451.466.776.466h2.906zm7.444-2.66l-1.614-1.292c-1.17-.936-2.592-1.514-4.073-1.68v-3.61c1.481-.167 2.903-.745 4.073-1.681l1.614-1.291v9.553zm-7-3.027H1.75c-.241 0-.438-.197-.438-.438V9c0-.241.197-.437.438-.437h4.812v3.5zm-1.238 4.374H3.493c-.295-.695-.444-1.43-.444-2.187 0-.389.047-.693.071-.875h1.775c-.057.293-.096.585-.096.875 0 .772.18 1.515.525 2.187z" transform="translate(-360 -498) translate(330 159) translate(30 207) translate(0 36) translate(0 93)"/>
                        </g>
                    </g>
                </g>
            </g>
        </g>
    </g>
</svg>
