<svg width="24" height="23" viewBox="0 0 24 23" fill="none" xmlns="http://www.w3.org/2000/svg">
<g filter="url(#filter0_d_3031_3804)">
<path d="M12.5486 18.7848L19.9741 11.3432C21.7987 9.51475 22.0678 6.50664 20.3412 4.58506C19.9087 4.10234 19.3826 3.713 18.795 3.44077C18.2074 3.16855 17.5707 3.01917 16.9235 3.00173C16.2764 2.98429 15.6326 3.09916 15.0312 3.33934C14.4299 3.57952 13.8836 3.93997 13.4259 4.39869L12.0302 5.79738L10.8252 4.58975C9.00069 2.76128 5.99907 2.49152 4.08164 4.22187C3.59996 4.6553 3.21146 5.18253 2.93982 5.7714C2.66819 6.36027 2.51912 6.99843 2.50172 7.64694C2.48432 8.29545 2.59895 8.94072 2.83861 9.54337C3.07827 10.146 3.43794 10.6934 3.89567 11.1522L11.5118 18.7848C11.6493 18.9226 11.8358 19 12.0302 19C12.2247 19 12.4111 18.9226 12.5486 18.7848Z" fill="#D5153C"/>
<path d="M12.718 3.69235L12.718 3.69234C13.2717 3.13745 13.9326 2.70132 14.6603 2.41067C15.388 2.12002 16.1673 1.98098 16.9505 2.00209C17.7337 2.0232 18.5043 2.20401 19.2154 2.53342C19.9262 2.86272 20.5625 3.33361 21.0855 3.91723L12.718 3.69235ZM12.718 3.69235L12.0302 4.38163M12.718 3.69235L12.0302 4.38163M12.0302 4.38163L11.5331 3.88341C9.38434 1.73001 5.7776 1.34494 3.41221 3.479L12.0302 4.38163Z" stroke="white" stroke-width="2" stroke-linecap="round" stroke-linejoin="round"/>
</g>
<defs>
<filter id="filter0_d_3031_3804" x="-1.5" y="0" width="27.0015" height="24" filterUnits="userSpaceOnUse" color-interpolation-filters="sRGB">
<feFlood flood-opacity="0" result="BackgroundImageFix"/>
<feColorMatrix in="SourceAlpha" type="matrix" values="0 0 0 0 0 0 0 0 0 0 0 0 0 0 0 0 0 0 127 0" result="hardAlpha"/>
<feOffset dy="1"/>
<feGaussianBlur stdDeviation="1"/>
<feComposite in2="hardAlpha" operator="out"/>
<feColorMatrix type="matrix" values="0 0 0 0 0 0 0 0 0 0 0 0 0 0 0 0 0 0 0.32 0"/>
<feBlend mode="normal" in2="BackgroundImageFix" result="effect1_dropShadow_3031_3804"/>
<feBlend mode="normal" in="SourceGraphic" in2="effect1_dropShadow_3031_3804" result="shape"/>
</filter>
</defs>
</svg>
