<svg width="113" height="119" viewBox="0 0 113 119" fill="none" xmlns="http://www.w3.org/2000/svg">
<rect x="8.35197" y="55.3783" width="96.296" height="62.9377" fill="white" stroke="#030047" stroke-width="1.368"/>
<path d="M56.5 92.2056L8.00259 55.3637L104.997 55.3637L56.5 92.2056Z" fill="#030047"/>
<path d="M9.95055 118.316L56.4992 87.6656L103.049 118.316H9.95055Z" fill="white" stroke="#030047" stroke-width="1.368"/>
<path d="M9.95055 54.0104L56.4992 23.3605L103.049 54.0104H9.95055Z" fill="white" stroke="#030047" stroke-width="1.368"/>
<path d="M74.5488 14.0929C73.0807 8.66247 67.4836 5.44334 62.0472 6.90276L48.8473 10.4463C43.411 11.9057 40.194 17.491 41.6621 22.9215L45.2076 36.0364C46.6757 41.4668 52.2729 44.6859 57.7092 43.2265L70.9091 39.683C76.3455 38.2236 79.5624 32.6382 78.0943 27.2078L74.5488 14.0929Z" fill="#253186"/>
<path d="M57.5562 15.3511C52.3139 16.7513 49.2045 22.1196 50.6092 27.3452C52.0139 32.5708 57.3994 35.6702 62.6418 34.27C67.8841 32.8698 70.9935 27.5015 69.5888 22.2759C68.1841 17.0503 62.7986 13.9509 57.5562 15.3511ZM54.5607 24.9571C54.2553 23.3175 55.0607 21.9046 55.9714 21.6613C56.8821 21.4181 58.2884 22.2403 58.8464 23.8124C58.9613 24.1332 58.5551 24.3767 58.3224 24.1363L57.7845 23.585C57.3494 23.1411 56.8284 22.9573 56.3577 23.083C55.887 23.2087 55.528 23.6276 55.3738 24.2288L55.1846 24.9744C55.0959 25.3006 54.621 25.2884 54.5607 24.9571ZM65.4167 27.0777C64.6768 28.6735 63.2782 29.8483 61.5754 30.3031C59.8726 30.7579 58.0722 30.4375 56.631 29.4243C55.9473 28.9406 56.6756 27.9121 57.3621 28.391C58.4951 29.1881 59.907 29.4365 61.2463 29.0787C62.5856 28.721 63.6828 27.7984 64.2652 26.5472C64.6195 25.7903 65.7672 26.3218 65.4167 27.0777ZM64.441 22.5021L63.9032 21.9507C63.468 21.5069 62.947 21.3231 62.4763 21.4488C62.0057 21.5745 61.6466 21.9934 61.4924 22.5946L61.3032 23.3401C61.2212 23.6605 60.7473 23.6521 60.6869 23.3208C60.3815 21.6812 61.187 20.2683 62.0977 20.025C63.0084 19.7818 64.4147 20.604 64.9726 22.1761C65.0838 22.498 64.6737 22.7424 64.441 22.5021Z" fill="white"/>
</svg>
