<svg xmlns="http://www.w3.org/2000/svg" width="14" height="14" viewBox="0 0 14 14">
    <g fill="none" fill-rule="evenodd">
        <g fill="#000" fill-rule="nonzero">
            <g>
                <g>
                    <g>
                        <g>
                            <path d="M8.321 17.303c.288-.076.488-.337.488-.634v-1.005c.262-.12.666-.353.9-.52l.869.502c.257.148.583.106.793-.104.826-.828 1.44-1.867 1.751-3.03.077-.288-.048-.591-.306-.74l-.87-.502c.033-.346.033-.694 0-1.04l.87-.502c.258-.149.383-.452.306-.74-.312-1.163-.925-2.202-1.751-3.03-.21-.21-.536-.252-.793-.104l-.87.502c-.233-.167-.637-.4-.899-.52V4.831c0-.278-.218-.563-.488-.634-1.142-.304-2.354-.304-3.498 0-.287.076-.488.337-.488.634v1.005c-.262.12-.665.353-.9.52l-.868-.502c-.258-.148-.583-.106-.793.104-.826.828-1.44 1.867-1.751 3.03-.078.288.047.591.305.74l.87.502c-.013.144-.024.376-.024.52 0 .144.011.376.025.52l-.87.502c-.259.149-.384.452-.306.74.311 1.163.925 2.202 1.751 3.03.21.21.535.252.793.104l.869-.502c.234.167.637.4.9.52v1.005c0 .278.218.563.487.634 1.142.304 2.355.304 3.498 0zM6.572 16.22c-.257 0-.67-.035-.924-.078v-1.384c-1.08-.381-1.209-.455-2.083-1.204l-1.198.693c-.331-.398-.746-1.115-.926-1.6l1.198-.692c-.208-1.13-.208-1.278 0-2.408l-1.198-.691c.215-.58.528-1.123.926-1.6l1.198.692c.875-.75 1.003-.823 2.083-1.204V5.359c.253-.043.667-.078.924-.078s.671.035.925.078v1.384c1.08.381 1.208.455 2.082 1.204l1.199-.692c.331.397.746 1.114.926 1.6l-1.199.691c.209 1.13.21 1.278 0 2.408l1.199.691c-.18.486-.595 1.203-.926 1.6l-1.199-.692c-.874.75-1.002.823-2.082 1.204v1.384c-.254.043-.668.078-.925.078zm0-2.844c1.448 0 2.625-1.178 2.625-2.625S8.02 8.125 6.572 8.125c-1.447 0-2.625 1.178-2.625 2.625s1.178 2.625 2.625 2.625zm0-1.312c-.723 0-1.312-.59-1.312-1.313 0-.724.589-1.312 1.312-1.312.724 0 1.313.588 1.313 1.312 0 .724-.589 1.313-1.313 1.313z" transform="translate(-360 -406) translate(330 159) translate(30 207) translate(0 36) translate(.428)"/>
                        </g>
                    </g>
                </g>
            </g>
        </g>
    </g>
</svg>
