<svg width="16" height="16" viewBox="0 0 16 16" fill="none" xmlns="http://www.w3.org/2000/svg">
<path d="M8 0C3.58125 0 0 3.58125 0 8C0 12.4187 3.58125 16 8 16C12.4187 16 16 12.4187 16 8C16 3.58125 12.4187 0 8 0ZM14.5 8C14.5 8.69812 14.3865 9.36938 14.1819 10H13.4616C13.3253 10 13.1967 9.94922 13.1059 9.85181L12.1031 8.83369C11.9631 8.68941 11.9631 8.45525 12.1069 8.31087L12.4969 7.92188V7.65272C12.4969 7.55909 12.4628 7.46938 12.3947 7.40309L12.1033 7.1105C12.0352 7.04434 11.9444 7.00528 11.8498 7.00528H11.3504C11.1574 7.00528 10.9985 6.84538 10.9985 6.65434C10.9985 6.56072 11.0364 6.471 11.1007 6.40472L11.3959 6.11212C11.4602 6.04597 11.551 6.00691 11.6456 6.00691H12.6447C12.8377 6.00691 13.0003 5.847 13.0003 5.65597V5.3625C13.0003 5.16744 12.8376 5.0075 12.6447 5.0075H11.4981C11.2257 5.0075 10.9987 5.23369 10.9987 5.50688V5.64725C10.9987 5.86184 10.8625 6.05288 10.6581 6.12319L9.67031 6.45069C9.56813 6.48584 9.50003 6.57947 9.50003 6.68872V6.755C9.50003 6.89147 9.3865 7.00462 9.25028 7.00462H8.74684C8.61062 7.00462 8.49709 6.89147 8.49709 6.755C8.49709 6.61841 8.38734 6.50537 8.24734 6.50537H8.15275C8.05816 6.50537 7.97113 6.55994 7.92569 6.64184L7.63431 7.22684C7.54688 7.39375 7.375 7.47188 7.15938 7.47188H6.49375C6.2175 7.47188 5.99438 7.24947 5.99438 6.9725V6.2125C5.99438 6.07981 6.04734 5.95494 6.14197 5.86156L6.77009 5.23344C6.91563 5.09062 6.99375 4.89375 6.99375 4.6875C6.99375 4.58216 7.06187 4.48462 7.16781 4.44947L8.41656 4.03603C8.46953 4.0165 8.51494 3.98916 8.55278 3.95009L9.39278 3.11541C9.45712 3.04925 9.49497 2.95941 9.49497 2.86591C9.49497 2.67084 9.33603 2.51091 9.14309 2.51091H8.49687L7.99375 3.01031V3.25994C7.99375 3.39641 7.884 3.50956 7.744 3.50956H7.24375C7.10753 3.50956 6.994 3.39641 6.994 3.25994V2.63562C6.994 2.55762 7.03184 2.48353 7.09619 2.43666L8.26838 1.51353C11.7281 1.65594 14.5 4.50625 14.5 8ZM4.31563 4.65938C4.31563 4.56563 4.35347 4.47578 4.42159 4.40938L5.21253 3.61625C5.28066 3.54984 5.37147 3.51078 5.46228 3.51078C5.65906 3.51078 5.81791 3.67094 5.81791 3.86641V4.36641C5.81791 4.46016 5.78006 4.55 5.71572 4.61641L5.42056 4.90938C5.35625 4.97813 5.2625 5.0125 5.16875 5.0125H4.66875C4.47187 5.0125 4.31563 4.85313 4.31563 4.65938ZM8.5 14.475L8.49551 13.9841C8.49246 13.9842 8.49857 13.9838 8.49551 13.9841C8.48056 13.7237 8.26354 13.5119 7.99708 13.5119H7.3652C7.02833 13.5119 6.5327 13.3478 6.2602 13.1447L5.56875 12.6219C5.20937 12.3531 5 11.9312 5 11.4844V10.7381C5 10.2381 5.26109 9.77312 5.68875 9.51937L7.02844 8.71469C7.25172 8.58578 7.50531 8.51156 7.7625 8.51156H8.735C9.07562 8.51156 9.40469 8.63266 9.66219 8.85156L11.0094 10.0119H11.5809C11.8496 10.0119 12.1031 10.1173 12.2884 10.3048L12.8297 10.848C12.9219 10.9375 13.0437 10.9875 13.175 11H13.7619C12.7469 12.9094 10.7875 14.3 8.5 14.475Z" fill="#D5153C"/>
</svg>
