<svg xmlns="http://www.w3.org/2000/svg" width="8" height="9" viewBox="0 0 8 9">
    <g fill="none" fill-rule="evenodd">
        <g fill="#FFF" fill-rule="nonzero">
            <g>
                <g>
                    <g>
                        <g>
                            <g>
                                <g>
                                    <path d="M4.907 11.942L8 8.849l3.093 3.093c.078.077.205.077.283 0l.566-.566c.077-.078.077-.205 0-.283L8.849 8l3.093-3.093c.077-.078.077-.204 0-.282l-.566-.566c-.078-.078-.205-.078-.283 0L8 7.152 4.907 4.059c-.078-.079-.204-.079-.282 0l-.566.565c-.079.078-.079.205 0 .283L7.152 8l-3.093 3.093c-.079.078-.079.205 0 .283l.565.566c.078.077.205.077.283 0z" transform="translate(-1004 -518) translate(370 67) translate(30 85) translate(0 173.5) translate(0 81.5) translate(0 57) translate(600 50.5)"/>
                                </g>
                            </g>
                        </g>
                    </g>
                </g>
            </g>
        </g>
    </g>
</svg>
