<svg xmlns="http://www.w3.org/2000/svg" xmlns:xlink="http://www.w3.org/1999/xlink" width="30" height="30" viewBox="0 0 30 30">
    <defs>
        <path id="a" d="M3.703 23.038c.198-.206.297-.45.297-.73 0-.282-.099-.525-.297-.73A.944.944 0 0 0 3 21.269a.944.944 0 0 0-.703.309 1.017 1.017 0 0 0-.297.73c0 .28.099.524.297.73a.944.944 0 0 0 .703.308c.27 0 .505-.103.703-.308zM22 12.962c0-.552-.203-1.036-.61-1.453-.406-.416-.87-.624-1.39-.624h-5.5c0-.628.25-1.49.75-2.588S16 6.33 16 5.692c0-1.06-.167-1.844-.5-2.352-.333-.509-1-.763-2-.763-.27.281-.469.74-.594 1.38a30.706 30.706 0 0 1-.476 2.035c-.193.72-.503 1.312-.93 1.777-.23.249-.63.741-1.203 1.477-.042.054-.162.216-.36.487a31.34 31.34 0 0 1-1.031 1.355c-.229.286-.437.524-.625.713-.187.19-.388.382-.601.576-.214.195-.422.341-.625.439a1.3 1.3 0 0 1-.555.146H6v10.384h.5c.135 0 .3.016.492.049.193.032.365.067.516.105.15.038.349.098.594.179a23.844 23.844 0 0 1 1.101.39c.25.091.401.148.453.17 2.198.79 3.98 1.184 5.344 1.184h1.89c2 0 3-.903 3-2.71 0-.28-.025-.584-.078-.908.313-.173.56-.457.743-.852.182-.395.273-.793.273-1.193s-.094-.773-.281-1.12c.552-.54.828-1.184.828-1.93 0-.27-.052-.57-.156-.9-.104-.33-.235-.588-.39-.772.332-.01.611-.265.835-.762.224-.498.336-.936.336-1.314zm2-.017a4.82 4.82 0 0 1-.766 2.645c.094.357.141.73.141 1.12 0 .833-.198 1.612-.594 2.336.032.227.047.46.047.698 0 1.093-.312 2.055-.937 2.888.01 1.504-.433 2.691-1.328 3.562-.896.87-2.079 1.306-3.547 1.306H15c-1 0-1.987-.122-2.96-.365-.975-.243-2.102-.598-3.384-1.063-1.208-.433-1.927-.649-2.156-.649H2a1.892 1.892 0 0 1-1.414-.608A2.04 2.04 0 0 1 0 23.346V12.962c0-.574.195-1.063.586-1.469.39-.406.862-.608 1.414-.608h4.281c.375-.26 1.089-1.098 2.14-2.515a30.965 30.965 0 0 1 1.673-2.077c.25-.27.435-.733.554-1.388.12-.654.28-1.338.477-2.052.198-.714.52-1.298.969-1.753.406-.4.875-.6 1.406-.6.875 0 1.661.176 2.36.527.697.352 1.229.9 1.593 1.647.365.747.547 1.753.547 3.018 0 1.006-.25 2.045-.75 3.116H20c1.083 0 2.02.41 2.813 1.233.791.822 1.187 1.79 1.187 2.904z"/>
    </defs>
    <use fill="#558322" fill-rule="evenodd" transform="translate(3 1)" xlink:href="#a"/>
</svg>
