<svg xmlns="http://www.w3.org/2000/svg" width="1em" height="1em" viewBox="0 0 14 16"><path d="M7 8c1.054 0 1.954-.39 2.7-1.172.745-.781 1.118-1.724 1.118-2.828 0-1.104-.373-2.047-1.118-2.828C8.954.39 8.054 0 7 0 5.946 0 5.046.39 4.3 1.172 3.555 1.953 3.182 2.896 3.182 4c0 1.104.373 2.047 1.118 2.828C5.046 7.61 5.946 8 7 8z"/><path d="M13.965 12.224c-.023-.35-.07-.73-.14-1.135a9.183 9.183 0 0 0-.263-1.13 5.494 5.494 0 0 0-.428-1.016 3.644 3.644 0 0 0-.616-.844 2.582 2.582 0 0 0-.85-.557 2.869 2.869 0 0 0-1.109-.209c-.06 0-.199.075-.417.224-.22.15-.466.316-.741.5-.275.184-.633.351-1.074.5-.44.15-.883.224-1.327.224-.445 0-.887-.075-1.328-.224-.44-.149-.798-.316-1.074-.5-.275-.184-.522-.35-.74-.5-.219-.149-.358-.224-.418-.224-.404 0-.774.07-1.108.209a2.581 2.581 0 0 0-.85.557 3.649 3.649 0 0 0-.617.844c-.179.33-.321.668-.427 1.015a9.183 9.183 0 0 0-.264 1.13c-.07.407-.116.785-.14 1.136-.022.35-.034.71-.034 1.078 0 .833.242 1.492.726 1.974.484.483 1.127.724 1.929.724h8.69c.802 0 1.445-.241 1.929-.724.484-.482.726-1.14.726-1.974 0-.368-.012-.727-.035-1.078z"/></svg>